<?xml version="1.0" encoding="utf-8" standalone="no"?>
<!DOCTYPE svg PUBLIC "-//W3C//DTD SVG 1.1//EN"
  "http://www.w3.org/Graphics/SVG/1.1/DTD/svg11.dtd">
<svg xmlns:xlink="http://www.w3.org/1999/xlink" width="569.262797pt" height="325.563328pt" viewBox="0 0 569.262797 325.563328" xmlns="http://www.w3.org/2000/svg" version="1.1">
 <metadata>
  <rdf:RDF xmlns:dc="http://purl.org/dc/elements/1.1/" xmlns:cc="http://creativecommons.org/ns#" xmlns:rdf="http://www.w3.org/1999/02/22-rdf-syntax-ns#">
   <cc:Work>
    <dc:type rdf:resource="http://purl.org/dc/dcmitype/StillImage"/>
    <dc:date>2024-10-17T10:04:18.793651</dc:date>
    <dc:format>image/svg+xml</dc:format>
    <dc:creator>
     <cc:Agent>
      <dc:title>Matplotlib v3.6.0, https://matplotlib.org/</dc:title>
     </cc:Agent>
    </dc:creator>
   </cc:Work>
  </rdf:RDF>
 </metadata>
 <defs>
  <style type="text/css">*{stroke-linejoin: round; stroke-linecap: butt}</style>
 </defs>
 <g id="figure_1">
  <g id="patch_1">
   <path d="M 0 325.563328 
L 569.262797 325.563328 
L 569.262797 0 
L 0 0 
z
" style="fill: #ffffff"/>
  </g>
  <g id="axes_1">
   <g id="patch_2">
    <path d="M 56.185078 273.312 
L 413.305078 273.312 
L 413.305078 7.2 
L 56.185078 7.2 
z
" style="fill: #ffffff"/>
   </g>
   <g id="matplotlib.axis_1">
    <g id="xtick_1">
     <g id="line2d_1">
      <defs>
       <path id="m5d39ef7d36" d="M 0 0 
L 0 6 
" style="stroke: #262626; stroke-width: 1.25"/>
      </defs>
      <g>
       <use xlink:href="#m5d39ef7d36" x="82.725268" y="273.312" style="fill: #262626; stroke: #262626; stroke-width: 1.25"/>
      </g>
     </g>
     <g id="text_1">
      <text style="fill: #262626; font: 16.5px 'sans-serif'; text-anchor: middle" x="82.725268" y="294.622391" transform="rotate(-0 82.725268 294.622391)">−6</text>
     </g>
    </g>
    <g id="xtick_2">
     <g id="line2d_2">
      <g>
       <use xlink:href="#m5d39ef7d36" x="135.517409" y="273.312" style="fill: #262626; stroke: #262626; stroke-width: 1.25"/>
      </g>
     </g>
     <g id="text_2">
      <text style="fill: #262626; font: 16.5px 'sans-serif'; text-anchor: middle" x="135.517409" y="294.622391" transform="rotate(-0 135.517409 294.622391)">−4</text>
     </g>
    </g>
    <g id="xtick_3">
     <g id="line2d_3">
      <g>
       <use xlink:href="#m5d39ef7d36" x="188.30955" y="273.312" style="fill: #262626; stroke: #262626; stroke-width: 1.25"/>
      </g>
     </g>
     <g id="text_3">
      <text style="fill: #262626; font: 16.5px 'sans-serif'; text-anchor: middle" x="188.30955" y="294.622391" transform="rotate(-0 188.30955 294.622391)">−2</text>
     </g>
    </g>
    <g id="xtick_4">
     <g id="line2d_4">
      <g>
       <use xlink:href="#m5d39ef7d36" x="241.101691" y="273.312" style="fill: #262626; stroke: #262626; stroke-width: 1.25"/>
      </g>
     </g>
     <g id="text_4">
      <text style="fill: #262626; font: 16.5px 'sans-serif'; text-anchor: middle" x="241.101691" y="294.622391" transform="rotate(-0 241.101691 294.622391)">0</text>
     </g>
    </g>
    <g id="xtick_5">
     <g id="line2d_5">
      <g>
       <use xlink:href="#m5d39ef7d36" x="293.893832" y="273.312" style="fill: #262626; stroke: #262626; stroke-width: 1.25"/>
      </g>
     </g>
     <g id="text_5">
      <text style="fill: #262626; font: 16.5px 'sans-serif'; text-anchor: middle" x="293.893832" y="294.622391" transform="rotate(-0 293.893832 294.622391)">2</text>
     </g>
    </g>
    <g id="xtick_6">
     <g id="line2d_6">
      <g>
       <use xlink:href="#m5d39ef7d36" x="346.685973" y="273.312" style="fill: #262626; stroke: #262626; stroke-width: 1.25"/>
      </g>
     </g>
     <g id="text_6">
      <text style="fill: #262626; font: 16.5px 'sans-serif'; text-anchor: middle" x="346.685973" y="294.622391" transform="rotate(-0 346.685973 294.622391)">4</text>
     </g>
    </g>
    <g id="xtick_7">
     <g id="line2d_7">
      <g>
       <use xlink:href="#m5d39ef7d36" x="399.478114" y="273.312" style="fill: #262626; stroke: #262626; stroke-width: 1.25"/>
      </g>
     </g>
     <g id="text_7">
      <text style="fill: #262626; font: 16.5px 'sans-serif'; text-anchor: middle" x="399.478114" y="294.622391" transform="rotate(-0 399.478114 294.622391)">6</text>
     </g>
    </g>
    <g id="text_8">
     <text style="fill: #262626; font: 18px 'sans-serif'; text-anchor: middle" x="234.745078" y="314.785828" transform="rotate(-0 234.745078 314.785828)">Muribaculaceae_Akkermansiaceae</text>
    </g>
   </g>
   <g id="matplotlib.axis_2">
    <g id="ytick_1">
     <g id="line2d_8">
      <defs>
       <path id="m1c7c5b8aba" d="M 0 0 
L -6 0 
" style="stroke: #262626; stroke-width: 1.25"/>
      </defs>
      <g>
       <use xlink:href="#m1c7c5b8aba" x="56.185078" y="247.222588" style="fill: #262626; stroke: #262626; stroke-width: 1.25"/>
      </g>
     </g>
     <g id="text_9">
      <text style="fill: #262626; font: 16.5px 'sans-serif'; text-anchor: end" x="46.685078" y="253.127784" transform="rotate(-0 46.685078 253.127784)">−2</text>
     </g>
    </g>
    <g id="ytick_2">
     <g id="line2d_9">
      <g>
       <use xlink:href="#m1c7c5b8aba" x="56.185078" y="195.043765" style="fill: #262626; stroke: #262626; stroke-width: 1.25"/>
      </g>
     </g>
     <g id="text_10">
      <text style="fill: #262626; font: 16.5px 'sans-serif'; text-anchor: end" x="46.685078" y="200.94896" transform="rotate(-0 46.685078 200.94896)">−1</text>
     </g>
    </g>
    <g id="ytick_3">
     <g id="line2d_10">
      <g>
       <use xlink:href="#m1c7c5b8aba" x="56.185078" y="142.864941" style="fill: #262626; stroke: #262626; stroke-width: 1.25"/>
      </g>
     </g>
     <g id="text_11">
      <text style="fill: #262626; font: 16.5px 'sans-serif'; text-anchor: end" x="46.685078" y="148.770136" transform="rotate(-0 46.685078 148.770136)">0</text>
     </g>
    </g>
    <g id="ytick_4">
     <g id="line2d_11">
      <g>
       <use xlink:href="#m1c7c5b8aba" x="56.185078" y="90.686118" style="fill: #262626; stroke: #262626; stroke-width: 1.25"/>
      </g>
     </g>
     <g id="text_12">
      <text style="fill: #262626; font: 16.5px 'sans-serif'; text-anchor: end" x="46.685078" y="96.591313" transform="rotate(-0 46.685078 96.591313)">1</text>
     </g>
    </g>
    <g id="ytick_5">
     <g id="line2d_12">
      <g>
       <use xlink:href="#m1c7c5b8aba" x="56.185078" y="38.507294" style="fill: #262626; stroke: #262626; stroke-width: 1.25"/>
      </g>
     </g>
     <g id="text_13">
      <text style="fill: #262626; font: 16.5px 'sans-serif'; text-anchor: end" x="46.685078" y="44.412489" transform="rotate(-0 46.685078 44.412489)">2</text>
     </g>
    </g>
    <g id="text_14">
     <text style="fill: #262626; font: 18px 'sans-serif'; text-anchor: middle" x="20.084063" y="140.256" transform="rotate(-90 20.084063 140.256)">Main_Metab_Log_Ratio</text>
    </g>
   </g>
   <g id="PathCollection_1">
    <path d="M 284.607339 51.917213 
C 285.933355 51.917213 287.205239 51.390382 288.142873 50.452747 
C 289.080508 49.515112 289.607339 48.243229 289.607339 46.917213 
C 289.607339 45.591198 289.080508 44.319314 288.142873 43.381679 
C 287.205239 42.444045 285.933355 41.917213 284.607339 41.917213 
C 283.281324 41.917213 282.00944 42.444045 281.071805 43.381679 
C 280.134171 44.319314 279.607339 45.591198 279.607339 46.917213 
C 279.607339 48.243229 280.134171 49.515112 281.071805 50.452747 
C 282.00944 51.390382 283.281324 51.917213 284.607339 51.917213 
z
" clip-path="url(#pf95a890508)" style="stroke: #ffffff; stroke-width: 0.8"/>
    <path d="M 301.907449 46.04954 
C 303.233465 46.04954 304.505349 45.522709 305.442983 44.585074 
C 306.380618 43.64744 306.907449 42.375556 306.907449 41.04954 
C 306.907449 39.723525 306.380618 38.451641 305.442983 37.514006 
C 304.505349 36.576372 303.233465 36.04954 301.907449 36.04954 
C 300.581434 36.04954 299.30955 36.576372 298.371916 37.514006 
C 297.434281 38.451641 296.907449 39.723525 296.907449 41.04954 
C 296.907449 42.375556 297.434281 43.64744 298.371916 44.585074 
C 299.30955 45.522709 300.581434 46.04954 301.907449 46.04954 
z
" clip-path="url(#pf95a890508)" style="stroke: #ffffff; stroke-width: 0.8"/>
    <path d="M 302.589282 37.449557 
C 303.915298 37.449557 305.187181 36.922726 306.124816 35.985091 
C 307.06245 35.047457 307.589282 33.775573 307.589282 32.449557 
C 307.589282 31.123542 307.06245 29.851658 306.124816 28.914023 
C 305.187181 27.976389 303.915298 27.449557 302.589282 27.449557 
C 301.263267 27.449557 299.991383 27.976389 299.053748 28.914023 
C 298.116114 29.851658 297.589282 31.123542 297.589282 32.449557 
C 297.589282 33.775573 298.116114 35.047457 299.053748 35.985091 
C 299.991383 36.922726 301.263267 37.449557 302.589282 37.449557 
z
" clip-path="url(#pf95a890508)" style="stroke: #ffffff; stroke-width: 0.8"/>
    <path d="M 280.449511 40.518689 
C 281.775526 40.518689 283.04741 39.991857 283.985045 39.054223 
C 284.922679 38.116588 285.449511 36.844704 285.449511 35.518689 
C 285.449511 34.192673 284.922679 32.920789 283.985045 31.983155 
C 283.04741 31.04552 281.775526 30.518689 280.449511 30.518689 
C 279.123495 30.518689 277.851611 31.04552 276.913977 31.983155 
C 275.976342 32.920789 275.449511 34.192673 275.449511 35.518689 
C 275.449511 36.844704 275.976342 38.116588 276.913977 39.054223 
C 277.851611 39.991857 279.123495 40.518689 280.449511 40.518689 
z
" clip-path="url(#pf95a890508)" style="stroke: #ffffff; stroke-width: 0.8"/>
    <path d="M 288.321746 55.273797 
C 289.647762 55.273797 290.919645 54.746965 291.85728 53.809331 
C 292.794915 52.871696 293.321746 51.599812 293.321746 50.273797 
C 293.321746 48.947781 292.794915 47.675897 291.85728 46.738263 
C 290.919645 45.800628 289.647762 45.273797 288.321746 45.273797 
C 286.995731 45.273797 285.723847 45.800628 284.786212 46.738263 
C 283.848578 47.675897 283.321746 48.947781 283.321746 50.273797 
C 283.321746 51.599812 283.848578 52.871696 284.786212 53.809331 
C 285.723847 54.746965 286.995731 55.273797 288.321746 55.273797 
z
" clip-path="url(#pf95a890508)" style="stroke: #ffffff; stroke-width: 0.8"/>
    <path d="M 308.252125 72.135782 
C 309.57814 72.135782 310.850024 71.608951 311.787659 70.671316 
C 312.725293 69.733681 313.252125 68.461798 313.252125 67.135782 
C 313.252125 65.809767 312.725293 64.537883 311.787659 63.600248 
C 310.850024 62.662614 309.57814 62.135782 308.252125 62.135782 
C 306.926109 62.135782 305.654225 62.662614 304.716591 63.600248 
C 303.778956 64.537883 303.252125 65.809767 303.252125 67.135782 
C 303.252125 68.461798 303.778956 69.733681 304.716591 70.671316 
C 305.654225 71.608951 306.926109 72.135782 308.252125 72.135782 
z
" clip-path="url(#pf95a890508)" style="stroke: #ffffff; stroke-width: 0.8"/>
    <path d="M 349.101743 64.506562 
C 350.427759 64.506562 351.699643 63.979731 352.637277 63.042096 
C 353.574912 62.104462 354.101743 60.832578 354.101743 59.506562 
C 354.101743 58.180547 353.574912 56.908663 352.637277 55.971028 
C 351.699643 55.033394 350.427759 54.506562 349.101743 54.506562 
C 347.775728 54.506562 346.503844 55.033394 345.566209 55.971028 
C 344.628575 56.908663 344.101743 58.180547 344.101743 59.506562 
C 344.101743 60.832578 344.628575 62.104462 345.566209 63.042096 
C 346.503844 63.979731 347.775728 64.506562 349.101743 64.506562 
z
" clip-path="url(#pf95a890508)" style="stroke: #ffffff; stroke-width: 0.8"/>
    <path d="M 319.042378 59.132721 
C 320.368394 59.132721 321.640277 58.60589 322.577912 57.668255 
C 323.515546 56.730621 324.042378 55.458737 324.042378 54.132721 
C 324.042378 52.806706 323.515546 51.534822 322.577912 50.597187 
C 321.640277 49.659553 320.368394 49.132721 319.042378 49.132721 
C 317.716363 49.132721 316.444479 49.659553 315.506844 50.597187 
C 314.56921 51.534822 314.042378 52.806706 314.042378 54.132721 
C 314.042378 55.458737 314.56921 56.730621 315.506844 57.668255 
C 316.444479 58.60589 317.716363 59.132721 319.042378 59.132721 
z
" clip-path="url(#pf95a890508)" style="stroke: #ffffff; stroke-width: 0.8"/>
    <path d="M 371.600686 54.668127 
C 372.926702 54.668127 374.198586 54.141295 375.13622 53.20366 
C 376.073855 52.266026 376.600686 50.994142 376.600686 49.668127 
C 376.600686 48.342111 376.073855 47.070227 375.13622 46.132593 
C 374.198586 45.194958 372.926702 44.668127 371.600686 44.668127 
C 370.274671 44.668127 369.002787 45.194958 368.065152 46.132593 
C 367.127518 47.070227 366.600686 48.342111 366.600686 49.668127 
C 366.600686 50.994142 367.127518 52.266026 368.065152 53.20366 
C 369.002787 54.141295 370.274671 54.668127 371.600686 54.668127 
z
" clip-path="url(#pf95a890508)" style="stroke: #ffffff; stroke-width: 0.8"/>
    <path d="M 311.481329 30.495702 
C 312.807345 30.495702 314.079229 29.96887 315.016863 29.031236 
C 315.954498 28.093601 316.481329 26.821717 316.481329 25.495702 
C 316.481329 24.169686 315.954498 22.897802 315.016863 21.960168 
C 314.079229 21.022533 312.807345 20.495702 311.481329 20.495702 
C 310.155314 20.495702 308.88343 21.022533 307.945795 21.960168 
C 307.008161 22.897802 306.481329 24.169686 306.481329 25.495702 
C 306.481329 26.821717 307.008161 28.093601 307.945795 29.031236 
C 308.88343 29.96887 310.155314 30.495702 311.481329 30.495702 
z
" clip-path="url(#pf95a890508)" style="stroke: #ffffff; stroke-width: 0.8"/>
    <path d="M 316.386229 40.975083 
C 317.712244 40.975083 318.984128 40.448251 319.921762 39.510617 
C 320.859397 38.572982 321.386229 37.301098 321.386229 35.975083 
C 321.386229 34.649067 320.859397 33.377183 319.921762 32.439549 
C 318.984128 31.501914 317.712244 30.975083 316.386229 30.975083 
C 315.060213 30.975083 313.788329 31.501914 312.850695 32.439549 
C 311.91306 33.377183 311.386229 34.649067 311.386229 35.975083 
C 311.386229 37.301098 311.91306 38.572982 312.850695 39.510617 
C 313.788329 40.448251 315.060213 40.975083 316.386229 40.975083 
z
" clip-path="url(#pf95a890508)" style="stroke: #ffffff; stroke-width: 0.8"/>
    <path d="M 284.520183 52.193329 
C 285.846198 52.193329 287.118082 51.666497 288.055717 50.728863 
C 288.993351 49.791228 289.520183 48.519344 289.520183 47.193329 
C 289.520183 45.867313 288.993351 44.59543 288.055717 43.657795 
C 287.118082 42.720161 285.846198 42.193329 284.520183 42.193329 
C 283.194167 42.193329 281.922283 42.720161 280.984649 43.657795 
C 280.047014 44.59543 279.520183 45.867313 279.520183 47.193329 
C 279.520183 48.519344 280.047014 49.791228 280.984649 50.728863 
C 281.922283 51.666497 283.194167 52.193329 284.520183 52.193329 
z
" clip-path="url(#pf95a890508)" style="stroke: #ffffff; stroke-width: 0.8"/>
    <path d="M 314.233287 44.44068 
C 315.559303 44.44068 316.831187 43.913849 317.768821 42.976214 
C 318.706456 42.038579 319.233287 40.766696 319.233287 39.44068 
C 319.233287 38.114665 318.706456 36.842781 317.768821 35.905146 
C 316.831187 34.967512 315.559303 34.44068 314.233287 34.44068 
C 312.907272 34.44068 311.635388 34.967512 310.697753 35.905146 
C 309.760119 36.842781 309.233287 38.114665 309.233287 39.44068 
C 309.233287 40.766696 309.760119 42.038579 310.697753 42.976214 
C 311.635388 43.913849 312.907272 44.44068 314.233287 44.44068 
z
" clip-path="url(#pf95a890508)" style="stroke: #ffffff; stroke-width: 0.8"/>
    <path d="M 309.560304 32.183864 
C 310.88632 32.183864 312.158203 31.657033 313.095838 30.719398 
C 314.033473 29.781763 314.560304 28.50988 314.560304 27.183864 
C 314.560304 25.857849 314.033473 24.585965 313.095838 23.64833 
C 312.158203 22.710696 310.88632 22.183864 309.560304 22.183864 
C 308.234289 22.183864 306.962405 22.710696 306.02477 23.64833 
C 305.087136 24.585965 304.560304 25.857849 304.560304 27.183864 
C 304.560304 28.50988 305.087136 29.781763 306.02477 30.719398 
C 306.962405 31.657033 308.234289 32.183864 309.560304 32.183864 
z
" clip-path="url(#pf95a890508)" style="stroke: #ffffff; stroke-width: 0.8"/>
    <path d="M 290.429962 53.681292 
C 291.755978 53.681292 293.027861 53.15446 293.965496 52.216826 
C 294.903131 51.279191 295.429962 50.007307 295.429962 48.681292 
C 295.429962 47.355276 294.903131 46.083392 293.965496 45.145758 
C 293.027861 44.208123 291.755978 43.681292 290.429962 43.681292 
C 289.103947 43.681292 287.832063 44.208123 286.894428 45.145758 
C 285.956794 46.083392 285.429962 47.355276 285.429962 48.681292 
C 285.429962 50.007307 285.956794 51.279191 286.894428 52.216826 
C 287.832063 53.15446 289.103947 53.681292 290.429962 53.681292 
z
" clip-path="url(#pf95a890508)" style="stroke: #ffffff; stroke-width: 0.8"/>
    <path d="M 351.751525 61.459644 
C 353.07754 61.459644 354.349424 60.932812 355.287058 59.995178 
C 356.224693 59.057543 356.751525 57.785659 356.751525 56.459644 
C 356.751525 55.133628 356.224693 53.861744 355.287058 52.92411 
C 354.349424 51.986475 353.07754 51.459644 351.751525 51.459644 
C 350.425509 51.459644 349.153625 51.986475 348.215991 52.92411 
C 347.278356 53.861744 346.751525 55.133628 346.751525 56.459644 
C 346.751525 57.785659 347.278356 59.057543 348.215991 59.995178 
C 349.153625 60.932812 350.425509 61.459644 351.751525 61.459644 
z
" clip-path="url(#pf95a890508)" style="stroke: #ffffff; stroke-width: 0.8"/>
    <path d="M 301.240642 42.635265 
C 302.566658 42.635265 303.838542 42.108434 304.776176 41.170799 
C 305.713811 40.233165 306.240642 38.961281 306.240642 37.635265 
C 306.240642 36.30925 305.713811 35.037366 304.776176 34.099731 
C 303.838542 33.162097 302.566658 32.635265 301.240642 32.635265 
C 299.914627 32.635265 298.642743 33.162097 297.705109 34.099731 
C 296.767474 35.037366 296.240642 36.30925 296.240642 37.635265 
C 296.240642 38.961281 296.767474 40.233165 297.705109 41.170799 
C 298.642743 42.108434 299.914627 42.635265 301.240642 42.635265 
z
" clip-path="url(#pf95a890508)" style="stroke: #ffffff; stroke-width: 0.8"/>
    <path d="M 397.072351 54.205531 
C 398.398366 54.205531 399.67025 53.6787 400.607885 52.741065 
C 401.545519 51.80343 402.072351 50.531547 402.072351 49.205531 
C 402.072351 47.879516 401.545519 46.607632 400.607885 45.669997 
C 399.67025 44.732363 398.398366 44.205531 397.072351 44.205531 
C 395.746335 44.205531 394.474451 44.732363 393.536817 45.669997 
C 392.599182 46.607632 392.072351 47.879516 392.072351 49.205531 
C 392.072351 50.531547 392.599182 51.80343 393.536817 52.741065 
C 394.474451 53.6787 395.746335 54.205531 397.072351 54.205531 
z
" clip-path="url(#pf95a890508)" style="stroke: #ffffff; stroke-width: 0.8"/>
    <path d="M 318.98461 80.320634 
C 320.310625 80.320634 321.582509 79.793803 322.520144 78.856168 
C 323.457778 77.918533 323.98461 76.64665 323.98461 75.320634 
C 323.98461 73.994619 323.457778 72.722735 322.520144 71.7851 
C 321.582509 70.847466 320.310625 70.320634 318.98461 70.320634 
C 317.658594 70.320634 316.38671 70.847466 315.449076 71.7851 
C 314.511441 72.722735 313.98461 73.994619 313.98461 75.320634 
C 313.98461 76.64665 314.511441 77.918533 315.449076 78.856168 
C 316.38671 79.793803 317.658594 80.320634 318.98461 80.320634 
z
" clip-path="url(#pf95a890508)" style="stroke: #ffffff; stroke-width: 0.8"/>
    <path d="M 363.337348 64.495106 
C 364.663363 64.495106 365.935247 63.968274 366.872882 63.03064 
C 367.810516 62.093005 368.337348 60.821121 368.337348 59.495106 
C 368.337348 58.16909 367.810516 56.897206 366.872882 55.959572 
C 365.935247 55.021937 364.663363 54.495106 363.337348 54.495106 
C 362.011332 54.495106 360.739448 55.021937 359.801814 55.959572 
C 358.864179 56.897206 358.337348 58.16909 358.337348 59.495106 
C 358.337348 60.821121 358.864179 62.093005 359.801814 63.03064 
C 360.739448 63.968274 362.011332 64.495106 363.337348 64.495106 
z
" clip-path="url(#pf95a890508)" style="stroke: #ffffff; stroke-width: 0.8"/>
    <path d="M 341.296723 83.192619 
C 342.622738 83.192619 343.894622 82.665788 344.832257 81.728153 
C 345.769891 80.790519 346.296723 79.518635 346.296723 78.192619 
C 346.296723 76.866604 345.769891 75.59472 344.832257 74.657085 
C 343.894622 73.719451 342.622738 73.192619 341.296723 73.192619 
C 339.970707 73.192619 338.698824 73.719451 337.761189 74.657085 
C 336.823554 75.59472 336.296723 76.866604 336.296723 78.192619 
C 336.296723 79.518635 336.823554 80.790519 337.761189 81.728153 
C 338.698824 82.665788 339.970707 83.192619 341.296723 83.192619 
z
" clip-path="url(#pf95a890508)" style="stroke: #ffffff; stroke-width: 0.8"/>
    <path d="M 343.291074 65.905004 
C 344.617089 65.905004 345.888973 65.378172 346.826608 64.440538 
C 347.764242 63.502903 348.291074 62.231019 348.291074 60.905004 
C 348.291074 59.578988 347.764242 58.307104 346.826608 57.36947 
C 345.888973 56.431835 344.617089 55.905004 343.291074 55.905004 
C 341.965058 55.905004 340.693174 56.431835 339.75554 57.36947 
C 338.817905 58.307104 338.291074 59.578988 338.291074 60.905004 
C 338.291074 62.231019 338.817905 63.502903 339.75554 64.440538 
C 340.693174 65.378172 341.965058 65.905004 343.291074 65.905004 
z
" clip-path="url(#pf95a890508)" style="stroke: #ffffff; stroke-width: 0.8"/>
    <path d="M 316.562244 35.513826 
C 317.88826 35.513826 319.160143 34.986994 320.097778 34.04936 
C 321.035413 33.111725 321.562244 31.839841 321.562244 30.513826 
C 321.562244 29.18781 321.035413 27.915927 320.097778 26.978292 
C 319.160143 26.040657 317.88826 25.513826 316.562244 25.513826 
C 315.236229 25.513826 313.964345 26.040657 313.02671 26.978292 
C 312.089076 27.915927 311.562244 29.18781 311.562244 30.513826 
C 311.562244 31.839841 312.089076 33.111725 313.02671 34.04936 
C 313.964345 34.986994 315.236229 35.513826 316.562244 35.513826 
z
" clip-path="url(#pf95a890508)" style="stroke: #ffffff; stroke-width: 0.8"/>
    <path d="M 316.651952 76.643288 
C 317.977968 76.643288 319.249852 76.116456 320.187486 75.178822 
C 321.125121 74.241187 321.651952 72.969304 321.651952 71.643288 
C 321.651952 70.317273 321.125121 69.045389 320.187486 68.107754 
C 319.249852 67.17012 317.977968 66.643288 316.651952 66.643288 
C 315.325937 66.643288 314.054053 67.17012 313.116418 68.107754 
C 312.178784 69.045389 311.651952 70.317273 311.651952 71.643288 
C 311.651952 72.969304 312.178784 74.241187 313.116418 75.178822 
C 314.054053 76.116456 315.325937 76.643288 316.651952 76.643288 
z
" clip-path="url(#pf95a890508)" style="stroke: #ffffff; stroke-width: 0.8"/>
    <path d="M 308.90487 29.603033 
C 310.230886 29.603033 311.50277 29.076201 312.440404 28.138567 
C 313.378039 27.200932 313.90487 25.929049 313.90487 24.603033 
C 313.90487 23.277018 313.378039 22.005134 312.440404 21.067499 
C 311.50277 20.129865 310.230886 19.603033 308.90487 19.603033 
C 307.578855 19.603033 306.306971 20.129865 305.369336 21.067499 
C 304.431702 22.005134 303.90487 23.277018 303.90487 24.603033 
C 303.90487 25.929049 304.431702 27.200932 305.369336 28.138567 
C 306.306971 29.076201 307.578855 29.603033 308.90487 29.603033 
z
" clip-path="url(#pf95a890508)" style="stroke: #ffffff; stroke-width: 0.8"/>
    <path d="M 311.750272 62.201417 
C 313.076287 62.201417 314.348171 61.674585 315.285806 60.73695 
C 316.22344 59.799316 316.750272 58.527432 316.750272 57.201417 
C 316.750272 55.875401 316.22344 54.603517 315.285806 53.665883 
C 314.348171 52.728248 313.076287 52.201417 311.750272 52.201417 
C 310.424256 52.201417 309.152372 52.728248 308.214738 53.665883 
C 307.277103 54.603517 306.750272 55.875401 306.750272 57.201417 
C 306.750272 58.527432 307.277103 59.799316 308.214738 60.73695 
C 309.152372 61.674585 310.424256 62.201417 311.750272 62.201417 
z
" clip-path="url(#pf95a890508)" style="stroke: #ffffff; stroke-width: 0.8"/>
    <path d="M 322.636271 24.140137 
C 323.962286 24.140137 325.23417 23.613305 326.171804 22.675671 
C 327.109439 21.738036 327.636271 20.466153 327.636271 19.140137 
C 327.636271 17.814122 327.109439 16.542238 326.171804 15.604603 
C 325.23417 14.666969 323.962286 14.140137 322.636271 14.140137 
C 321.310255 14.140137 320.038371 14.666969 319.100737 15.604603 
C 318.163102 16.542238 317.636271 17.814122 317.636271 19.140137 
C 317.636271 20.466153 318.163102 21.738036 319.100737 22.675671 
C 320.038371 23.613305 321.310255 24.140137 322.636271 24.140137 
z
" clip-path="url(#pf95a890508)" style="stroke: #ffffff; stroke-width: 0.8"/>
    <path d="M 331.118665 70.084477 
C 332.44468 70.084477 333.716564 69.557646 334.654199 68.620011 
C 335.591833 67.682377 336.118665 66.410493 336.118665 65.084477 
C 336.118665 63.758462 335.591833 62.486578 334.654199 61.548943 
C 333.716564 60.611309 332.44468 60.084477 331.118665 60.084477 
C 329.792649 60.084477 328.520766 60.611309 327.583131 61.548943 
C 326.645497 62.486578 326.118665 63.758462 326.118665 65.084477 
C 326.118665 66.410493 326.645497 67.682377 327.583131 68.620011 
C 328.520766 69.557646 329.792649 70.084477 331.118665 70.084477 
z
" clip-path="url(#pf95a890508)" style="stroke: #ffffff; stroke-width: 0.8"/>
    <path d="M 322.163896 40.381833 
C 323.489911 40.381833 324.761795 39.855001 325.69943 38.917367 
C 326.637064 37.979732 327.163896 36.707848 327.163896 35.381833 
C 327.163896 34.055817 326.637064 32.783933 325.69943 31.846299 
C 324.761795 30.908664 323.489911 30.381833 322.163896 30.381833 
C 320.83788 30.381833 319.565996 30.908664 318.628362 31.846299 
C 317.690727 32.783933 317.163896 34.055817 317.163896 35.381833 
C 317.163896 36.707848 317.690727 37.979732 318.628362 38.917367 
C 319.565996 39.855001 320.83788 40.381833 322.163896 40.381833 
z
" clip-path="url(#pf95a890508)" style="stroke: #ffffff; stroke-width: 0.8"/>
    <path d="M 304.225588 25.906308 
C 305.551603 25.906308 306.823487 25.379477 307.761121 24.441842 
C 308.698756 23.504208 309.225588 22.232324 309.225588 20.906308 
C 309.225588 19.580293 308.698756 18.308409 307.761121 17.370774 
C 306.823487 16.43314 305.551603 15.906308 304.225588 15.906308 
C 302.899572 15.906308 301.627688 16.43314 300.690054 17.370774 
C 299.752419 18.308409 299.225588 19.580293 299.225588 20.906308 
C 299.225588 22.232324 299.752419 23.504208 300.690054 24.441842 
C 301.627688 25.379477 302.899572 25.906308 304.225588 25.906308 
z
" clip-path="url(#pf95a890508)" style="stroke: #ffffff; stroke-width: 0.8"/>
    <path d="M 308.444572 80.868482 
C 309.770587 80.868482 311.042471 80.34165 311.980106 79.404016 
C 312.91774 78.466381 313.444572 77.194497 313.444572 75.868482 
C 313.444572 74.542466 312.91774 73.270583 311.980106 72.332948 
C 311.042471 71.395313 309.770587 70.868482 308.444572 70.868482 
C 307.118556 70.868482 305.846672 71.395313 304.909038 72.332948 
C 303.971403 73.270583 303.444572 74.542466 303.444572 75.868482 
C 303.444572 77.194497 303.971403 78.466381 304.909038 79.404016 
C 305.846672 80.34165 307.118556 80.868482 308.444572 80.868482 
z
" clip-path="url(#pf95a890508)" style="stroke: #ffffff; stroke-width: 0.8"/>
    <path d="M 347.55083 29.182146 
C 348.876846 29.182146 350.14873 28.655315 351.086364 27.71768 
C 352.023999 26.780045 352.55083 25.508162 352.55083 24.182146 
C 352.55083 22.856131 352.023999 21.584247 351.086364 20.646612 
C 350.14873 19.708978 348.876846 19.182146 347.55083 19.182146 
C 346.224815 19.182146 344.952931 19.708978 344.015297 20.646612 
C 343.077662 21.584247 342.55083 22.856131 342.55083 24.182146 
C 342.55083 25.508162 343.077662 26.780045 344.015297 27.71768 
C 344.952931 28.655315 346.224815 29.182146 347.55083 29.182146 
z
" clip-path="url(#pf95a890508)" style="stroke: #ffffff; stroke-width: 0.8"/>
    <path d="M 307.901673 77.076943 
C 309.227688 77.076943 310.499572 76.550112 311.437206 75.612477 
C 312.374841 74.674843 312.901673 73.402959 312.901673 72.076943 
C 312.901673 70.750928 312.374841 69.479044 311.437206 68.541409 
C 310.499572 67.603775 309.227688 67.076943 307.901673 67.076943 
C 306.575657 67.076943 305.303773 67.603775 304.366139 68.541409 
C 303.428504 69.479044 302.901673 70.750928 302.901673 72.076943 
C 302.901673 73.402959 303.428504 74.674843 304.366139 75.612477 
C 305.303773 76.550112 306.575657 77.076943 307.901673 77.076943 
z
" clip-path="url(#pf95a890508)" style="stroke: #ffffff; stroke-width: 0.8"/>
    <path d="M 320.43078 83.716077 
C 321.756796 83.716077 323.02868 83.189246 323.966314 82.251611 
C 324.903949 81.313977 325.43078 80.042093 325.43078 78.716077 
C 325.43078 77.390062 324.903949 76.118178 323.966314 75.180543 
C 323.02868 74.242909 321.756796 73.716077 320.43078 73.716077 
C 319.104765 73.716077 317.832881 74.242909 316.895247 75.180543 
C 315.957612 76.118178 315.43078 77.390062 315.43078 78.716077 
C 315.43078 80.042093 315.957612 81.313977 316.895247 82.251611 
C 317.832881 83.189246 319.104765 83.716077 320.43078 83.716077 
z
" clip-path="url(#pf95a890508)" style="stroke: #ffffff; stroke-width: 0.8"/>
    <path d="M 328.085529 29.994204 
C 329.411544 29.994204 330.683428 29.467373 331.621063 28.529738 
C 332.558697 27.592103 333.085529 26.32022 333.085529 24.994204 
C 333.085529 23.668189 332.558697 22.396305 331.621063 21.45867 
C 330.683428 20.521036 329.411544 19.994204 328.085529 19.994204 
C 326.759513 19.994204 325.48763 20.521036 324.549995 21.45867 
C 323.612361 22.396305 323.085529 23.668189 323.085529 24.994204 
C 323.085529 26.32022 323.612361 27.592103 324.549995 28.529738 
C 325.48763 29.467373 326.759513 29.994204 328.085529 29.994204 
z
" clip-path="url(#pf95a890508)" style="stroke: #ffffff; stroke-width: 0.8"/>
    <path d="M 323.260322 33.176283 
C 324.586337 33.176283 325.858221 32.649452 326.795856 31.711817 
C 327.73349 30.774183 328.260322 29.502299 328.260322 28.176283 
C 328.260322 26.850268 327.73349 25.578384 326.795856 24.64075 
C 325.858221 23.703115 324.586337 23.176283 323.260322 23.176283 
C 321.934306 23.176283 320.662423 23.703115 319.724788 24.64075 
C 318.787153 25.578384 318.260322 26.850268 318.260322 28.176283 
C 318.260322 29.502299 318.787153 30.774183 319.724788 31.711817 
C 320.662423 32.649452 321.934306 33.176283 323.260322 33.176283 
z
" clip-path="url(#pf95a890508)" style="stroke: #ffffff; stroke-width: 0.8"/>
    <path d="M 305.067695 73.007809 
C 306.393711 73.007809 307.665595 72.480977 308.603229 71.543343 
C 309.540864 70.605708 310.067695 69.333824 310.067695 68.007809 
C 310.067695 66.681793 309.540864 65.409909 308.603229 64.472275 
C 307.665595 63.53464 306.393711 63.007809 305.067695 63.007809 
C 303.74168 63.007809 302.469796 63.53464 301.532162 64.472275 
C 300.594527 65.409909 300.067695 66.681793 300.067695 68.007809 
C 300.067695 69.333824 300.594527 70.605708 301.532162 71.543343 
C 302.469796 72.480977 303.74168 73.007809 305.067695 73.007809 
z
" clip-path="url(#pf95a890508)" style="stroke: #ffffff; stroke-width: 0.8"/>
    <path d="M 232.909321 219.664354 
L 227.909321 229.664354 
L 237.909321 229.664354 
z
" clip-path="url(#pf95a890508)" style="fill: #ff0000; stroke: #ffffff; stroke-width: 0.8"/>
    <path d="M 298.724492 73.018884 
C 300.050508 73.018884 301.322391 72.492052 302.260026 71.554417 
C 303.197661 70.616783 303.724492 69.344899 303.724492 68.018884 
C 303.724492 66.692868 303.197661 65.420984 302.260026 64.48335 
C 301.322391 63.545715 300.050508 63.018884 298.724492 63.018884 
C 297.398477 63.018884 296.126593 63.545715 295.188958 64.48335 
C 294.251324 65.420984 293.724492 66.692868 293.724492 68.018884 
C 293.724492 69.344899 294.251324 70.616783 295.188958 71.554417 
C 296.126593 72.492052 297.398477 73.018884 298.724492 73.018884 
z
" clip-path="url(#pf95a890508)" style="stroke: #ffffff; stroke-width: 0.8"/>
    <path d="M 231.425659 217.0985 
L 226.425659 227.0985 
L 236.425659 227.0985 
z
" clip-path="url(#pf95a890508)" style="fill: #ff0000; stroke: #ffffff; stroke-width: 0.8"/>
    <path d="M 203.552542 224.076571 
L 198.552542 234.076571 
L 208.552542 234.076571 
z
" clip-path="url(#pf95a890508)" style="fill: #ff0000; stroke: #ffffff; stroke-width: 0.8"/>
    <path d="M 281.386775 85.001204 
C 282.71279 85.001204 283.984674 84.474373 284.922308 83.536738 
C 285.859943 82.599104 286.386775 81.32722 286.386775 80.001204 
C 286.386775 78.675189 285.859943 77.403305 284.922308 76.46567 
C 283.984674 75.528036 282.71279 75.001204 281.386775 75.001204 
C 280.060759 75.001204 278.788875 75.528036 277.851241 76.46567 
C 276.913606 77.403305 276.386775 78.675189 276.386775 80.001204 
C 276.386775 81.32722 276.913606 82.599104 277.851241 83.536738 
C 278.788875 84.474373 280.060759 85.001204 281.386775 85.001204 
z
" clip-path="url(#pf95a890508)" style="stroke: #ffffff; stroke-width: 0.8"/>
    <path d="M 221.728692 198.205653 
L 216.728692 208.205653 
L 226.728692 208.205653 
z
" clip-path="url(#pf95a890508)" style="fill: #ff0000; stroke: #ffffff; stroke-width: 0.8"/>
    <path d="M 359.992273 32.290863 
C 361.318288 32.290863 362.590172 31.764032 363.527806 30.826397 
C 364.465441 29.888762 364.992273 28.616879 364.992273 27.290863 
C 364.992273 25.964848 364.465441 24.692964 363.527806 23.755329 
C 362.590172 22.817695 361.318288 22.290863 359.992273 22.290863 
C 358.666257 22.290863 357.394373 22.817695 356.456739 23.755329 
C 355.519104 24.692964 354.992273 25.964848 354.992273 27.290863 
C 354.992273 28.616879 355.519104 29.888762 356.456739 30.826397 
C 357.394373 31.764032 358.666257 32.290863 359.992273 32.290863 
z
" clip-path="url(#pf95a890508)" style="stroke: #ffffff; stroke-width: 0.8"/>
    <path d="M 281.658993 38.05554 
C 282.985008 38.05554 284.256892 37.528709 285.194527 36.591074 
C 286.132161 35.65344 286.658993 34.381556 286.658993 33.05554 
C 286.658993 31.729525 286.132161 30.457641 285.194527 29.520006 
C 284.256892 28.582372 282.985008 28.05554 281.658993 28.05554 
C 280.332977 28.05554 279.061093 28.582372 278.123459 29.520006 
C 277.185824 30.457641 276.658993 31.729525 276.658993 33.05554 
C 276.658993 34.381556 277.185824 35.65344 278.123459 36.591074 
C 279.061093 37.528709 280.332977 38.05554 281.658993 38.05554 
z
" clip-path="url(#pf95a890508)" style="stroke: #ffffff; stroke-width: 0.8"/>
    <path d="M 220.711306 225.856377 
L 215.711306 235.856377 
L 225.711306 235.856377 
z
" clip-path="url(#pf95a890508)" style="fill: #ff0000; stroke: #ffffff; stroke-width: 0.8"/>
    <path d="M 217.578527 222.854542 
L 212.578527 232.854542 
L 222.578527 232.854542 
z
" clip-path="url(#pf95a890508)" style="fill: #ff0000; stroke: #ffffff; stroke-width: 0.8"/>
    <path d="M 246.9771 211.987951 
L 241.9771 221.987951 
L 251.9771 221.987951 
z
" clip-path="url(#pf95a890508)" style="fill: #ff0000; stroke: #ffffff; stroke-width: 0.8"/>
    <path d="M 219.764354 240.376601 
L 214.764354 250.376601 
L 224.764354 250.376601 
z
" clip-path="url(#pf95a890508)" style="fill: #ff0000; stroke: #ffffff; stroke-width: 0.8"/>
    <path d="M 383.703712 43.23942 
C 385.029727 43.23942 386.301611 42.712589 387.239246 41.774954 
C 388.17688 40.83732 388.703712 39.565436 388.703712 38.23942 
C 388.703712 36.913405 388.17688 35.641521 387.239246 34.703886 
C 386.301611 33.766252 385.029727 33.23942 383.703712 33.23942 
C 382.377696 33.23942 381.105813 33.766252 380.168178 34.703886 
C 379.230543 35.641521 378.703712 36.913405 378.703712 38.23942 
C 378.703712 39.565436 379.230543 40.83732 380.168178 41.774954 
C 381.105813 42.712589 382.377696 43.23942 383.703712 43.23942 
z
" clip-path="url(#pf95a890508)" style="stroke: #ffffff; stroke-width: 0.8"/>
    <path d="M 216.725165 207.812987 
L 211.725165 217.812987 
L 221.725165 217.812987 
z
" clip-path="url(#pf95a890508)" style="fill: #ff0000; stroke: #ffffff; stroke-width: 0.8"/>
    <path d="M 217.665186 213.699316 
L 212.665186 223.699316 
L 222.665186 223.699316 
z
" clip-path="url(#pf95a890508)" style="fill: #ff0000; stroke: #ffffff; stroke-width: 0.8"/>
    <path d="M 245.544119 225.02481 
L 240.544119 235.02481 
L 250.544119 235.02481 
z
" clip-path="url(#pf95a890508)" style="fill: #ff0000; stroke: #ffffff; stroke-width: 0.8"/>
    <path d="M 374.996782 75.344453 
C 376.322798 75.344453 377.594681 74.817622 378.532316 73.879987 
C 379.469951 72.942353 379.996782 71.670469 379.996782 70.344453 
C 379.996782 69.018438 379.469951 67.746554 378.532316 66.808919 
C 377.594681 65.871285 376.322798 65.344453 374.996782 65.344453 
C 373.670767 65.344453 372.398883 65.871285 371.461248 66.808919 
C 370.523614 67.746554 369.996782 69.018438 369.996782 70.344453 
C 369.996782 71.670469 370.523614 72.942353 371.461248 73.879987 
C 372.398883 74.817622 373.670767 75.344453 374.996782 75.344453 
z
" clip-path="url(#pf95a890508)" style="stroke: #ffffff; stroke-width: 0.8"/>
    <path d="M 206.397591 214.65127 
L 201.397591 224.65127 
L 211.397591 224.65127 
z
" clip-path="url(#pf95a890508)" style="fill: #ff0000; stroke: #ffffff; stroke-width: 0.8"/>
    <path d="M 246.334369 205.700304 
L 241.334369 215.700304 
L 251.334369 215.700304 
z
" clip-path="url(#pf95a890508)" style="fill: #ff0000; stroke: #ffffff; stroke-width: 0.8"/>
    <path d="M 202.156377 224.165418 
L 197.156377 234.165418 
L 207.156377 234.165418 
z
" clip-path="url(#pf95a890508)" style="fill: #ff0000; stroke: #ffffff; stroke-width: 0.8"/>
    <path d="M 320.20014 71.986037 
C 321.526156 71.986037 322.79804 71.459205 323.735674 70.521571 
C 324.673309 69.583936 325.20014 68.312052 325.20014 66.986037 
C 325.20014 65.660021 324.673309 64.388137 323.735674 63.450503 
C 322.79804 62.512868 321.526156 61.986037 320.20014 61.986037 
C 318.874125 61.986037 317.602241 62.512868 316.664606 63.450503 
C 315.726972 64.388137 315.20014 65.660021 315.20014 66.986037 
C 315.20014 68.312052 315.726972 69.583936 316.664606 70.521571 
C 317.602241 71.459205 318.874125 71.986037 320.20014 71.986037 
z
" clip-path="url(#pf95a890508)" style="stroke: #ffffff; stroke-width: 0.8"/>
    <path d="M 133.006724 215.425688 
L 128.006724 225.425688 
L 138.006724 225.425688 
z
" clip-path="url(#pf95a890508)" style="fill: #ff0000; stroke: #ffffff; stroke-width: 0.8"/>
    <path d="M 215.250577 155.363822 
L 210.250577 165.363822 
L 220.250577 165.363822 
z
" clip-path="url(#pf95a890508)" style="fill: #ff0000; stroke: #ffffff; stroke-width: 0.8"/>
    <path d="M 268.178841 222.229857 
L 263.178841 232.229857 
L 273.178841 232.229857 
z
" clip-path="url(#pf95a890508)" style="fill: #ff0000; stroke: #ffffff; stroke-width: 0.8"/>
    <path d="M 315.190129 57.178213 
C 316.516144 57.178213 317.788028 56.651381 318.725663 55.713747 
C 319.663297 54.776112 320.190129 53.504228 320.190129 52.178213 
C 320.190129 50.852197 319.663297 49.580313 318.725663 48.642679 
C 317.788028 47.705044 316.516144 47.178213 315.190129 47.178213 
C 313.864113 47.178213 312.592229 47.705044 311.654595 48.642679 
C 310.71696 49.580313 310.190129 50.852197 310.190129 52.178213 
C 310.190129 53.504228 310.71696 54.776112 311.654595 55.713747 
C 312.592229 56.651381 313.864113 57.178213 315.190129 57.178213 
z
" clip-path="url(#pf95a890508)" style="stroke: #ffffff; stroke-width: 0.8"/>
    <path d="M 91.067545 219.247124 
L 86.067545 229.247124 
L 96.067545 229.247124 
z
" clip-path="url(#pf95a890508)" style="fill: #ff0000; stroke: #ffffff; stroke-width: 0.8"/>
    <path d="M 197.470107 191.060537 
L 192.470107 201.060537 
L 202.470107 201.060537 
z
" clip-path="url(#pf95a890508)" style="fill: #ff0000; stroke: #ffffff; stroke-width: 0.8"/>
    <path d="M 163.881739 212.734211 
L 158.881739 222.734211 
L 168.881739 222.734211 
z
" clip-path="url(#pf95a890508)" style="fill: #ff0000; stroke: #ffffff; stroke-width: 0.8"/>
    <path d="M 129.783904 229.976471 
L 124.783904 239.976471 
L 134.783904 239.976471 
z
" clip-path="url(#pf95a890508)" style="fill: #ff0000; stroke: #ffffff; stroke-width: 0.8"/>
    <path d="M 240.362257 211.406412 
L 235.362257 221.406412 
L 245.362257 221.406412 
z
" clip-path="url(#pf95a890508)" style="fill: #ff0000; stroke: #ffffff; stroke-width: 0.8"/>
    <path d="M 336.624731 104.034468 
C 337.950747 104.034468 339.22263 103.507637 340.160265 102.570002 
C 341.0979 101.632367 341.624731 100.360484 341.624731 99.034468 
C 341.624731 97.708453 341.0979 96.436569 340.160265 95.498934 
C 339.22263 94.5613 337.950747 94.034468 336.624731 94.034468 
C 335.298716 94.034468 334.026832 94.5613 333.089197 95.498934 
C 332.151563 96.436569 331.624731 97.708453 331.624731 99.034468 
C 331.624731 100.360484 332.151563 101.632367 333.089197 102.570002 
C 334.026832 103.507637 335.298716 104.034468 336.624731 104.034468 
z
" clip-path="url(#pf95a890508)" style="stroke: #ffffff; stroke-width: 0.8"/>
    <path d="M 190.313929 211.296435 
L 185.313929 221.296435 
L 195.313929 221.296435 
z
" clip-path="url(#pf95a890508)" style="fill: #ff0000; stroke: #ffffff; stroke-width: 0.8"/>
    <path d="M 144.124523 205.143862 
L 139.124523 215.143862 
L 149.124523 215.143862 
z
" clip-path="url(#pf95a890508)" style="fill: #ff0000; stroke: #ffffff; stroke-width: 0.8"/>
    <path d="M 119.616492 224.431045 
L 114.616492 234.431045 
L 124.616492 234.431045 
z
" clip-path="url(#pf95a890508)" style="fill: #ff0000; stroke: #ffffff; stroke-width: 0.8"/>
    <path d="M 319.669062 74.342727 
C 320.995077 74.342727 322.266961 73.815895 323.204596 72.878261 
C 324.14223 71.940626 324.669062 70.668742 324.669062 69.342727 
C 324.669062 68.016711 324.14223 66.744827 323.204596 65.807193 
C 322.266961 64.869558 320.995077 64.342727 319.669062 64.342727 
C 318.343046 64.342727 317.071163 64.869558 316.133528 65.807193 
C 315.195893 66.744827 314.669062 68.016711 314.669062 69.342727 
C 314.669062 70.668742 315.195893 71.940626 316.133528 72.878261 
C 317.071163 73.815895 318.343046 74.342727 319.669062 74.342727 
z
" clip-path="url(#pf95a890508)" style="stroke: #ffffff; stroke-width: 0.8"/>
    <path d="M 246.060815 226.221495 
L 241.060815 236.221495 
L 251.060815 236.221495 
z
" clip-path="url(#pf95a890508)" style="fill: #ff0000; stroke: #ffffff; stroke-width: 0.8"/>
    <path d="M 231.185255 231.917019 
L 226.185255 241.917019 
L 236.185255 241.917019 
z
" clip-path="url(#pf95a890508)" style="fill: #ff0000; stroke: #ffffff; stroke-width: 0.8"/>
    <path d="M 224.574783 165.444165 
L 234.574783 165.444165 
L 234.574783 155.444165 
L 224.574783 155.444165 
z
" clip-path="url(#pf95a890508)" style="fill: #0000ff; stroke: #ffffff; stroke-width: 0.8"/>
    <path d="M 204.895673 199.662937 
L 199.895673 209.662937 
L 209.895673 209.662937 
z
" clip-path="url(#pf95a890508)" style="fill: #ff0000; stroke: #ffffff; stroke-width: 0.8"/>
    <path d="M 236.545231 176.420712 
L 246.545231 176.420712 
L 246.545231 166.420712 
L 236.545231 166.420712 
z
" clip-path="url(#pf95a890508)" style="fill: #0000ff; stroke: #ffffff; stroke-width: 0.8"/>
    <path d="M 242.849861 181.10132 
L 252.849861 181.10132 
L 252.849861 171.10132 
L 242.849861 171.10132 
z
" clip-path="url(#pf95a890508)" style="fill: #0000ff; stroke: #ffffff; stroke-width: 0.8"/>
    <path d="M 215.151043 226.517032 
L 210.151043 236.517032 
L 220.151043 236.517032 
z
" clip-path="url(#pf95a890508)" style="fill: #ff0000; stroke: #ffffff; stroke-width: 0.8"/>
    <path d="M 248.758086 214.18516 
L 243.758086 224.18516 
L 253.758086 224.18516 
z
" clip-path="url(#pf95a890508)" style="fill: #ff0000; stroke: #ffffff; stroke-width: 0.8"/>
    <path d="M 252.750177 200.496476 
L 262.750177 200.496476 
L 262.750177 190.496476 
L 252.750177 190.496476 
z
" clip-path="url(#pf95a890508)" style="fill: #0000ff; stroke: #ffffff; stroke-width: 0.8"/>
    <path d="M 225.937075 195.762271 
L 220.937075 205.762271 
L 230.937075 205.762271 
z
" clip-path="url(#pf95a890508)" style="fill: #ff0000; stroke: #ffffff; stroke-width: 0.8"/>
    <path d="M 219.625764 198.375049 
L 229.625764 198.375049 
L 229.625764 188.375049 
L 219.625764 188.375049 
z
" clip-path="url(#pf95a890508)" style="fill: #0000ff; stroke: #ffffff; stroke-width: 0.8"/>
    <path d="M 236.333338 202.086671 
L 231.333338 212.086671 
L 241.333338 212.086671 
z
" clip-path="url(#pf95a890508)" style="fill: #ff0000; stroke: #ffffff; stroke-width: 0.8"/>
    <path d="M 212.288675 225.289669 
L 207.288675 235.289669 
L 217.288675 235.289669 
z
" clip-path="url(#pf95a890508)" style="fill: #ff0000; stroke: #ffffff; stroke-width: 0.8"/>
    <path d="M 250.866302 185.762837 
L 245.866302 195.762837 
L 255.866302 195.762837 
z
" clip-path="url(#pf95a890508)" style="fill: #ff0000; stroke: #ffffff; stroke-width: 0.8"/>
    <path d="M 253.230073 195.408445 
L 263.230073 195.408445 
L 263.230073 185.408445 
L 253.230073 185.408445 
z
" clip-path="url(#pf95a890508)" style="fill: #0000ff; stroke: #ffffff; stroke-width: 0.8"/>
    <path d="M 72.417805 232.113024 
L 67.417805 242.113024 
L 77.417805 242.113024 
z
" clip-path="url(#pf95a890508)" style="fill: #ff0000; stroke: #ffffff; stroke-width: 0.8"/>
    <path d="M 287.671678 174.905986 
L 297.671678 174.905986 
L 297.671678 164.905986 
L 287.671678 164.905986 
z
" clip-path="url(#pf95a890508)" style="fill: #0000ff; stroke: #ffffff; stroke-width: 0.8"/>
    <path d="M 260.442083 195.156491 
L 255.442083 205.156491 
L 265.442083 205.156491 
z
" clip-path="url(#pf95a890508)" style="fill: #ff0000; stroke: #ffffff; stroke-width: 0.8"/>
    <path d="M 216.574063 192.868813 
L 226.574063 192.868813 
L 226.574063 182.868813 
L 216.574063 182.868813 
z
" clip-path="url(#pf95a890508)" style="fill: #0000ff; stroke: #ffffff; stroke-width: 0.8"/>
    <path d="M 259.523944 187.127224 
L 269.523944 187.127224 
L 269.523944 177.127224 
L 259.523944 177.127224 
z
" clip-path="url(#pf95a890508)" style="fill: #0000ff; stroke: #ffffff; stroke-width: 0.8"/>
    <path d="M 200.669958 243.29628 
L 195.669958 253.29628 
L 205.669958 253.29628 
z
" clip-path="url(#pf95a890508)" style="fill: #ff0000; stroke: #ffffff; stroke-width: 0.8"/>
    <path d="M 216.057354 220.59713 
L 211.057354 230.59713 
L 221.057354 230.59713 
z
" clip-path="url(#pf95a890508)" style="fill: #ff0000; stroke: #ffffff; stroke-width: 0.8"/>
    <path d="M 200.067204 214.259607 
L 195.067204 224.259607 
L 205.067204 224.259607 
z
" clip-path="url(#pf95a890508)" style="fill: #ff0000; stroke: #ffffff; stroke-width: 0.8"/>
    <path d="M 203.804912 148.446719 
L 213.804912 148.446719 
L 213.804912 138.446719 
L 203.804912 138.446719 
z
" clip-path="url(#pf95a890508)" style="fill: #0000ff; stroke: #ffffff; stroke-width: 0.8"/>
    <path d="M 152.508931 204.92173 
L 147.508931 214.92173 
L 157.508931 214.92173 
z
" clip-path="url(#pf95a890508)" style="fill: #ff0000; stroke: #ffffff; stroke-width: 0.8"/>
    <path d="M 279.30618 178.829374 
L 289.30618 178.829374 
L 289.30618 168.829374 
L 279.30618 168.829374 
z
" clip-path="url(#pf95a890508)" style="fill: #0000ff; stroke: #ffffff; stroke-width: 0.8"/>
    <path d="M 257.274873 188.206656 
L 267.274873 188.206656 
L 267.274873 178.206656 
L 257.274873 178.206656 
z
" clip-path="url(#pf95a890508)" style="fill: #0000ff; stroke: #ffffff; stroke-width: 0.8"/>
    <path d="M 211.636964 192.730875 
L 221.636964 192.730875 
L 221.636964 182.730875 
L 211.636964 182.730875 
z
" clip-path="url(#pf95a890508)" style="fill: #0000ff; stroke: #ffffff; stroke-width: 0.8"/>
    <path d="M 204.058738 214.606711 
L 199.058738 224.606711 
L 209.058738 224.606711 
z
" clip-path="url(#pf95a890508)" style="fill: #ff0000; stroke: #ffffff; stroke-width: 0.8"/>
    <path d="M 236.423742 121.007577 
L 246.423742 121.007577 
L 246.423742 111.007577 
L 236.423742 111.007577 
z
" clip-path="url(#pf95a890508)" style="fill: #0000ff; stroke: #ffffff; stroke-width: 0.8"/>
    <path d="M 246.253834 151.258231 
L 256.253834 151.258231 
L 256.253834 141.258231 
L 246.253834 141.258231 
z
" clip-path="url(#pf95a890508)" style="fill: #0000ff; stroke: #ffffff; stroke-width: 0.8"/>
    <path d="M 231.499103 173.073302 
L 241.499103 173.073302 
L 241.499103 163.073302 
L 231.499103 163.073302 
z
" clip-path="url(#pf95a890508)" style="fill: #0000ff; stroke: #ffffff; stroke-width: 0.8"/>
    <path d="M 243.554807 162.9376 
L 253.554807 162.9376 
L 253.554807 152.9376 
L 243.554807 152.9376 
z
" clip-path="url(#pf95a890508)" style="fill: #0000ff; stroke: #ffffff; stroke-width: 0.8"/>
    <path d="M 224.277577 250.576032 
L 234.277577 250.576032 
L 234.277577 240.576032 
L 224.277577 240.576032 
z
" clip-path="url(#pf95a890508)" style="fill: #0000ff; stroke: #ffffff; stroke-width: 0.8"/>
    <path d="M 236.414563 230.051619 
L 231.414563 240.051619 
L 241.414563 240.051619 
z
" clip-path="url(#pf95a890508)" style="fill: #ff0000; stroke: #ffffff; stroke-width: 0.8"/>
    <path d="M 224.091612 196.522131 
L 219.091612 206.522131 
L 229.091612 206.522131 
z
" clip-path="url(#pf95a890508)" style="fill: #ff0000; stroke: #ffffff; stroke-width: 0.8"/>
    <path d="M 269.155303 187.330819 
L 279.155303 187.330819 
L 279.155303 177.330819 
L 269.155303 177.330819 
z
" clip-path="url(#pf95a890508)" style="fill: #0000ff; stroke: #ffffff; stroke-width: 0.8"/>
    <path d="M 224.426377 179.565831 
L 234.426377 179.565831 
L 234.426377 169.565831 
L 224.426377 169.565831 
z
" clip-path="url(#pf95a890508)" style="fill: #0000ff; stroke: #ffffff; stroke-width: 0.8"/>
    <path d="M 267.084351 160.663106 
L 277.084351 160.663106 
L 277.084351 150.663106 
L 267.084351 150.663106 
z
" clip-path="url(#pf95a890508)" style="fill: #0000ff; stroke: #ffffff; stroke-width: 0.8"/>
    <path d="M 228.757204 194.855925 
L 238.757204 194.855925 
L 238.757204 184.855925 
L 228.757204 184.855925 
z
" clip-path="url(#pf95a890508)" style="fill: #0000ff; stroke: #ffffff; stroke-width: 0.8"/>
    <path d="M 276.429275 190.217933 
L 286.429275 190.217933 
L 286.429275 180.217933 
L 276.429275 180.217933 
z
" clip-path="url(#pf95a890508)" style="fill: #0000ff; stroke: #ffffff; stroke-width: 0.8"/>
    <path d="M 245.682806 183.486867 
L 255.682806 183.486867 
L 255.682806 173.486867 
L 245.682806 173.486867 
z
" clip-path="url(#pf95a890508)" style="fill: #0000ff; stroke: #ffffff; stroke-width: 0.8"/>
    <path d="M 242.120533 152.658147 
L 252.120533 152.658147 
L 252.120533 142.658147 
L 242.120533 142.658147 
z
" clip-path="url(#pf95a890508)" style="fill: #0000ff; stroke: #ffffff; stroke-width: 0.8"/>
    <path d="M 263.294624 192.181074 
L 273.294624 192.181074 
L 273.294624 182.181074 
L 263.294624 182.181074 
z
" clip-path="url(#pf95a890508)" style="fill: #0000ff; stroke: #ffffff; stroke-width: 0.8"/>
    <path d="M 256.81405 185.932037 
L 266.81405 185.932037 
L 266.81405 175.932037 
L 256.81405 175.932037 
z
" clip-path="url(#pf95a890508)" style="fill: #0000ff; stroke: #ffffff; stroke-width: 0.8"/>
    <path d="M 230.561176 220.86473 
L 240.561176 220.86473 
L 240.561176 210.86473 
L 230.561176 210.86473 
z
" clip-path="url(#pf95a890508)" style="fill: #0000ff; stroke: #ffffff; stroke-width: 0.8"/>
    <path d="M 227.779388 164.73333 
L 237.779388 164.73333 
L 237.779388 154.73333 
L 227.779388 154.73333 
z
" clip-path="url(#pf95a890508)" style="fill: #0000ff; stroke: #ffffff; stroke-width: 0.8"/>
    <path d="M 299.447352 149.563966 
L 309.447352 149.563966 
L 309.447352 139.563966 
L 299.447352 139.563966 
z
" clip-path="url(#pf95a890508)" style="fill: #0000ff; stroke: #ffffff; stroke-width: 0.8"/>
    <path d="M 246.244817 182.265985 
L 256.244817 182.265985 
L 256.244817 172.265985 
L 246.244817 172.265985 
z
" clip-path="url(#pf95a890508)" style="fill: #0000ff; stroke: #ffffff; stroke-width: 0.8"/>
    <path d="M 234.827181 176.621568 
L 244.827181 176.621568 
L 244.827181 166.621568 
L 234.827181 166.621568 
z
" clip-path="url(#pf95a890508)" style="fill: #0000ff; stroke: #ffffff; stroke-width: 0.8"/>
    <path d="M 275.531764 182.803059 
L 285.531764 182.803059 
L 285.531764 172.803059 
L 275.531764 172.803059 
z
" clip-path="url(#pf95a890508)" style="fill: #0000ff; stroke: #ffffff; stroke-width: 0.8"/>
    <path d="M 246.30884 170.314412 
L 256.30884 170.314412 
L 256.30884 160.314412 
L 246.30884 160.314412 
z
" clip-path="url(#pf95a890508)" style="fill: #0000ff; stroke: #ffffff; stroke-width: 0.8"/>
    <path d="M 235.683626 194.951449 
L 245.683626 194.951449 
L 245.683626 184.951449 
L 235.683626 184.951449 
z
" clip-path="url(#pf95a890508)" style="fill: #0000ff; stroke: #ffffff; stroke-width: 0.8"/>
    <path d="M 214.617227 205.255517 
L 224.617227 205.255517 
L 224.617227 195.255517 
L 214.617227 195.255517 
z
" clip-path="url(#pf95a890508)" style="fill: #0000ff; stroke: #ffffff; stroke-width: 0.8"/>
    <path d="M 215.441638 160.80452 
L 225.441638 160.80452 
L 225.441638 150.80452 
L 215.441638 150.80452 
z
" clip-path="url(#pf95a890508)" style="fill: #0000ff; stroke: #ffffff; stroke-width: 0.8"/>
    <path d="M 240.750674 163.565005 
L 250.750674 163.565005 
L 250.750674 153.565005 
L 240.750674 153.565005 
z
" clip-path="url(#pf95a890508)" style="fill: #0000ff; stroke: #ffffff; stroke-width: 0.8"/>
    <path d="M 231.93062 204.74269 
L 241.93062 204.74269 
L 241.93062 194.74269 
L 231.93062 194.74269 
z
" clip-path="url(#pf95a890508)" style="fill: #0000ff; stroke: #ffffff; stroke-width: 0.8"/>
    <path d="M 252.176724 166.678061 
L 262.176724 166.678061 
L 262.176724 156.678061 
L 252.176724 156.678061 
z
" clip-path="url(#pf95a890508)" style="fill: #0000ff; stroke: #ffffff; stroke-width: 0.8"/>
    <path d="M 228.113377 167.709652 
L 238.113377 167.709652 
L 238.113377 157.709652 
L 228.113377 157.709652 
z
" clip-path="url(#pf95a890508)" style="fill: #0000ff; stroke: #ffffff; stroke-width: 0.8"/>
    <path d="M 248.183309 211.709143 
L 258.183309 211.709143 
L 258.183309 201.709143 
L 248.183309 201.709143 
z
" clip-path="url(#pf95a890508)" style="fill: #0000ff; stroke: #ffffff; stroke-width: 0.8"/>
    <path d="M 271.386276 160.459792 
L 281.386276 160.459792 
L 281.386276 150.459792 
L 271.386276 150.459792 
z
" clip-path="url(#pf95a890508)" style="fill: #0000ff; stroke: #ffffff; stroke-width: 0.8"/>
    <path d="M 251.967812 232.575095 
L 261.967812 232.575095 
L 261.967812 222.575095 
L 251.967812 222.575095 
z
" clip-path="url(#pf95a890508)" style="fill: #0000ff; stroke: #ffffff; stroke-width: 0.8"/>
    <path d="M 263.482226 207.031088 
L 273.482226 207.031088 
L 273.482226 197.031088 
L 263.482226 197.031088 
z
" clip-path="url(#pf95a890508)" style="fill: #0000ff; stroke: #ffffff; stroke-width: 0.8"/>
    <path d="M 231.773596 151.384249 
L 241.773596 151.384249 
L 241.773596 141.384249 
L 231.773596 141.384249 
z
" clip-path="url(#pf95a890508)" style="fill: #0000ff; stroke: #ffffff; stroke-width: 0.8"/>
    <path d="M 258.083813 174.554127 
L 268.083813 174.554127 
L 268.083813 164.554127 
L 258.083813 164.554127 
z
" clip-path="url(#pf95a890508)" style="fill: #0000ff; stroke: #ffffff; stroke-width: 0.8"/>
    <path d="M 260.280781 210.486264 
L 270.280781 210.486264 
L 270.280781 200.486264 
L 260.280781 200.486264 
z
" clip-path="url(#pf95a890508)" style="fill: #0000ff; stroke: #ffffff; stroke-width: 0.8"/>
   </g>
   <g id="PathCollection_2"/>
   <g id="PathCollection_3"/>
   <g id="PathCollection_4"/>
   <g id="patch_3">
    <path d="M 56.185078 273.312 
L 56.185078 7.2 
" style="fill: none; stroke: #262626; stroke-width: 1.25; stroke-linejoin: miter; stroke-linecap: square"/>
   </g>
   <g id="patch_4">
    <path d="M 413.305078 273.312 
L 413.305078 7.2 
" style="fill: none; stroke: #262626; stroke-width: 1.25; stroke-linejoin: miter; stroke-linecap: square"/>
   </g>
   <g id="patch_5">
    <path d="M 56.185078 273.312 
L 413.305078 273.312 
" style="fill: none; stroke: #262626; stroke-width: 1.25; stroke-linejoin: miter; stroke-linecap: square"/>
   </g>
   <g id="patch_6">
    <path d="M 56.185078 7.2 
L 413.305078 7.2 
" style="fill: none; stroke: #262626; stroke-width: 1.25; stroke-linejoin: miter; stroke-linecap: square"/>
   </g>
   <g id="legend_1">
    <g id="patch_7">
     <path d="M 434.461078 82.571484 
L 558.762797 82.571484 
Q 562.062797 82.571484 562.062797 79.271484 
L 562.062797 10.5 
Q 562.062797 7.2 558.762797 7.2 
L 434.461078 7.2 
Q 431.161078 7.2 431.161078 10.5 
L 431.161078 79.271484 
Q 431.161078 82.571484 434.461078 82.571484 
z
" style="fill: #ffffff; opacity: 0.8; stroke: #cccccc; stroke-linejoin: miter"/>
    </g>
    <g id="PathCollection_5">
     <defs>
      <path id="m77e238277b" d="M 0 3 
C 0.795609 3 1.55874 2.683901 2.12132 2.12132 
C 2.683901 1.55874 3 0.795609 3 0 
C 3 -0.795609 2.683901 -1.55874 2.12132 -2.12132 
C 1.55874 -2.683901 0.795609 -3 0 -3 
C -0.795609 -3 -1.55874 -2.683901 -2.12132 -2.12132 
C -2.683901 -1.55874 -3 -0.795609 -3 0 
C -3 0.795609 -2.683901 1.55874 -2.12132 2.12132 
C -1.55874 2.683901 -0.795609 3 0 3 
z
" style="stroke: #000000"/>
     </defs>
     <g>
      <use xlink:href="#m77e238277b" x="454.261078" y="21.480234" style="stroke: #000000"/>
     </g>
    </g>
    <g id="text_15">
     <text style="fill: #262626; font: 16.5px 'sans-serif'; text-anchor: start" x="483.961078" y="25.811484" transform="rotate(-0 483.961078 25.811484)">RC_AIR</text>
    </g>
    <g id="PathCollection_6">
     <defs>
      <path id="m7fecc2594b" d="M -3 3 
L 3 3 
L 3 -3 
L -3 -3 
z
" style="stroke: #0000ff"/>
     </defs>
     <g>
      <use xlink:href="#m7fecc2594b" x="454.261078" y="44.82" style="fill: #0000ff; stroke: #0000ff"/>
     </g>
    </g>
    <g id="text_16">
     <text style="fill: #262626; font: 16.5px 'sans-serif'; text-anchor: start" x="483.961078" y="49.15125" transform="rotate(-0 483.961078 49.15125)">HFD_AIR</text>
    </g>
    <g id="PathCollection_7">
     <defs>
      <path id="m101949837a" d="M 0 -3 
L -3 3 
L 3 3 
z
" style="stroke: #ff0000"/>
     </defs>
     <g>
      <use xlink:href="#m101949837a" x="454.261078" y="68.360859" style="fill: #ff0000; stroke: #ff0000"/>
     </g>
    </g>
    <g id="text_17">
     <text style="fill: #262626; font: 16.5px 'sans-serif'; text-anchor: start" x="483.961078" y="72.692109" transform="rotate(-0 483.961078 72.692109)">HFD_IHC</text>
    </g>
   </g>
  </g>
 </g>
 <defs>
  <clipPath id="pf95a890508">
   <rect x="56.185078" y="7.2" width="357.12" height="266.112"/>
  </clipPath>
 </defs>
</svg>
