<?xml version="1.0" encoding="utf-8" standalone="no"?>
<!DOCTYPE svg PUBLIC "-//W3C//DTD SVG 1.1//EN"
  "http://www.w3.org/Graphics/SVG/1.1/DTD/svg11.dtd">
<svg xmlns:xlink="http://www.w3.org/1999/xlink" width="474.895078pt" height="336.101511pt" viewBox="0 0 474.895078 336.101511" xmlns="http://www.w3.org/2000/svg" version="1.1">
 <metadata>
  <rdf:RDF xmlns:dc="http://purl.org/dc/elements/1.1/" xmlns:cc="http://creativecommons.org/ns#" xmlns:rdf="http://www.w3.org/1999/02/22-rdf-syntax-ns#">
   <cc:Work>
    <dc:type rdf:resource="http://purl.org/dc/dcmitype/StillImage"/>
    <dc:date>2024-10-17T09:44:10.876365</dc:date>
    <dc:format>image/svg+xml</dc:format>
    <dc:creator>
     <cc:Agent>
      <dc:title>Matplotlib v3.6.0, https://matplotlib.org/</dc:title>
     </cc:Agent>
    </dc:creator>
   </cc:Work>
  </rdf:RDF>
 </metadata>
 <defs>
  <style type="text/css">*{stroke-linejoin: round; stroke-linecap: butt}</style>
 </defs>
 <g id="figure_1">
  <g id="patch_1">
   <path d="M 0 336.101511 
L 474.895078 336.101511 
L 474.895078 0 
L 0 0 
z
" style="fill: #ffffff"/>
  </g>
  <g id="axes_1">
   <g id="patch_2">
    <path d="M 56.185078 283.850183 
L 323.554378 283.850183 
L 323.554378 19.873523 
L 56.185078 19.873523 
z
" style="fill: #ffffff"/>
   </g>
   <g id="matplotlib.axis_1">
    <g id="xtick_1">
     <g id="line2d_1">
      <defs>
       <path id="m3ad78cb1fb" d="M 0 0 
L 0 6 
" style="stroke: #262626; stroke-width: 1.25"/>
      </defs>
      <g>
       <use xlink:href="#m3ad78cb1fb" x="95.817501" y="283.850183" style="fill: #262626; stroke: #262626; stroke-width: 1.25"/>
      </g>
     </g>
     <g id="text_1">
      <text style="fill: #262626; font: 16.5px 'sans-serif'; text-anchor: middle" x="95.817501" y="305.160574" transform="rotate(-0 95.817501 305.160574)">−5</text>
     </g>
    </g>
    <g id="xtick_2">
     <g id="line2d_2">
      <g>
       <use xlink:href="#m3ad78cb1fb" x="194.62881" y="283.850183" style="fill: #262626; stroke: #262626; stroke-width: 1.25"/>
      </g>
     </g>
     <g id="text_2">
      <text style="fill: #262626; font: 16.5px 'sans-serif'; text-anchor: middle" x="194.62881" y="305.160574" transform="rotate(-0 194.62881 305.160574)">0</text>
     </g>
    </g>
    <g id="xtick_3">
     <g id="line2d_3">
      <g>
       <use xlink:href="#m3ad78cb1fb" x="293.440118" y="283.850183" style="fill: #262626; stroke: #262626; stroke-width: 1.25"/>
      </g>
     </g>
     <g id="text_3">
      <text style="fill: #262626; font: 16.5px 'sans-serif'; text-anchor: middle" x="293.440118" y="305.160574" transform="rotate(-0 293.440118 305.160574)">5</text>
     </g>
    </g>
    <g id="text_4">
     <text style="fill: #262626; font: 18px 'sans-serif'; text-anchor: middle" x="189.869728" y="325.324011" transform="rotate(-0 189.869728 325.324011)">Muribaculaceae_Akkermansiaceae</text>
    </g>
   </g>
   <g id="matplotlib.axis_2">
    <g id="ytick_1">
     <g id="line2d_4">
      <defs>
       <path id="m60c0524231" d="M 0 0 
L -6 0 
" style="stroke: #262626; stroke-width: 1.25"/>
      </defs>
      <g>
       <use xlink:href="#m60c0524231" x="56.185078" y="257.970119" style="fill: #262626; stroke: #262626; stroke-width: 1.25"/>
      </g>
     </g>
     <g id="text_5">
      <text style="fill: #262626; font: 16.5px 'sans-serif'; text-anchor: end" x="46.685078" y="263.875314" transform="rotate(-0 46.685078 263.875314)">−2</text>
     </g>
    </g>
    <g id="ytick_2">
     <g id="line2d_5">
      <g>
       <use xlink:href="#m60c0524231" x="56.185078" y="206.209989" style="fill: #262626; stroke: #262626; stroke-width: 1.25"/>
      </g>
     </g>
     <g id="text_6">
      <text style="fill: #262626; font: 16.5px 'sans-serif'; text-anchor: end" x="46.685078" y="212.115185" transform="rotate(-0 46.685078 212.115185)">−1</text>
     </g>
    </g>
    <g id="ytick_3">
     <g id="line2d_6">
      <g>
       <use xlink:href="#m60c0524231" x="56.185078" y="154.44986" style="fill: #262626; stroke: #262626; stroke-width: 1.25"/>
      </g>
     </g>
     <g id="text_7">
      <text style="fill: #262626; font: 16.5px 'sans-serif'; text-anchor: end" x="46.685078" y="160.355055" transform="rotate(-0 46.685078 160.355055)">0</text>
     </g>
    </g>
    <g id="ytick_4">
     <g id="line2d_7">
      <g>
       <use xlink:href="#m60c0524231" x="56.185078" y="102.68973" style="fill: #262626; stroke: #262626; stroke-width: 1.25"/>
      </g>
     </g>
     <g id="text_8">
      <text style="fill: #262626; font: 16.5px 'sans-serif'; text-anchor: end" x="46.685078" y="108.594926" transform="rotate(-0 46.685078 108.594926)">1</text>
     </g>
    </g>
    <g id="ytick_5">
     <g id="line2d_8">
      <g>
       <use xlink:href="#m60c0524231" x="56.185078" y="50.929601" style="fill: #262626; stroke: #262626; stroke-width: 1.25"/>
      </g>
     </g>
     <g id="text_9">
      <text style="fill: #262626; font: 16.5px 'sans-serif'; text-anchor: end" x="46.685078" y="56.834796" transform="rotate(-0 46.685078 56.834796)">2</text>
     </g>
    </g>
    <g id="text_10">
     <text style="fill: #262626; font: 18px 'sans-serif'; text-anchor: middle" x="20.084063" y="151.861853" transform="rotate(-90 20.084063 151.861853)">Main_Metab_Log_Ratio</text>
    </g>
   </g>
   <g id="PathCollection_1">
    <defs>
     <path id="m2f79557145" d="M 0 3 
C 0.795609 3 1.55874 2.683901 2.12132 2.12132 
C 2.683901 1.55874 3 0.795609 3 0 
C 3 -0.795609 2.683901 -1.55874 2.12132 -2.12132 
C 1.55874 -2.683901 0.795609 -3 0 -3 
C -0.795609 -3 -1.55874 -2.683901 -2.12132 -2.12132 
C -2.683901 -1.55874 -3 -0.795609 -3 0 
C -3 0.795609 -2.683901 1.55874 -2.12132 2.12132 
C -1.55874 2.683901 -0.795609 3 0 3 
z
" style="stroke: #808080; stroke-opacity: 0.8"/>
    </defs>
    <g clip-path="url(#pf770b24326)">
     <use xlink:href="#m2f79557145" x="227.200703" y="59.272037" style="fill: #808080; fill-opacity: 0.8; stroke: #808080; stroke-opacity: 0.8"/>
     <use xlink:href="#m2f79557145" x="240.152984" y="53.451448" style="fill: #808080; fill-opacity: 0.8; stroke: #808080; stroke-opacity: 0.8"/>
     <use xlink:href="#m2f79557145" x="240.663459" y="44.920473" style="fill: #808080; fill-opacity: 0.8; stroke: #808080; stroke-opacity: 0.8"/>
     <use xlink:href="#m2f79557145" x="224.087812" y="47.964977" style="fill: #808080; fill-opacity: 0.8; stroke: #808080; stroke-opacity: 0.8"/>
     <use xlink:href="#m2f79557145" x="229.981613" y="62.601687" style="fill: #808080; fill-opacity: 0.8; stroke: #808080; stroke-opacity: 0.8"/>
     <use xlink:href="#m2f79557145" x="244.903127" y="79.328368" style="fill: #808080; fill-opacity: 0.8; stroke: #808080; stroke-opacity: 0.8"/>
     <use xlink:href="#m2f79557145" x="275.4865" y="71.760367" style="fill: #808080; fill-opacity: 0.8; stroke: #808080; stroke-opacity: 0.8"/>
     <use xlink:href="#m2f79557145" x="252.981595" y="66.429646" style="fill: #808080; fill-opacity: 0.8; stroke: #808080; stroke-opacity: 0.8"/>
     <use xlink:href="#m2f79557145" x="292.331053" y="62.000876" style="fill: #808080; fill-opacity: 0.8; stroke: #808080; stroke-opacity: 0.8"/>
     <use xlink:href="#m2f79557145" x="247.320775" y="38.022416" style="fill: #808080; fill-opacity: 0.8; stroke: #808080; stroke-opacity: 0.8"/>
     <use xlink:href="#m2f79557145" x="250.992984" y="48.417709" style="fill: #808080; fill-opacity: 0.8; stroke: #808080; stroke-opacity: 0.8"/>
     <use xlink:href="#m2f79557145" x="227.135451" y="59.545937" style="fill: #808080; fill-opacity: 0.8; stroke: #808080; stroke-opacity: 0.8"/>
     <use xlink:href="#m2f79557145" x="249.381116" y="51.855497" style="fill: #808080; fill-opacity: 0.8; stroke: #808080; stroke-opacity: 0.8"/>
     <use xlink:href="#m2f79557145" x="245.882538" y="39.697033" style="fill: #808080; fill-opacity: 0.8; stroke: #808080; stroke-opacity: 0.8"/>
     <use xlink:href="#m2f79557145" x="231.559996" y="61.02196" style="fill: #808080; fill-opacity: 0.8; stroke: #808080; stroke-opacity: 0.8"/>
     <use xlink:href="#m2f79557145" x="277.470343" y="68.737897" style="fill: #808080; fill-opacity: 0.8; stroke: #808080; stroke-opacity: 0.8"/>
     <use xlink:href="#m2f79557145" x="239.653757" y="50.06457" style="fill: #808080; fill-opacity: 0.8; stroke: #808080; stroke-opacity: 0.8"/>
     <use xlink:href="#m2f79557145" x="311.401228" y="61.541993" style="fill: #808080; fill-opacity: 0.8; stroke: #808080; stroke-opacity: 0.8"/>
     <use xlink:href="#m2f79557145" x="252.938345" y="87.447543" style="fill: #808080; fill-opacity: 0.8; stroke: #808080; stroke-opacity: 0.8"/>
     <use xlink:href="#m2f79557145" x="286.14444" y="71.749002" style="fill: #808080; fill-opacity: 0.8; stroke: #808080; stroke-opacity: 0.8"/>
     <use xlink:href="#m2f79557145" x="269.643022" y="90.296482" style="fill: #808080; fill-opacity: 0.8; stroke: #808080; stroke-opacity: 0.8"/>
     <use xlink:href="#m2f79557145" x="271.136156" y="73.147587" style="fill: #808080; fill-opacity: 0.8; stroke: #808080; stroke-opacity: 0.8"/>
     <use xlink:href="#m2f79557145" x="251.124764" y="43.000274" style="fill: #808080; fill-opacity: 0.8; stroke: #808080; stroke-opacity: 0.8"/>
     <use xlink:href="#m2f79557145" x="251.191927" y="83.799705" style="fill: #808080; fill-opacity: 0.8; stroke: #808080; stroke-opacity: 0.8"/>
     <use xlink:href="#m2f79557145" x="245.391826" y="37.136911" style="fill: #808080; fill-opacity: 0.8; stroke: #808080; stroke-opacity: 0.8"/>
     <use xlink:href="#m2f79557145" x="247.522127" y="69.473718" style="fill: #808080; fill-opacity: 0.8; stroke: #808080; stroke-opacity: 0.8"/>
     <use xlink:href="#m2f79557145" x="255.672278" y="31.71785" style="fill: #808080; fill-opacity: 0.8; stroke: #808080; stroke-opacity: 0.8"/>
     <use xlink:href="#m2f79557145" x="262.022894" y="77.293523" style="fill: #808080; fill-opacity: 0.8; stroke: #808080; stroke-opacity: 0.8"/>
     <use xlink:href="#m2f79557145" x="255.318619" y="47.829219" style="fill: #808080; fill-opacity: 0.8; stroke: #808080; stroke-opacity: 0.8"/>
     <use xlink:href="#m2f79557145" x="241.888532" y="33.469849" style="fill: #808080; fill-opacity: 0.8; stroke: #808080; stroke-opacity: 0.8"/>
     <use xlink:href="#m2f79557145" x="245.047209" y="87.990995" style="fill: #808080; fill-opacity: 0.8; stroke: #808080; stroke-opacity: 0.8"/>
     <use xlink:href="#m2f79557145" x="274.325359" y="36.719401" style="fill: #808080; fill-opacity: 0.8; stroke: #808080; stroke-opacity: 0.8"/>
     <use xlink:href="#m2f79557145" x="244.64075" y="84.22988" style="fill: #808080; fill-opacity: 0.8; stroke: #808080; stroke-opacity: 0.8"/>
     <use xlink:href="#m2f79557145" x="254.021067" y="90.81574" style="fill: #808080; fill-opacity: 0.8; stroke: #808080; stroke-opacity: 0.8"/>
     <use xlink:href="#m2f79557145" x="259.752039" y="37.524943" style="fill: #808080; fill-opacity: 0.8; stroke: #808080; stroke-opacity: 0.8"/>
     <use xlink:href="#m2f79557145" x="256.139494" y="40.681489" style="fill: #808080; fill-opacity: 0.8; stroke: #808080; stroke-opacity: 0.8"/>
     <use xlink:href="#m2f79557145" x="242.519003" y="80.193397" style="fill: #808080; fill-opacity: 0.8; stroke: #808080; stroke-opacity: 0.8"/>
     <use xlink:href="#m2f79557145" x="188.49533" y="235.592896" style="fill: #808080; fill-opacity: 0.8; stroke: #808080; stroke-opacity: 0.8"/>
     <use xlink:href="#m2f79557145" x="237.769961" y="80.204383" style="fill: #808080; fill-opacity: 0.8; stroke: #808080; stroke-opacity: 0.8"/>
     <use xlink:href="#m2f79557145" x="187.384539" y="233.047631" style="fill: #808080; fill-opacity: 0.8; stroke: #808080; stroke-opacity: 0.8"/>
     <use xlink:href="#m2f79557145" x="166.516439" y="239.969709" style="fill: #808080; fill-opacity: 0.8; stroke: #808080; stroke-opacity: 0.8"/>
     <use xlink:href="#m2f79557145" x="224.789525" y="92.090555" style="fill: #808080; fill-opacity: 0.8; stroke: #808080; stroke-opacity: 0.8"/>
     <use xlink:href="#m2f79557145" x="180.124595" y="214.306385" style="fill: #808080; fill-opacity: 0.8; stroke: #808080; stroke-opacity: 0.8"/>
     <use xlink:href="#m2f79557145" x="283.640043" y="39.803173" style="fill: #808080; fill-opacity: 0.8; stroke: #808080; stroke-opacity: 0.8"/>
     <use xlink:href="#m2f79557145" x="224.99333" y="45.521593" style="fill: #808080; fill-opacity: 0.8; stroke: #808080; stroke-opacity: 0.8"/>
     <use xlink:href="#m2f79557145" x="179.362896" y="241.735234" style="fill: #808080; fill-opacity: 0.8; stroke: #808080; stroke-opacity: 0.8"/>
     <use xlink:href="#m2f79557145" x="177.017441" y="238.757486" style="fill: #808080; fill-opacity: 0.8; stroke: #808080; stroke-opacity: 0.8"/>
     <use xlink:href="#m2f79557145" x="199.027622" y="227.978091" style="fill: #808080; fill-opacity: 0.8; stroke: #808080; stroke-opacity: 0.8"/>
     <use xlink:href="#m2f79557145" x="178.65393" y="256.138944" style="fill: #808080; fill-opacity: 0.8; stroke: #808080; stroke-opacity: 0.8"/>
     <use xlink:href="#m2f79557145" x="301.392369" y="50.663877" style="fill: #808080; fill-opacity: 0.8; stroke: #808080; stroke-opacity: 0.8"/>
     <use xlink:href="#m2f79557145" x="176.378544" y="223.836627" style="fill: #808080; fill-opacity: 0.8; stroke: #808080; stroke-opacity: 0.8"/>
     <use xlink:href="#m2f79557145" x="177.082321" y="229.675724" style="fill: #808080; fill-opacity: 0.8; stroke: #808080; stroke-opacity: 0.8"/>
     <use xlink:href="#m2f79557145" x="197.954775" y="240.91034" style="fill: #808080; fill-opacity: 0.8; stroke: #808080; stroke-opacity: 0.8"/>
     <use xlink:href="#m2f79557145" x="294.873648" y="82.511292" style="fill: #808080; fill-opacity: 0.8; stroke: #808080; stroke-opacity: 0.8"/>
     <use xlink:href="#m2f79557145" x="168.646476" y="230.620038" style="fill: #808080; fill-opacity: 0.8; stroke: #808080; stroke-opacity: 0.8"/>
     <use xlink:href="#m2f79557145" x="198.546421" y="221.740897" style="fill: #808080; fill-opacity: 0.8; stroke: #808080; stroke-opacity: 0.8"/>
     <use xlink:href="#m2f79557145" x="165.471156" y="240.057843" style="fill: #808080; fill-opacity: 0.8; stroke: #808080; stroke-opacity: 0.8"/>
     <use xlink:href="#m2f79557145" x="253.848391" y="79.179824" style="fill: #808080; fill-opacity: 0.8; stroke: #808080; stroke-opacity: 0.8"/>
     <use xlink:href="#m2f79557145" x="113.700058" y="231.388242" style="fill: #808080; fill-opacity: 0.8; stroke: #808080; stroke-opacity: 0.8"/>
     <use xlink:href="#m2f79557145" x="175.274547" y="171.808326" style="fill: #808080; fill-opacity: 0.8; stroke: #808080; stroke-opacity: 0.8"/>
     <use xlink:href="#m2f79557145" x="214.900983" y="238.137814" style="fill: #808080; fill-opacity: 0.8; stroke: #808080; stroke-opacity: 0.8"/>
     <use xlink:href="#m2f79557145" x="250.097486" y="64.490821" style="fill: #808080; fill-opacity: 0.8; stroke: #808080; stroke-opacity: 0.8"/>
     <use xlink:href="#m2f79557145" x="82.300952" y="235.179015" style="fill: #808080; fill-opacity: 0.8; stroke: #808080; stroke-opacity: 0.8"/>
     <use xlink:href="#m2f79557145" x="161.96263" y="207.218603" style="fill: #808080; fill-opacity: 0.8; stroke: #808080; stroke-opacity: 0.8"/>
     <use xlink:href="#m2f79557145" x="136.815625" y="228.718363" style="fill: #808080; fill-opacity: 0.8; stroke: #808080; stroke-opacity: 0.8"/>
     <use xlink:href="#m2f79557145" x="111.287191" y="245.822267" style="fill: #808080; fill-opacity: 0.8; stroke: #808080; stroke-opacity: 0.8"/>
     <use xlink:href="#m2f79557145" x="194.075209" y="227.401218" style="fill: #808080; fill-opacity: 0.8; stroke: #808080; stroke-opacity: 0.8"/>
     <use xlink:href="#m2f79557145" x="266.145186" y="110.971092" style="fill: #808080; fill-opacity: 0.8; stroke: #808080; stroke-opacity: 0.8"/>
     <use xlink:href="#m2f79557145" x="156.604929" y="227.292123" style="fill: #808080; fill-opacity: 0.8; stroke: #808080; stroke-opacity: 0.8"/>
     <use xlink:href="#m2f79557145" x="122.023753" y="221.18892" style="fill: #808080; fill-opacity: 0.8; stroke: #808080; stroke-opacity: 0.8"/>
     <use xlink:href="#m2f79557145" x="103.675033" y="240.321338" style="fill: #808080; fill-opacity: 0.8; stroke: #808080; stroke-opacity: 0.8"/>
     <use xlink:href="#m2f79557145" x="253.450782" y="81.517604" style="fill: #808080; fill-opacity: 0.8; stroke: #808080; stroke-opacity: 0.8"/>
     <use xlink:href="#m2f79557145" x="198.341616" y="242.097421" style="fill: #808080; fill-opacity: 0.8; stroke: #808080; stroke-opacity: 0.8"/>
     <use xlink:href="#m2f79557145" x="187.204553" y="247.747244" style="fill: #808080; fill-opacity: 0.8; stroke: #808080; stroke-opacity: 0.8"/>
     <use xlink:href="#m2f79557145" x="185.998822" y="171.888024" style="fill: #808080; fill-opacity: 0.8; stroke: #808080; stroke-opacity: 0.8"/>
     <use xlink:href="#m2f79557145" x="167.522017" y="215.751975" style="fill: #808080; fill-opacity: 0.8; stroke: #808080; stroke-opacity: 0.8"/>
     <use xlink:href="#m2f79557145" x="194.96088" y="182.776493" style="fill: #808080; fill-opacity: 0.8; stroke: #808080; stroke-opacity: 0.8"/>
     <use xlink:href="#m2f79557145" x="199.681043" y="187.419542" style="fill: #808080; fill-opacity: 0.8; stroke: #808080; stroke-opacity: 0.8"/>
     <use xlink:href="#m2f79557145" x="175.200028" y="242.390587" style="fill: #808080; fill-opacity: 0.8; stroke: #808080; stroke-opacity: 0.8"/>
     <use xlink:href="#m2f79557145" x="200.361014" y="230.157669" style="fill: #808080; fill-opacity: 0.8; stroke: #808080; stroke-opacity: 0.8"/>
     <use xlink:href="#m2f79557145" x="207.09323" y="206.659068" style="fill: #808080; fill-opacity: 0.8; stroke: #808080; stroke-opacity: 0.8"/>
     <use xlink:href="#m2f79557145" x="183.275335" y="211.882609" style="fill: #808080; fill-opacity: 0.8; stroke: #808080; stroke-opacity: 0.8"/>
     <use xlink:href="#m2f79557145" x="182.29358" y="204.554664" style="fill: #808080; fill-opacity: 0.8; stroke: #808080; stroke-opacity: 0.8"/>
     <use xlink:href="#m2f79557145" x="191.05883" y="218.156261" style="fill: #808080; fill-opacity: 0.8; stroke: #808080; stroke-opacity: 0.8"/>
     <use xlink:href="#m2f79557145" x="173.057024" y="241.173073" style="fill: #808080; fill-opacity: 0.8; stroke: #808080; stroke-opacity: 0.8"/>
     <use xlink:href="#m2f79557145" x="201.939397" y="201.963413" style="fill: #808080; fill-opacity: 0.8; stroke: #808080; stroke-opacity: 0.8"/>
     <use xlink:href="#m2f79557145" x="207.45252" y="201.611864" style="fill: #808080; fill-opacity: 0.8; stroke: #808080; stroke-opacity: 0.8"/>
     <use xlink:href="#m2f79557145" x="68.338228" y="247.941675" style="fill: #808080; fill-opacity: 0.8; stroke: #808080; stroke-opacity: 0.8"/>
     <use xlink:href="#m2f79557145" x="233.238328" y="181.273921" style="fill: #808080; fill-opacity: 0.8; stroke: #808080; stroke-opacity: 0.8"/>
     <use xlink:href="#m2f79557145" x="209.108612" y="211.28169" style="fill: #808080; fill-opacity: 0.8; stroke: #808080; stroke-opacity: 0.8"/>
     <use xlink:href="#m2f79557145" x="180.008826" y="199.092611" style="fill: #808080; fill-opacity: 0.8; stroke: #808080; stroke-opacity: 0.8"/>
     <use xlink:href="#m2f79557145" x="212.164627" y="193.397094" style="fill: #808080; fill-opacity: 0.8; stroke: #808080; stroke-opacity: 0.8"/>
     <use xlink:href="#m2f79557145" x="164.3583" y="259.035195" style="fill: #808080; fill-opacity: 0.8; stroke: #808080; stroke-opacity: 0.8"/>
     <use xlink:href="#m2f79557145" x="175.878566" y="236.518187" style="fill: #808080; fill-opacity: 0.8; stroke: #808080; stroke-opacity: 0.8"/>
     <use xlink:href="#m2f79557145" x="163.907029" y="230.231519" style="fill: #808080; fill-opacity: 0.8; stroke: #808080; stroke-opacity: 0.8"/>
     <use xlink:href="#m2f79557145" x="170.448794" y="155.02697" style="fill: #808080; fill-opacity: 0.8; stroke: #808080; stroke-opacity: 0.8"/>
     <use xlink:href="#m2f79557145" x="128.301008" y="220.96857" style="fill: #808080; fill-opacity: 0.8; stroke: #808080; stroke-opacity: 0.8"/>
     <use xlink:href="#m2f79557145" x="226.975231" y="185.165827" style="fill: #808080; fill-opacity: 0.8; stroke: #808080; stroke-opacity: 0.8"/>
     <use xlink:href="#m2f79557145" x="210.480789" y="194.467864" style="fill: #808080; fill-opacity: 0.8; stroke: #808080; stroke-opacity: 0.8"/>
     <use xlink:href="#m2f79557145" x="176.31251" y="198.95578" style="fill: #808080; fill-opacity: 0.8; stroke: #808080; stroke-opacity: 0.8"/>
     <use xlink:href="#m2f79557145" x="166.895419" y="230.575837" style="fill: #808080; fill-opacity: 0.8; stroke: #808080; stroke-opacity: 0.8"/>
     <use xlink:href="#m2f79557145" x="194.869923" y="127.808005" style="fill: #808080; fill-opacity: 0.8; stroke: #808080; stroke-opacity: 0.8"/>
     <use xlink:href="#m2f79557145" x="202.229536" y="157.815921" style="fill: #808080; fill-opacity: 0.8; stroke: #808080; stroke-opacity: 0.8"/>
     <use xlink:href="#m2f79557145" x="191.182935" y="179.455944" style="fill: #808080; fill-opacity: 0.8; stroke: #808080; stroke-opacity: 0.8"/>
     <use xlink:href="#m2f79557145" x="200.208823" y="169.401572" style="fill: #808080; fill-opacity: 0.8; stroke: #808080; stroke-opacity: 0.8"/>
     <use xlink:href="#m2f79557145" x="185.776309" y="256.336774" style="fill: #808080; fill-opacity: 0.8; stroke: #808080; stroke-opacity: 0.8"/>
     <use xlink:href="#m2f79557145" x="191.119641" y="245.896812" style="fill: #808080; fill-opacity: 0.8; stroke: #808080; stroke-opacity: 0.8"/>
     <use xlink:href="#m2f79557145" x="181.89367" y="212.636372" style="fill: #808080; fill-opacity: 0.8; stroke: #808080; stroke-opacity: 0.8"/>
     <use xlink:href="#m2f79557145" x="219.375453" y="193.599055" style="fill: #808080; fill-opacity: 0.8; stroke: #808080; stroke-opacity: 0.8"/>
     <use xlink:href="#m2f79557145" x="185.887713" y="185.896375" style="fill: #808080; fill-opacity: 0.8; stroke: #808080; stroke-opacity: 0.8"/>
     <use xlink:href="#m2f79557145" x="217.824968" y="167.145329" style="fill: #808080; fill-opacity: 0.8; stroke: #808080; stroke-opacity: 0.8"/>
     <use xlink:href="#m2f79557145" x="189.130125" y="201.063778" style="fill: #808080; fill-opacity: 0.8; stroke: #808080; stroke-opacity: 0.8"/>
     <use xlink:href="#m2f79557145" x="224.821344" y="196.463002" style="fill: #808080; fill-opacity: 0.8; stroke: #808080; stroke-opacity: 0.8"/>
     <use xlink:href="#m2f79557145" x="201.802018" y="189.785948" style="fill: #808080; fill-opacity: 0.8; stroke: #808080; stroke-opacity: 0.8"/>
     <use xlink:href="#m2f79557145" x="199.135008" y="159.204604" style="fill: #808080; fill-opacity: 0.8; stroke: #808080; stroke-opacity: 0.8"/>
     <use xlink:href="#m2f79557145" x="214.987667" y="198.41039" style="fill: #808080; fill-opacity: 0.8; stroke: #808080; stroke-opacity: 0.8"/>
     <use xlink:href="#m2f79557145" x="210.135779" y="192.211498" style="fill: #808080; fill-opacity: 0.8; stroke: #808080; stroke-opacity: 0.8"/>
     <use xlink:href="#m2f79557145" x="190.480726" y="226.863882" style="fill: #808080; fill-opacity: 0.8; stroke: #808080; stroke-opacity: 0.8"/>
     <use xlink:href="#m2f79557145" x="188.398051" y="171.182893" style="fill: #808080; fill-opacity: 0.8; stroke: #808080; stroke-opacity: 0.8"/>
     <use xlink:href="#m2f79557145" x="242.054563" y="156.135252" style="fill: #808080; fill-opacity: 0.8; stroke: #808080; stroke-opacity: 0.8"/>
     <use xlink:href="#m2f79557145" x="202.222785" y="188.574862" style="fill: #808080; fill-opacity: 0.8; stroke: #808080; stroke-opacity: 0.8"/>
     <use xlink:href="#m2f79557145" x="193.674607" y="182.975737" style="fill: #808080; fill-opacity: 0.8; stroke: #808080; stroke-opacity: 0.8"/>
     <use xlink:href="#m2f79557145" x="224.149394" y="189.107627" style="fill: #808080; fill-opacity: 0.8; stroke: #808080; stroke-opacity: 0.8"/>
     <use xlink:href="#m2f79557145" x="202.270718" y="176.719191" style="fill: #808080; fill-opacity: 0.8; stroke: #808080; stroke-opacity: 0.8"/>
     <use xlink:href="#m2f79557145" x="194.315812" y="201.158535" style="fill: #808080; fill-opacity: 0.8; stroke: #808080; stroke-opacity: 0.8"/>
     <use xlink:href="#m2f79557145" x="178.543779" y="211.379921" style="fill: #808080; fill-opacity: 0.8; stroke: #808080; stroke-opacity: 0.8"/>
     <use xlink:href="#m2f79557145" x="179.161001" y="167.285609" style="fill: #808080; fill-opacity: 0.8; stroke: #808080; stroke-opacity: 0.8"/>
     <use xlink:href="#m2f79557145" x="198.109419" y="170.023943" style="fill: #808080; fill-opacity: 0.8; stroke: #808080; stroke-opacity: 0.8"/>
     <use xlink:href="#m2f79557145" x="191.506004" y="210.87121" style="fill: #808080; fill-opacity: 0.8; stroke: #808080; stroke-opacity: 0.8"/>
     <use xlink:href="#m2f79557145" x="206.663897" y="173.112019" style="fill: #808080; fill-opacity: 0.8; stroke: #808080; stroke-opacity: 0.8"/>
     <use xlink:href="#m2f79557145" x="188.648103" y="174.135332" style="fill: #808080; fill-opacity: 0.8; stroke: #808080; stroke-opacity: 0.8"/>
     <use xlink:href="#m2f79557145" x="203.674099" y="217.781762" style="fill: #808080; fill-opacity: 0.8; stroke: #808080; stroke-opacity: 0.8"/>
     <use xlink:href="#m2f79557145" x="221.045741" y="166.943647" style="fill: #808080; fill-opacity: 0.8; stroke: #808080; stroke-opacity: 0.8"/>
     <use xlink:href="#m2f79557145" x="206.507488" y="238.480282" style="fill: #808080; fill-opacity: 0.8; stroke: #808080; stroke-opacity: 0.8"/>
     <use xlink:href="#m2f79557145" x="215.128122" y="213.141245" style="fill: #808080; fill-opacity: 0.8; stroke: #808080; stroke-opacity: 0.8"/>
     <use xlink:href="#m2f79557145" x="191.388443" y="157.940928" style="fill: #808080; fill-opacity: 0.8; stroke: #808080; stroke-opacity: 0.8"/>
     <use xlink:href="#m2f79557145" x="211.086428" y="180.924886" style="fill: #808080; fill-opacity: 0.8; stroke: #808080; stroke-opacity: 0.8"/>
     <use xlink:href="#m2f79557145" x="212.731258" y="216.568696" style="fill: #808080; fill-opacity: 0.8; stroke: #808080; stroke-opacity: 0.8"/>
    </g>
   </g>
   <g id="PolyCollection_1">
    <path d="M 68.338228 327.063384 
L 68.338228 391.763878 
L 70.79341 387.711782 
L 73.248592 383.658876 
L 75.703774 379.605971 
L 78.158955 375.553065 
L 80.614137 371.500159 
L 83.069319 367.447253 
L 85.524501 363.394348 
L 87.979683 359.42397 
L 90.434864 355.347222 
L 92.890046 351.270473 
L 95.345228 347.198502 
L 97.80041 343.150741 
L 100.255592 339.098384 
L 102.710774 335.045208 
L 105.165955 330.992033 
L 107.621137 326.938857 
L 110.076319 322.885682 
L 112.531501 318.832507 
L 114.986683 314.779331 
L 117.441864 310.848794 
L 119.897046 306.933008 
L 122.352228 303.017222 
L 124.80741 299.108833 
L 127.262592 295.201795 
L 129.717774 291.294757 
L 132.172955 287.383377 
L 134.628137 283.469107 
L 137.083319 279.551357 
L 139.538501 275.640566 
L 141.993683 271.712199 
L 144.448864 267.712905 
L 146.904046 263.634038 
L 149.359228 259.496697 
L 151.81441 255.387476 
L 154.269592 251.453462 
L 156.724774 247.564274 
L 159.179955 243.679033 
L 161.635137 239.835477 
L 164.090319 235.900487 
L 166.545501 232.013971 
L 169.000683 228.126512 
L 171.455864 224.093148 
L 173.911046 220.15675 
L 176.366228 216.073632 
L 178.82141 212.390315 
L 181.276592 208.459063 
L 183.731774 204.434951 
L 186.186955 200.454509 
L 188.642137 196.577987 
L 191.097319 192.708552 
L 193.552501 189.08288 
L 196.007683 185.488237 
L 198.462864 181.817514 
L 200.918046 178.070287 
L 203.373228 174.51602 
L 205.82841 170.883433 
L 208.283592 167.569419 
L 210.738774 164.046616 
L 213.193955 160.541028 
L 215.649137 157.097915 
L 218.104319 153.612355 
L 220.559501 150.36976 
L 223.014683 147.220406 
L 225.469864 144.046981 
L 227.925046 140.798464 
L 230.380228 137.727742 
L 232.83541 134.433915 
L 235.290592 131.353163 
L 237.745774 128.271421 
L 240.200955 125.036536 
L 242.656137 121.838933 
L 245.111319 118.868757 
L 247.566501 115.731632 
L 250.021683 112.599377 
L 252.476864 109.454804 
L 254.932046 106.330725 
L 257.387228 103.24246 
L 259.84241 100.154196 
L 262.297592 97.065931 
L 264.752774 93.940941 
L 267.207955 90.895996 
L 269.663137 87.917331 
L 272.118319 84.891115 
L 274.573501 81.782615 
L 277.028683 78.629427 
L 279.483864 75.732215 
L 281.939046 72.672156 
L 284.394228 69.728268 
L 286.84941 66.651523 
L 289.304592 63.619293 
L 291.759774 60.730167 
L 294.214955 57.746213 
L 296.670137 54.696483 
L 299.125319 51.645781 
L 301.580501 48.595078 
L 304.035683 45.544376 
L 306.490864 42.548354 
L 308.946046 39.603474 
L 311.401228 36.695369 
L 311.401228 -8.654546 
L 311.401228 -8.654546 
L 308.946046 -4.646886 
L 306.490864 -0.639225 
L 304.035683 3.343864 
L 301.580501 7.310127 
L 299.125319 11.213615 
L 296.670137 15.239599 
L 294.214955 19.249632 
L 291.759774 23.165287 
L 289.304592 27.0614 
L 286.84941 31.089141 
L 284.394228 35.125287 
L 281.939046 39.213524 
L 279.483864 43.230201 
L 277.028683 47.016677 
L 274.573501 51.061677 
L 272.118319 54.870211 
L 269.663137 58.827907 
L 267.207955 62.735331 
L 264.752774 66.508545 
L 262.297592 70.281758 
L 259.84241 74.061801 
L 257.387228 77.939074 
L 254.932046 82.029782 
L 252.476864 86.144265 
L 250.021683 90.214599 
L 247.566501 94.216694 
L 245.111319 98.131644 
L 242.656137 102.160114 
L 240.200955 105.621274 
L 237.745774 109.48804 
L 235.290592 113.309351 
L 232.83541 116.957764 
L 230.380228 120.618741 
L 227.925046 124.321432 
L 225.469864 127.937682 
L 223.014683 131.682539 
L 220.559501 135.125252 
L 218.104319 138.675944 
L 215.649137 142.169452 
L 213.193955 145.470642 
L 210.738774 148.953877 
L 208.283592 152.359917 
L 205.82841 155.780707 
L 203.373228 159.122326 
L 200.918046 162.326422 
L 198.462864 165.630977 
L 196.007683 168.92296 
L 193.552501 172.287183 
L 191.097319 175.692117 
L 188.642137 179.011588 
L 186.186955 182.134878 
L 183.731774 185.319412 
L 181.276592 188.500951 
L 178.82141 191.686152 
L 176.366228 195.009961 
L 173.911046 198.054263 
L 171.455864 201.205984 
L 169.000683 204.269708 
L 166.545501 207.268936 
L 164.090319 210.400472 
L 161.635137 213.431205 
L 159.179955 216.536106 
L 156.724774 219.601082 
L 154.269592 222.581252 
L 151.81441 225.531456 
L 149.359228 228.457673 
L 146.904046 231.431675 
L 144.448864 234.381382 
L 141.993683 237.330396 
L 139.538501 240.321676 
L 137.083319 243.289728 
L 134.628137 246.422636 
L 132.172955 249.537637 
L 129.717774 252.598829 
L 127.262592 255.600768 
L 124.80741 258.49737 
L 122.352228 261.536417 
L 119.897046 264.468367 
L 117.441864 267.400922 
L 114.986683 270.305712 
L 112.531501 273.221642 
L 110.076319 276.20824 
L 107.621137 279.136258 
L 105.165955 282.06651 
L 102.710774 284.999649 
L 100.255592 287.934609 
L 97.80041 290.88573 
L 95.345228 293.950558 
L 92.890046 297.000501 
L 90.434864 299.952721 
L 87.979683 302.904941 
L 85.524501 305.857964 
L 83.069319 308.811861 
L 80.614137 311.767708 
L 78.158955 314.724327 
L 75.703774 317.801631 
L 73.248592 320.880274 
L 70.79341 323.965375 
L 68.338228 327.063384 
z
" clip-path="url(#pf770b24326)" style="fill: #808080; fill-opacity: 0.15; stroke: #ffffff; stroke-opacity: 0.15"/>
   </g>
   <g id="line2d_9">
    <path d="M 80.077468 337.101511 
L 80.614137 336.359606 
L 83.069319 332.965498 
L 85.524501 329.57139 
L 87.979683 326.177282 
L 90.434864 322.783174 
L 92.890046 319.389066 
L 95.345228 315.994958 
L 97.80041 312.60085 
L 100.255592 309.206742 
L 102.710774 305.812634 
L 105.165955 302.418526 
L 107.621137 299.024418 
L 110.076319 295.63031 
L 112.531501 292.236202 
L 114.986683 288.842094 
L 117.441864 285.447986 
L 119.897046 282.053878 
L 122.352228 278.65977 
L 124.80741 275.265662 
L 127.262592 271.871554 
L 129.717774 268.477446 
L 132.172955 265.083338 
L 134.628137 261.68923 
L 137.083319 258.295122 
L 139.538501 254.901014 
L 141.993683 251.506906 
L 144.448864 248.112798 
L 146.904046 244.71869 
L 149.359228 241.324582 
L 151.81441 237.930474 
L 154.269592 234.536366 
L 156.724774 231.142258 
L 159.179955 227.74815 
L 161.635137 224.354042 
L 164.090319 220.959934 
L 166.545501 217.565826 
L 169.000683 214.171718 
L 171.455864 210.77761 
L 173.911046 207.383502 
L 176.366228 203.989394 
L 178.82141 200.595286 
L 181.276592 197.201178 
L 183.731774 193.80707 
L 186.186955 190.412962 
L 188.642137 187.018854 
L 191.097319 183.624746 
L 193.552501 180.230638 
L 196.007683 176.83653 
L 198.462864 173.442421 
L 200.918046 170.048313 
L 203.373228 166.654205 
L 205.82841 163.260097 
L 208.283592 159.865989 
L 210.738774 156.471881 
L 213.193955 153.077773 
L 215.649137 149.683665 
L 218.104319 146.289557 
L 220.559501 142.895449 
L 223.014683 139.501341 
L 225.469864 136.107233 
L 227.925046 132.713125 
L 230.380228 129.319017 
L 232.83541 125.924909 
L 235.290592 122.530801 
L 237.745774 119.136693 
L 240.200955 115.742585 
L 242.656137 112.348477 
L 245.111319 108.954369 
L 247.566501 105.560261 
L 250.021683 102.166153 
L 252.476864 98.772045 
L 254.932046 95.377937 
L 257.387228 91.983829 
L 259.84241 88.589721 
L 262.297592 85.195613 
L 264.752774 81.801505 
L 267.207955 78.407397 
L 269.663137 75.013289 
L 272.118319 71.619181 
L 274.573501 68.225073 
L 277.028683 64.830965 
L 279.483864 61.436857 
L 281.939046 58.042749 
L 284.394228 54.648641 
L 286.84941 51.254533 
L 289.304592 47.860425 
L 291.759774 44.466317 
L 294.214955 41.072209 
L 296.670137 37.678101 
L 299.125319 34.283993 
L 301.580501 30.889885 
L 304.035683 27.495777 
L 306.490864 24.101669 
L 308.946046 20.707561 
L 311.401228 17.313453 
" clip-path="url(#pf770b24326)" style="fill: none; stroke: #808080; stroke-width: 2.25; stroke-linecap: round"/>
   </g>
   <g id="patch_3">
    <path d="M 56.185078 283.850183 
L 56.185078 19.873523 
" style="fill: none; stroke: #262626; stroke-width: 1.25; stroke-linejoin: miter; stroke-linecap: square"/>
   </g>
   <g id="patch_4">
    <path d="M 56.185078 283.850183 
L 323.554378 283.850183 
" style="fill: none; stroke: #262626; stroke-width: 1.25; stroke-linejoin: miter; stroke-linecap: square"/>
   </g>
   <g id="text_11">
    <text style="fill: #262626; font: 18px 'sans-serif'; text-anchor: start" x="82.922008" y="20.1375" transform="rotate(-0 82.922008 20.1375)">r = 0.80, p=7.6e-32</text>
   </g>
  </g>
  <g id="legend_1">
   <g id="text_12">
    <text style="fill: #262626; font: 18px 'sans-serif'; text-anchor: start" x="365.522227" y="160.822982" transform="rotate(-0 365.522227 160.822982)">genotype</text>
   </g>
   <g id="PathCollection_2">
    <g>
     <use xlink:href="#m2f79557145" x="361.558125" y="180.551967" style="fill: #808080; fill-opacity: 0.8; stroke: #808080; stroke-opacity: 0.8"/>
    </g>
   </g>
   <g id="text_13">
    <text style="fill: #262626; font: 16.5px 'sans-serif'; text-anchor: start" x="391.258125" y="184.883217" transform="rotate(-0 391.258125 184.883217)">ApoE KO</text>
   </g>
  </g>
 </g>
 <defs>
  <clipPath id="pf770b24326">
   <rect x="56.185078" y="19.873523" width="267.3693" height="263.97666"/>
  </clipPath>
 </defs>
</svg>
