<?xml version="1.0" encoding="utf-8" standalone="no"?>
<!DOCTYPE svg PUBLIC "-//W3C//DTD SVG 1.1//EN"
  "http://www.w3.org/Graphics/SVG/1.1/DTD/svg11.dtd">
<svg xmlns:xlink="http://www.w3.org/1999/xlink" width="514.040062pt" height="311.146375pt" viewBox="0 0 514.040062 311.146375" xmlns="http://www.w3.org/2000/svg" version="1.1">
 <metadata>
  <rdf:RDF xmlns:dc="http://purl.org/dc/elements/1.1/" xmlns:cc="http://creativecommons.org/ns#" xmlns:rdf="http://www.w3.org/1999/02/22-rdf-syntax-ns#">
   <cc:Work>
    <dc:type rdf:resource="http://purl.org/dc/dcmitype/StillImage"/>
    <dc:date>2024-10-17T09:35:48.107511</dc:date>
    <dc:format>image/svg+xml</dc:format>
    <dc:creator>
     <cc:Agent>
      <dc:title>Matplotlib v3.6.0, https://matplotlib.org/</dc:title>
     </cc:Agent>
    </dc:creator>
   </cc:Work>
  </rdf:RDF>
 </metadata>
 <defs>
  <style type="text/css">*{stroke-linejoin: round; stroke-linecap: butt}</style>
 </defs>
 <g id="figure_1">
  <g id="patch_1">
   <path d="M 0 311.146375 
L 514.040062 311.146375 
L 514.040062 0 
L 0 0 
z
" style="fill: #ffffff"/>
  </g>
  <g id="axes_1">
   <g id="patch_2">
    <path d="M 52.439063 273.312 
L 409.559062 273.312 
L 409.559062 7.2 
L 52.439063 7.2 
z
" style="fill: #ffffff"/>
   </g>
   <g id="PolyCollection_1">
    <defs>
     <path id="mc577ceec05" d="M 68.67179 -267.647003 
L 68.67179 -253.261609 
L 137.020115 -281.642819 
L 222.455522 -266.106672 
L 307.890929 -242.627952 
L 393.326335 -253.141108 
L 393.326335 -266.671694 
L 393.326335 -266.671694 
L 307.890929 -254.60994 
L 222.455522 -272.966877 
L 137.020115 -291.850375 
L 68.67179 -267.647003 
z
" style="stroke: #000000; stroke-opacity: 0.2"/>
    </defs>
    <g clip-path="url(#pc263b37b1e)">
     <use xlink:href="#mc577ceec05" x="0" y="311.146375" style="fill-opacity: 0.2; stroke: #000000; stroke-opacity: 0.2"/>
    </g>
   </g>
   <g id="PolyCollection_2">
    <defs>
     <path id="m4635e39d3e" d="M 68.67179 -266.594384 
L 68.67179 -255.936991 
L 137.020115 -95.824879 
L 222.455522 -93.997329 
L 307.890929 -102.381333 
L 393.326335 -113.321392 
L 393.326335 -124.732178 
L 393.326335 -124.732178 
L 307.890929 -115.349014 
L 222.455522 -115.465973 
L 137.020115 -114.022613 
L 68.67179 -266.594384 
z
" style="stroke: #0000ff; stroke-opacity: 0.2"/>
    </defs>
    <g clip-path="url(#pc263b37b1e)">
     <use xlink:href="#m4635e39d3e" x="0" y="311.146375" style="fill: #0000ff; fill-opacity: 0.2; stroke: #0000ff; stroke-opacity: 0.2"/>
    </g>
   </g>
   <g id="PolyCollection_3">
    <defs>
     <path id="m08012922a0" d="M 68.67179 -273.83765 
L 68.67179 -261.920075 
L 137.020115 -64.849148 
L 222.455522 -51.32985 
L 307.890929 -50.787867 
L 393.326335 -49.930375 
L 393.326335 -60.435774 
L 393.326335 -60.435774 
L 307.890929 -58.783483 
L 222.455522 -58.058403 
L 137.020115 -77.776587 
L 68.67179 -273.83765 
z
" style="stroke: #ff0000; stroke-opacity: 0.2"/>
    </defs>
    <g clip-path="url(#pc263b37b1e)">
     <use xlink:href="#m08012922a0" x="0" y="311.146375" style="fill: #ff0000; fill-opacity: 0.2; stroke: #ff0000; stroke-opacity: 0.2"/>
    </g>
   </g>
   <g id="matplotlib.axis_1">
    <g id="xtick_1">
     <g id="line2d_1">
      <defs>
       <path id="m06b3a03753" d="M 0 0 
L 0 3.5 
" style="stroke: #000000; stroke-width: 0.8"/>
      </defs>
      <g>
       <use xlink:href="#m06b3a03753" x="68.67179" y="273.312" style="stroke: #000000; stroke-width: 0.8"/>
      </g>
     </g>
     <g id="text_1">
      <text style="font: 10px 'sans-serif'; text-anchor: middle" x="68.67179" y="287.910437" transform="rotate(-0 68.67179 287.910437)">10</text>
     </g>
    </g>
    <g id="xtick_2">
     <g id="line2d_2">
      <g>
       <use xlink:href="#m06b3a03753" x="137.020115" y="273.312" style="stroke: #000000; stroke-width: 0.8"/>
      </g>
     </g>
     <g id="text_2">
      <text style="font: 10px 'sans-serif'; text-anchor: middle" x="137.020115" y="287.910437" transform="rotate(-0 137.020115 287.910437)">12</text>
     </g>
    </g>
    <g id="xtick_3">
     <g id="line2d_3">
      <g>
       <use xlink:href="#m06b3a03753" x="205.36844" y="273.312" style="stroke: #000000; stroke-width: 0.8"/>
      </g>
     </g>
     <g id="text_3">
      <text style="font: 10px 'sans-serif'; text-anchor: middle" x="205.36844" y="287.910437" transform="rotate(-0 205.36844 287.910437)">14</text>
     </g>
    </g>
    <g id="xtick_4">
     <g id="line2d_4">
      <g>
       <use xlink:href="#m06b3a03753" x="273.716766" y="273.312" style="stroke: #000000; stroke-width: 0.8"/>
      </g>
     </g>
     <g id="text_4">
      <text style="font: 10px 'sans-serif'; text-anchor: middle" x="273.716766" y="287.910437" transform="rotate(-0 273.716766 287.910437)">16</text>
     </g>
    </g>
    <g id="xtick_5">
     <g id="line2d_5">
      <g>
       <use xlink:href="#m06b3a03753" x="342.065091" y="273.312" style="stroke: #000000; stroke-width: 0.8"/>
      </g>
     </g>
     <g id="text_5">
      <text style="font: 10px 'sans-serif'; text-anchor: middle" x="342.065091" y="287.910437" transform="rotate(-0 342.065091 287.910437)">18</text>
     </g>
    </g>
    <g id="text_6">
     <text style="font: 10px 'sans-serif'; text-anchor: middle" x="230.999063" y="301.588562" transform="rotate(-0 230.999063 301.588562)">host_age</text>
    </g>
   </g>
   <g id="matplotlib.axis_2">
    <g id="ytick_1">
     <g id="line2d_6">
      <defs>
       <path id="m968879d0ad" d="M 0 0 
L -3.5 0 
" style="stroke: #000000; stroke-width: 0.8"/>
      </defs>
      <g>
       <use xlink:href="#m968879d0ad" x="52.439063" y="254.997529" style="stroke: #000000; stroke-width: 0.8"/>
      </g>
     </g>
     <g id="text_7">
      <text style="font: 10px 'sans-serif'; text-anchor: end" x="45.439063" y="258.796748" transform="rotate(-0 45.439063 258.796748)">−1.5</text>
     </g>
    </g>
    <g id="ytick_2">
     <g id="line2d_7">
      <g>
       <use xlink:href="#m968879d0ad" x="52.439063" y="222.816359" style="stroke: #000000; stroke-width: 0.8"/>
      </g>
     </g>
     <g id="text_8">
      <text style="font: 10px 'sans-serif'; text-anchor: end" x="45.439063" y="226.615577" transform="rotate(-0 45.439063 226.615577)">−1.0</text>
     </g>
    </g>
    <g id="ytick_3">
     <g id="line2d_8">
      <g>
       <use xlink:href="#m968879d0ad" x="52.439063" y="190.635189" style="stroke: #000000; stroke-width: 0.8"/>
      </g>
     </g>
     <g id="text_9">
      <text style="font: 10px 'sans-serif'; text-anchor: end" x="45.439063" y="194.434407" transform="rotate(-0 45.439063 194.434407)">−0.5</text>
     </g>
    </g>
    <g id="ytick_4">
     <g id="line2d_9">
      <g>
       <use xlink:href="#m968879d0ad" x="52.439063" y="158.454019" style="stroke: #000000; stroke-width: 0.8"/>
      </g>
     </g>
     <g id="text_10">
      <text style="font: 10px 'sans-serif'; text-anchor: end" x="45.439063" y="162.253237" transform="rotate(-0 45.439063 162.253237)">0.0</text>
     </g>
    </g>
    <g id="ytick_5">
     <g id="line2d_10">
      <g>
       <use xlink:href="#m968879d0ad" x="52.439063" y="126.272849" style="stroke: #000000; stroke-width: 0.8"/>
      </g>
     </g>
     <g id="text_11">
      <text style="font: 10px 'sans-serif'; text-anchor: end" x="45.439063" y="130.072067" transform="rotate(-0 45.439063 130.072067)">0.5</text>
     </g>
    </g>
    <g id="ytick_6">
     <g id="line2d_11">
      <g>
       <use xlink:href="#m968879d0ad" x="52.439063" y="94.091679" style="stroke: #000000; stroke-width: 0.8"/>
      </g>
     </g>
     <g id="text_12">
      <text style="font: 10px 'sans-serif'; text-anchor: end" x="45.439063" y="97.890897" transform="rotate(-0 45.439063 97.890897)">1.0</text>
     </g>
    </g>
    <g id="ytick_7">
     <g id="line2d_12">
      <g>
       <use xlink:href="#m968879d0ad" x="52.439063" y="61.910508" style="stroke: #000000; stroke-width: 0.8"/>
      </g>
     </g>
     <g id="text_13">
      <text style="font: 10px 'sans-serif'; text-anchor: end" x="45.439063" y="65.709727" transform="rotate(-0 45.439063 65.709727)">1.5</text>
     </g>
    </g>
    <g id="ytick_8">
     <g id="line2d_13">
      <g>
       <use xlink:href="#m968879d0ad" x="52.439063" y="29.729338" style="stroke: #000000; stroke-width: 0.8"/>
      </g>
     </g>
     <g id="text_14">
      <text style="font: 10px 'sans-serif'; text-anchor: end" x="45.439063" y="33.528557" transform="rotate(-0 45.439063 33.528557)">2.0</text>
     </g>
    </g>
    <g id="text_15">
     <text style="font: 10px 'sans-serif'; text-anchor: middle" x="14.798438" y="140.256" transform="rotate(-90 14.798438 140.256)">Main_Metab_Log_Ratio</text>
    </g>
   </g>
   <g id="line2d_14">
    <path d="M 68.67179 50.536656 
L 137.020115 24.576637 
L 222.455522 41.635331 
L 307.890929 62.475345 
L 393.326335 51.138166 
" clip-path="url(#pc263b37b1e)" style="fill: none; stroke: #000000; stroke-width: 1.5; stroke-linecap: square"/>
   </g>
   <g id="line2d_15">
    <path d="M 68.67179 50.037097 
L 137.020115 205.770272 
L 222.455522 206.36806 
L 307.890929 202.072046 
L 393.326335 192.078582 
" clip-path="url(#pc263b37b1e)" style="fill: none; stroke: #0000ff; stroke-width: 1.5; stroke-linecap: square"/>
   </g>
   <g id="line2d_16">
    <path d="M 68.67179 42.947713 
L 137.020115 239.775508 
L 222.455522 256.417075 
L 307.890929 256.44438 
L 393.326335 255.729345 
" clip-path="url(#pc263b37b1e)" style="fill: none; stroke: #ff0000; stroke-width: 1.5; stroke-linecap: square"/>
   </g>
   <g id="line2d_17"/>
   <g id="line2d_18"/>
   <g id="line2d_19"/>
   <g id="patch_3">
    <path d="M 52.439063 273.312 
L 52.439063 7.2 
" style="fill: none; stroke: #000000; stroke-width: 0.8; stroke-linejoin: miter; stroke-linecap: square"/>
   </g>
   <g id="patch_4">
    <path d="M 409.559062 273.312 
L 409.559062 7.2 
" style="fill: none; stroke: #000000; stroke-width: 0.8; stroke-linejoin: miter; stroke-linecap: square"/>
   </g>
   <g id="patch_5">
    <path d="M 52.439063 273.312 
L 409.559062 273.312 
" style="fill: none; stroke: #000000; stroke-width: 0.8; stroke-linejoin: miter; stroke-linecap: square"/>
   </g>
   <g id="patch_6">
    <path d="M 52.439063 7.2 
L 409.559062 7.2 
" style="fill: none; stroke: #000000; stroke-width: 0.8; stroke-linejoin: miter; stroke-linecap: square"/>
   </g>
   <g id="legend_1">
    <g id="patch_7">
     <path d="M 429.415062 55.06875 
L 504.840062 55.06875 
Q 506.840062 55.06875 506.840062 53.06875 
L 506.840062 9.2 
Q 506.840062 7.2 504.840062 7.2 
L 429.415062 7.2 
Q 427.415062 7.2 427.415062 9.2 
L 427.415062 53.06875 
Q 427.415062 55.06875 429.415062 55.06875 
z
" style="fill: #ffffff; opacity: 0.8; stroke: #cccccc; stroke-linejoin: miter"/>
    </g>
    <g id="line2d_20">
     <path d="M 431.415062 15.298437 
L 441.415062 15.298437 
L 451.415062 15.298437 
" style="fill: none; stroke: #000000; stroke-width: 1.5; stroke-linecap: square"/>
    </g>
    <g id="text_16">
     <text style="font: 10px 'sans-serif'; text-anchor: start" x="459.415062" y="18.798437" transform="rotate(-0 459.415062 18.798437)">RC_AIR</text>
    </g>
    <g id="line2d_21">
     <path d="M 431.415062 30.254687 
L 441.415062 30.254687 
L 451.415062 30.254687 
" style="fill: none; stroke: #0000ff; stroke-width: 1.5; stroke-linecap: square"/>
    </g>
    <g id="text_17">
     <text style="font: 10px 'sans-serif'; text-anchor: start" x="459.415062" y="33.754687" transform="rotate(-0 459.415062 33.754687)">HFD_AIR</text>
    </g>
    <g id="line2d_22">
     <path d="M 431.415062 45.210937 
L 441.415062 45.210937 
L 451.415062 45.210937 
" style="fill: none; stroke: #ff0000; stroke-width: 1.5; stroke-linecap: square"/>
    </g>
    <g id="text_18">
     <text style="font: 10px 'sans-serif'; text-anchor: start" x="459.415062" y="48.710937" transform="rotate(-0 459.415062 48.710937)">HFD_IHC</text>
    </g>
   </g>
  </g>
 </g>
 <defs>
  <clipPath id="pc263b37b1e">
   <rect x="52.439063" y="7.2" width="357.12" height="266.112"/>
  </clipPath>
 </defs>
</svg>
