<?xml version="1.0" encoding="utf-8" standalone="no"?>
<!DOCTYPE svg PUBLIC "-//W3C//DTD SVG 1.1//EN"
  "http://www.w3.org/Graphics/SVG/1.1/DTD/svg11.dtd">
<svg xmlns:xlink="http://www.w3.org/1999/xlink" width="594.287953pt" height="343.000828pt" viewBox="0 0 594.287953 343.000828" xmlns="http://www.w3.org/2000/svg" version="1.1">
 <metadata>
  <rdf:RDF xmlns:dc="http://purl.org/dc/elements/1.1/" xmlns:cc="http://creativecommons.org/ns#" xmlns:rdf="http://www.w3.org/1999/02/22-rdf-syntax-ns#">
   <cc:Work>
    <dc:type rdf:resource="http://purl.org/dc/dcmitype/StillImage"/>
    <dc:date>2024-07-10T12:45:28.452294</dc:date>
    <dc:format>image/svg+xml</dc:format>
    <dc:creator>
     <cc:Agent>
      <dc:title>Matplotlib v3.6.0, https://matplotlib.org/</dc:title>
     </cc:Agent>
    </dc:creator>
   </cc:Work>
  </rdf:RDF>
 </metadata>
 <defs>
  <style type="text/css">*{stroke-linejoin: round; stroke-linecap: butt}</style>
 </defs>
 <g id="figure_1">
  <g id="patch_1">
   <path d="M 0 343.000828 
L 594.287953 343.000828 
L 594.287953 0 
L 0 0 
z
" style="fill: #ffffff"/>
  </g>
  <g id="axes_1">
   <g id="patch_2">
    <path d="M 81.210234 292.196062 
L 438.330234 292.196062 
L 438.330234 26.084062 
L 81.210234 26.084062 
z
" style="fill: #ffffff"/>
   </g>
   <g id="matplotlib.axis_1">
    <g id="xtick_1">
     <g id="line2d_1">
      <defs>
       <path id="mf8c7b9f4f5" d="M 0 0 
L 0 6 
" style="stroke: #262626; stroke-width: 1.25"/>
      </defs>
      <g>
       <use xlink:href="#mf8c7b9f4f5" x="97.442962" y="292.196062" style="fill: #262626; stroke: #262626; stroke-width: 1.25"/>
      </g>
     </g>
     <g id="text_1">
      <text style="fill: #262626; font: 16.5px 'sans-serif'; text-anchor: middle" x="97.442962" y="313.506453" transform="rotate(-0 97.442962 313.506453)">10</text>
     </g>
    </g>
    <g id="xtick_2">
     <g id="line2d_2">
      <g>
       <use xlink:href="#mf8c7b9f4f5" x="165.791287" y="292.196062" style="fill: #262626; stroke: #262626; stroke-width: 1.25"/>
      </g>
     </g>
     <g id="text_2">
      <text style="fill: #262626; font: 16.5px 'sans-serif'; text-anchor: middle" x="165.791287" y="313.506453" transform="rotate(-0 165.791287 313.506453)">12</text>
     </g>
    </g>
    <g id="xtick_3">
     <g id="line2d_3">
      <g>
       <use xlink:href="#mf8c7b9f4f5" x="234.139612" y="292.196062" style="fill: #262626; stroke: #262626; stroke-width: 1.25"/>
      </g>
     </g>
     <g id="text_3">
      <text style="fill: #262626; font: 16.5px 'sans-serif'; text-anchor: middle" x="234.139612" y="313.506453" transform="rotate(-0 234.139612 313.506453)">14</text>
     </g>
    </g>
    <g id="xtick_4">
     <g id="line2d_4">
      <g>
       <use xlink:href="#mf8c7b9f4f5" x="302.487938" y="292.196062" style="fill: #262626; stroke: #262626; stroke-width: 1.25"/>
      </g>
     </g>
     <g id="text_4">
      <text style="fill: #262626; font: 16.5px 'sans-serif'; text-anchor: middle" x="302.487938" y="313.506453" transform="rotate(-0 302.487938 313.506453)">16</text>
     </g>
    </g>
    <g id="xtick_5">
     <g id="line2d_5">
      <g>
       <use xlink:href="#mf8c7b9f4f5" x="370.836263" y="292.196062" style="fill: #262626; stroke: #262626; stroke-width: 1.25"/>
      </g>
     </g>
     <g id="text_5">
      <text style="fill: #262626; font: 16.5px 'sans-serif'; text-anchor: middle" x="370.836263" y="313.506453" transform="rotate(-0 370.836263 313.506453)">18</text>
     </g>
    </g>
    <g id="text_6">
     <text style="fill: #262626; font: 16px 'sans-serif'; text-anchor: middle" x="259.770234" y="332.433328" transform="rotate(-0 259.770234 332.433328)">Host Age (weeks)</text>
    </g>
   </g>
   <g id="matplotlib.axis_2">
    <g id="ytick_1">
     <g id="line2d_6">
      <defs>
       <path id="m9e37352418" d="M 0 0 
L -6 0 
" style="stroke: #262626; stroke-width: 1.25"/>
      </defs>
      <g>
       <use xlink:href="#m9e37352418" x="81.210234" y="292.196062" style="fill: #262626; stroke: #262626; stroke-width: 1.25"/>
      </g>
     </g>
     <g id="text_7">
      <text style="fill: #262626; font: 16.5px 'sans-serif'; text-anchor: end" x="71.710234" y="298.101258" transform="rotate(-0 71.710234 298.101258)">3000</text>
     </g>
    </g>
    <g id="ytick_2">
     <g id="line2d_7">
      <g>
       <use xlink:href="#m9e37352418" x="81.210234" y="258.932062" style="fill: #262626; stroke: #262626; stroke-width: 1.25"/>
      </g>
     </g>
     <g id="text_8">
      <text style="fill: #262626; font: 16.5px 'sans-serif'; text-anchor: end" x="71.710234" y="264.837258" transform="rotate(-0 71.710234 264.837258)">4000</text>
     </g>
    </g>
    <g id="ytick_3">
     <g id="line2d_8">
      <g>
       <use xlink:href="#m9e37352418" x="81.210234" y="225.668062" style="fill: #262626; stroke: #262626; stroke-width: 1.25"/>
      </g>
     </g>
     <g id="text_9">
      <text style="fill: #262626; font: 16.5px 'sans-serif'; text-anchor: end" x="71.710234" y="231.573258" transform="rotate(-0 71.710234 231.573258)">5000</text>
     </g>
    </g>
    <g id="ytick_4">
     <g id="line2d_9">
      <g>
       <use xlink:href="#m9e37352418" x="81.210234" y="192.404062" style="fill: #262626; stroke: #262626; stroke-width: 1.25"/>
      </g>
     </g>
     <g id="text_10">
      <text style="fill: #262626; font: 16.5px 'sans-serif'; text-anchor: end" x="71.710234" y="198.309258" transform="rotate(-0 71.710234 198.309258)">6000</text>
     </g>
    </g>
    <g id="ytick_5">
     <g id="line2d_10">
      <g>
       <use xlink:href="#m9e37352418" x="81.210234" y="159.140062" style="fill: #262626; stroke: #262626; stroke-width: 1.25"/>
      </g>
     </g>
     <g id="text_11">
      <text style="fill: #262626; font: 16.5px 'sans-serif'; text-anchor: end" x="71.710234" y="165.045258" transform="rotate(-0 71.710234 165.045258)">7000</text>
     </g>
    </g>
    <g id="ytick_6">
     <g id="line2d_11">
      <g>
       <use xlink:href="#m9e37352418" x="81.210234" y="125.876062" style="fill: #262626; stroke: #262626; stroke-width: 1.25"/>
      </g>
     </g>
     <g id="text_12">
      <text style="fill: #262626; font: 16.5px 'sans-serif'; text-anchor: end" x="71.710234" y="131.781258" transform="rotate(-0 71.710234 131.781258)">8000</text>
     </g>
    </g>
    <g id="ytick_7">
     <g id="line2d_12">
      <g>
       <use xlink:href="#m9e37352418" x="81.210234" y="92.612062" style="fill: #262626; stroke: #262626; stroke-width: 1.25"/>
      </g>
     </g>
     <g id="text_13">
      <text style="fill: #262626; font: 16.5px 'sans-serif'; text-anchor: end" x="71.710234" y="98.517258" transform="rotate(-0 71.710234 98.517258)">9000</text>
     </g>
    </g>
    <g id="ytick_8">
     <g id="line2d_13">
      <g>
       <use xlink:href="#m9e37352418" x="81.210234" y="59.348062" style="fill: #262626; stroke: #262626; stroke-width: 1.25"/>
      </g>
     </g>
     <g id="text_14">
      <text style="fill: #262626; font: 16.5px 'sans-serif'; text-anchor: end" x="71.710234" y="65.253258" transform="rotate(-0 71.710234 65.253258)">10000</text>
     </g>
    </g>
    <g id="ytick_9">
     <g id="line2d_14">
      <g>
       <use xlink:href="#m9e37352418" x="81.210234" y="26.084062" style="fill: #262626; stroke: #262626; stroke-width: 1.25"/>
      </g>
     </g>
     <g id="text_15">
      <text style="fill: #262626; font: 16.5px 'sans-serif'; text-anchor: end" x="71.710234" y="31.989258" transform="rotate(-0 71.710234 31.989258)">11000</text>
     </g>
    </g>
    <g id="text_16">
     <text style="fill: #262626; font: 16px 'sans-serif'; text-anchor: middle" x="18.6525" y="159.140062" transform="rotate(-90 18.6525 159.140062)">Faiths PD</text>
    </g>
   </g>
   <g id="line2d_15">
    <path d="M 97.442962 154.120858 
L 114.530043 89.245083 
L 131.617124 116.288078 
L 148.704206 126.578331 
L 165.791287 132.441669 
L 182.878368 128.948417 
L 199.96545 126.374401 
L 217.052531 128.561008 
L 234.139612 127.306757 
L 251.226694 163.484104 
L 268.313775 137.062684 
L 285.400856 117.922004 
L 302.487938 111.273054 
L 319.575019 131.101965 
L 336.6621 129.74082 
L 353.749182 127.820199 
L 370.836263 139.178416 
L 387.923344 133.740573 
L 405.010426 142.683549 
L 422.097507 135.070216 
" clip-path="url(#pae125187e0)" style="fill: none; stroke: #000000; stroke-width: 5; stroke-linecap: round"/>
   </g>
   <g id="line2d_16">
    <path d="M 97.442962 154.681754 
L 114.530043 183.324526 
L 131.617124 179.290896 
L 148.704206 186.279203 
L 165.791287 203.174058 
L 182.878368 192.420452 
L 199.96545 184.713356 
L 217.052531 209.762924 
L 234.139612 201.529525 
L 251.226694 191.671463 
L 268.313775 187.518558 
L 285.400856 184.712378 
L 302.487938 185.431847 
L 319.575019 177.494017 
L 336.6621 201.837153 
L 353.749182 201.169519 
L 370.836263 189.71009 
L 387.923344 190.058145 
L 405.010426 186.946778 
L 422.097507 196.291627 
" clip-path="url(#pae125187e0)" style="fill: none; stroke: #0000ff; stroke-width: 5; stroke-linecap: round"/>
   </g>
   <g id="line2d_17">
    <path d="M 97.442962 144.959642 
L 114.530043 183.022387 
L 131.617124 185.795973 
L 148.704206 204.142466 
L 165.791287 214.920089 
L 182.878368 218.691194 
L 199.96545 209.589483 
L 217.052531 209.405305 
L 234.139612 210.474334 
L 251.226694 214.394608 
L 268.313775 200.864681 
L 285.400856 184.828025 
L 302.487938 190.46843 
L 319.575019 210.094475 
L 336.6621 212.14203 
L 353.749182 212.750107 
L 370.836263 190.320085 
L 387.923344 212.177979 
L 405.010426 210.849791 
L 422.097507 211.618401 
" clip-path="url(#pae125187e0)" style="fill: none; stroke: #ff0000; stroke-width: 5; stroke-linecap: round"/>
   </g>
   <g id="line2d_18"/>
   <g id="line2d_19"/>
   <g id="line2d_20"/>
   <g id="line2d_21">
    <path d="M 97.442962 125.412921 
L 114.530043 128.380198 
L 131.617124 141.728091 
L 148.704206 123.078926 
L 165.791287 122.854597 
L 182.878368 89.999031 
L 199.96545 133.502805 
L 217.052531 141.938989 
L 234.139612 118.104386 
L 251.226694 173.842099 
L 268.313775 159.917946 
L 285.400856 111.309523 
L 302.487938 105.689019 
L 319.575019 159.678643 
L 336.6621 163.401399 
L 353.749182 159.094439 
L 370.836263 119.728292 
L 387.923344 161.856846 
L 405.010426 140.026659 
L 422.097507 159.687454 
" clip-path="url(#pae125187e0)" style="fill: none; stroke: #000000; stroke-width: 0.5; stroke-linecap: round"/>
   </g>
   <g id="line2d_22">
    <path d="M 97.442962 190.160222 
L 114.530043 128.451636 
L 131.617124 114.556685 
L 148.704206 100.168495 
L 165.791287 141.182255 
L 182.878368 118.587591 
L 199.96545 91.447659 
L 217.052531 50.997426 
L 234.139612 146.492966 
L 251.226694 168.946373 
L 268.313775 174.480701 
L 285.400856 122.023074 
L 302.487938 112.666086 
L 319.575019 141.019928 
L 336.6621 124.783937 
L 353.749182 117.002829 
L 370.836263 125.733939 
L 387.923344 95.007593 
L 405.010426 124.416913 
L 422.097507 109.007855 
" clip-path="url(#pae125187e0)" style="fill: none; stroke: #000000; stroke-width: 0.5; stroke-linecap: round"/>
   </g>
   <g id="line2d_23">
    <path d="M 97.442962 132.736181 
L 114.530043 143.440914 
L 148.704206 116.376667 
L 165.791287 110.821959 
L 182.878368 106.963822 
L 199.96545 99.917415 
L 217.052531 68.488532 
L 234.139612 210.511496 
L 251.226694 189.106372 
L 268.313775 125.060023 
L 285.400856 39.669353 
L 302.487938 101.882886 
L 319.575019 113.928967 
L 336.6621 154.493808 
L 353.749182 140.782095 
L 370.836263 136.975504 
L 387.923344 143.65884 
L 405.010426 218.745395 
L 422.097507 165.842743 
" clip-path="url(#pae125187e0)" style="fill: none; stroke: #000000; stroke-width: 0.5; stroke-linecap: round"/>
   </g>
   <g id="line2d_24">
    <path d="M 97.442962 162.662688 
L 114.530043 150.741827 
L 131.617124 97.347152 
L 148.704206 146.428902 
L 165.791287 145.330834 
L 182.878368 96.46299 
L 199.96545 97.38146 
L 217.052531 73.353957 
L 234.139612 90.753741 
L 251.226694 175.746194 
L 268.313775 165.590323 
L 285.400856 80.236967 
L 302.487938 124.828802 
L 319.575019 107.071094 
L 336.6621 139.417358 
L 353.749182 141.087181 
L 370.836263 123.35994 
L 387.923344 181.140076 
L 405.010426 168.057232 
L 422.097507 135.624336 
" clip-path="url(#pae125187e0)" style="fill: none; stroke: #000000; stroke-width: 0.5; stroke-linecap: round"/>
   </g>
   <g id="line2d_25">
    <path d="M 97.442962 147.662323 
L 114.530043 109.772066 
L 131.617124 126.731654 
L 148.704206 93.272449 
L 165.791287 129.757109 
L 182.878368 206.426996 
L 199.96545 147.311007 
L 217.052531 124.874871 
L 234.139612 144.50603 
L 251.226694 115.836498 
L 285.400856 113.798085 
L 302.487938 77.22246 
L 319.575019 90.413551 
L 336.6621 136.252705 
L 353.749182 144.362437 
L 370.836263 135.284764 
L 387.923344 149.128754 
L 405.010426 187.857277 
L 422.097507 129.473259 
" clip-path="url(#pae125187e0)" style="fill: none; stroke: #000000; stroke-width: 0.5; stroke-linecap: round"/>
   </g>
   <g id="line2d_26">
    <path d="M 97.442962 153.132501 
L 114.530043 101.571112 
L 131.617124 49.646123 
L 148.704206 135.02166 
L 165.791287 126.271784 
L 182.878368 164.152885 
L 199.96545 111.409913 
L 217.052531 155.761437 
L 234.139612 140.653469 
L 251.226694 202.992252 
L 268.313775 155.829562 
L 285.400856 152.58989 
L 302.487938 101.130837 
L 319.575019 140.345675 
L 336.6621 115.087056 
L 353.749182 85.024429 
L 370.836263 81.125419 
L 387.923344 135.721375 
L 405.010426 118.756421 
L 422.097507 125.5487 
" clip-path="url(#pae125187e0)" style="fill: none; stroke: #000000; stroke-width: 0.5; stroke-linecap: round"/>
   </g>
   <g id="line2d_27">
    <path d="M 97.442962 143.486452 
L 114.530043 134.184916 
L 131.617124 129.27595 
L 148.704206 139.623739 
L 165.791287 176.909512 
L 182.878368 97.01544 
L 199.96545 170.759532 
L 217.052531 173.234761 
L 234.139612 128.293302 
L 251.226694 129.659191 
L 268.313775 153.881409 
L 285.400856 161.939542 
L 319.575019 139.10237 
L 336.6621 129.685019 
L 353.749182 108.845775 
L 370.836263 213.576013 
L 387.923344 140.443231 
L 405.010426 127.547663 
L 422.097507 149.955334 
" clip-path="url(#pae125187e0)" style="fill: none; stroke: #000000; stroke-width: 0.5; stroke-linecap: round"/>
   </g>
   <g id="line2d_28">
    <path d="M 97.442962 137.012469 
L 101.745271 -1 
M 128.195636 -1 
L 131.617124 101.682456 
L 148.704206 111.211701 
L 165.791287 124.070979 
L 182.878368 117.164322 
L 199.96545 111.647884 
L 217.052531 145.463192 
L 234.139612 57.397969 
L 251.226694 142.570103 
L 268.313775 89.80894 
L 285.400856 128.098431 
L 302.487938 118.049242 
L 319.575019 118.361292 
L 336.6621 89.426041 
L 353.749182 121.116297 
L 370.836263 80.87887 
L 387.923344 145.753797 
L 405.010426 158.489966 
L 422.097507 118.264396 
" clip-path="url(#pae125187e0)" style="fill: none; stroke: #000000; stroke-width: 0.5; stroke-linecap: round"/>
   </g>
   <g id="line2d_29">
    <path d="M 97.442962 169.884246 
L 114.530043 161.794055 
L 131.617124 158.425097 
L 148.704206 196.212468 
L 165.791287 166.200238 
L 182.878368 120.968331 
L 199.96545 199.636638 
L 217.052531 197.27731 
L 234.139612 142.51231 
L 251.226694 187.175052 
L 268.313775 124.154877 
L 285.400856 123.629389 
L 302.487938 129.687715 
L 319.575019 162.219296 
L 336.6621 149.143639 
L 353.749182 121.683563 
L 370.836263 149.274567 
L 387.923344 124.920269 
L 405.010426 106.539884 
L 422.097507 141.7808 
" clip-path="url(#pae125187e0)" style="fill: none; stroke: #000000; stroke-width: 0.5; stroke-linecap: round"/>
   </g>
   <g id="line2d_30">
    <path d="M 97.442962 177.100474 
L 114.530043 114.222969 
L 131.617124 131.020329 
L 148.704206 107.292584 
L 165.791287 108.230774 
L 182.878368 144.210694 
L 199.96545 158.521542 
L 217.052531 146.097048 
L 234.139612 139.60733 
L 251.226694 126.812921 
L 268.313775 123.242652 
L 285.400856 140.082627 
L 302.487938 113.852203 
L 319.575019 112.696257 
L 336.6621 125.172772 
L 353.749182 118.960105 
L 370.836263 179.968643 
L 387.923344 110.431201 
L 405.010426 98.887887 
L 422.097507 149.890154 
" clip-path="url(#pae125187e0)" style="fill: none; stroke: #000000; stroke-width: 0.5; stroke-linecap: round"/>
   </g>
   <g id="line2d_31">
    <path d="M 97.442962 163.268019 
L 114.530043 159.924796 
L 131.617124 87.301298 
L 148.704206 96.700713 
L 165.791287 129.009801 
L 182.878368 137.726817 
L 199.96545 136.463971 
L 217.052531 154.933123 
L 234.139612 53.403868 
L 251.226694 165.723472 
L 268.313775 125.816576 
L 285.400856 119.220384 
L 302.487938 121.587249 
L 319.575019 144.472293 
L 336.6621 104.96494 
L 353.749182 122.800203 
L 370.836263 155.395304 
L 387.923344 109.657781 
L 405.010426 97.157091 
L 422.097507 134.311174 
" clip-path="url(#pae125187e0)" style="fill: none; stroke: #000000; stroke-width: 0.5; stroke-linecap: round"/>
   </g>
   <g id="line2d_32">
    <path d="M 97.442962 146.931795 
L 114.530043 149.575287 
L 131.617124 141.454021 
L 148.704206 153.551668 
L 165.791287 108.660181 
L 182.878368 147.702085 
L 199.96545 58.492988 
L 217.052531 110.311454 
L 234.139612 155.444218 
L 251.226694 183.398721 
L 268.313775 109.906518 
L 285.400856 122.466786 
L 302.487938 117.407101 
L 319.575019 143.914207 
L 336.6621 125.06117 
L 353.749182 153.083036 
L 370.836263 168.839738 
L 387.923344 107.167117 
L 405.010426 165.720199 
L 422.097507 101.456387 
" clip-path="url(#pae125187e0)" style="fill: none; stroke: #000000; stroke-width: 0.5; stroke-linecap: round"/>
   </g>
   <g id="line2d_33">
    <path d="M 97.442962 153.972742 
L 114.530043 203.220599 
L 131.617124 200.139871 
L 165.791287 219.365874 
L 182.878368 222.747321 
L 199.96545 168.234491 
L 217.052531 205.995276 
L 251.226694 209.802382 
L 268.313775 191.931993 
L 285.400856 169.573358 
L 302.487938 210.324128 
L 319.575019 204.752917 
L 336.6621 211.942013 
L 353.749182 237.606988 
L 370.836263 209.07683 
L 387.923344 188.760475 
L 405.010426 184.397712 
L 422.097507 191.84673 
" clip-path="url(#pae125187e0)" style="fill: none; stroke: #0000ff; stroke-width: 0.5; stroke-linecap: round"/>
   </g>
   <g id="line2d_34">
    <path d="M 97.442962 176.771407 
L 114.530043 195.34163 
L 131.617124 198.616389 
L 148.704206 233.095532 
L 165.791287 177.882887 
L 182.878368 171.929051 
L 199.96545 204.460405 
L 217.052531 212.237555 
L 234.139612 245.712658 
L 251.226694 166.75314 
L 268.313775 246.343294 
L 285.400856 222.964402 
L 302.487938 181.6381 
L 319.575019 212.112854 
L 336.6621 208.074479 
L 353.749182 219.652506 
L 370.836263 212.961181 
L 387.923344 206.349503 
L 405.010426 205.212751 
L 422.097507 223.856886 
" clip-path="url(#pae125187e0)" style="fill: none; stroke: #0000ff; stroke-width: 0.5; stroke-linecap: round"/>
   </g>
   <g id="line2d_35">
    <path d="M 97.442962 154.508048 
L 114.530043 182.193108 
L 131.617124 148.487943 
L 148.704206 169.87124 
L 165.791287 213.875619 
L 182.878368 206.732907 
L 199.96545 217.883754 
L 217.052531 218.419312 
L 234.139612 199.854751 
L 251.226694 175.202635 
L 268.313775 173.78793 
L 285.400856 184.021035 
L 302.487938 168.678519 
L 319.575019 178.240147 
L 336.6621 197.967122 
L 353.749182 201.761254 
L 370.836263 208.35912 
L 387.923344 222.926173 
L 405.010426 156.231564 
L 422.097507 199.294505 
" clip-path="url(#pae125187e0)" style="fill: none; stroke: #0000ff; stroke-width: 0.5; stroke-linecap: round"/>
   </g>
   <g id="line2d_36">
    <path d="M 97.442962 176.145553 
L 114.530043 179.784268 
L 131.617124 174.743289 
L 165.791287 219.583238 
L 182.878368 208.121104 
L 199.96545 190.548754 
L 217.052531 204.290248 
L 234.139612 187.618066 
L 251.226694 206.810155 
L 268.313775 194.536228 
L 285.400856 209.289388 
L 302.487938 195.923657 
L 319.575019 205.544682 
L 336.6621 214.331431 
L 353.749182 210.654922 
L 370.836263 202.493573 
L 387.923344 211.258754 
L 405.010426 199.686617 
L 422.097507 223.766515 
" clip-path="url(#pae125187e0)" style="fill: none; stroke: #0000ff; stroke-width: 0.5; stroke-linecap: round"/>
   </g>
   <g id="line2d_37">
    <path d="M 97.442962 170.86012 
L 114.530043 181.944886 
L 131.617124 140.836137 
L 165.791287 194.218157 
L 182.878368 192.27114 
L 199.96545 185.205684 
L 234.139612 200.242332 
L 251.226694 163.496706 
L 268.313775 195.068666 
L 285.400856 144.333717 
L 302.487938 206.886959 
L 319.575019 166.082596 
L 336.6621 221.494718 
L 353.749182 172.68391 
L 370.836263 186.678288 
L 387.923344 202.30115 
L 405.010426 175.320535 
L 422.097507 177.476143 
" clip-path="url(#pae125187e0)" style="fill: none; stroke: #0000ff; stroke-width: 0.5; stroke-linecap: round"/>
   </g>
   <g id="line2d_38">
    <path d="M 97.442962 166.619465 
L 114.530043 184.791468 
L 131.617124 153.282501 
L 148.704206 215.68846 
L 165.791287 239.23492 
L 182.878368 182.914378 
L 199.96545 172.280136 
L 217.052531 221.147387 
L 234.139612 221.902536 
L 251.226694 189.199632 
L 268.313775 192.849893 
L 285.400856 190.275102 
L 302.487938 180.717276 
L 319.575019 173.365229 
L 336.6621 217.29104 
L 353.749182 216.43176 
L 370.836263 172.533299 
L 387.923344 179.752188 
L 405.010426 198.581108 
L 422.097507 201.248122 
" clip-path="url(#pae125187e0)" style="fill: none; stroke: #0000ff; stroke-width: 0.5; stroke-linecap: round"/>
   </g>
   <g id="line2d_39">
    <path d="M 97.442962 141.012091 
L 114.530043 174.344193 
L 131.617124 194.749482 
L 148.704206 150.642977 
L 165.791287 198.23781 
L 182.878368 168.642503 
L 217.052531 200.306228 
L 234.139612 197.198651 
L 251.226694 162.082363 
L 268.313775 192.746544 
L 285.400856 176.923785 
L 302.487938 160.274924 
L 319.575019 165.953949 
L 336.6621 196.839481 
L 353.749182 173.832713 
L 370.836263 207.691028 
L 387.923344 178.009064 
L 405.010426 199.719733 
L 422.097507 193.583718 
" clip-path="url(#pae125187e0)" style="fill: none; stroke: #0000ff; stroke-width: 0.5; stroke-linecap: round"/>
   </g>
   <g id="line2d_40">
    <path d="M 97.442962 156.640175 
L 114.530043 196.88107 
L 131.617124 198.25622 
L 148.704206 175.192832 
L 165.791287 197.431021 
L 182.878368 151.836819 
L 199.96545 172.090693 
L 217.052531 200.932218 
L 234.139612 225.413279 
L 251.226694 206.606377 
L 285.400856 124.901545 
L 302.487938 171.467267 
L 319.575019 136.288022 
L 336.6621 193.284087 
L 353.749182 171.639146 
L 370.836263 150.918911 
L 387.923344 135.434462 
L 405.010426 211.967359 
L 422.097507 200.019737 
" clip-path="url(#pae125187e0)" style="fill: none; stroke: #0000ff; stroke-width: 0.5; stroke-linecap: round"/>
   </g>
   <g id="line2d_41">
    <path d="M 97.442962 180.238646 
L 114.530043 191.647437 
L 131.617124 191.674101 
L 148.704206 164.323177 
L 165.791287 209.347645 
L 199.96545 198.355968 
L 217.052531 219.883537 
L 234.139612 185.104374 
L 251.226694 216.47428 
L 268.313775 201.074358 
L 285.400856 202.090223 
L 302.487938 239.676654 
L 319.575019 201.955756 
L 336.6621 220.411774 
L 353.749182 202.208343 
L 370.836263 182.822495 
L 387.923344 211.762394 
L 405.010426 180.539939 
L 422.097507 190.1647 
" clip-path="url(#pae125187e0)" style="fill: none; stroke: #0000ff; stroke-width: 0.5; stroke-linecap: round"/>
   </g>
   <g id="line2d_42">
    <path d="M 97.442962 112.281013 
L 114.530043 161.39557 
L 131.617124 176.992575 
L 148.704206 185.699323 
L 165.791287 186.033108 
L 182.878368 194.761208 
L 199.96545 132.341559 
L 217.052531 228.75336 
L 234.139612 183.636904 
L 251.226694 214.385916 
L 268.313775 145.958276 
L 285.400856 203.489792 
L 302.487938 162.2156 
L 319.575019 188.884174 
L 336.6621 187.482629 
L 353.749182 200.782721 
L 370.836263 153.485967 
L 387.923344 176.027079 
L 405.010426 184.925771 
L 422.097507 182.689554 
" clip-path="url(#pae125187e0)" style="fill: none; stroke: #0000ff; stroke-width: 0.5; stroke-linecap: round"/>
   </g>
   <g id="line2d_43">
    <path d="M 97.442962 148.202791 
L 114.530043 192.297681 
L 131.617124 217.873724 
L 148.704206 180.960917 
L 165.791287 188.124703 
L 182.878368 213.778502 
L 199.96545 189.004258 
L 217.052531 192.717481 
L 234.139612 176.263206 
L 251.226694 191.419093 
L 268.313775 151.864423 
L 285.400856 203.973808 
L 302.487938 177.360256 
L 319.575019 149.232066 
L 336.6621 177.087078 
L 353.749182 194.211364 
L 370.836263 167.878292 
L 387.923344 161.418665 
L 405.010426 154.805108 
L 422.097507 193.698012 
" clip-path="url(#pae125187e0)" style="fill: none; stroke: #0000ff; stroke-width: 0.5; stroke-linecap: round"/>
   </g>
   <g id="line2d_44">
    <path d="M 97.442962 118.929002 
L 114.530043 156.052399 
L 131.617124 155.838526 
L 148.704206 201.038365 
L 165.791287 194.753712 
L 182.878368 202.890037 
L 199.96545 201.441219 
L 217.052531 202.709561 
L 234.139612 193.878013 
L 251.226694 197.824881 
L 268.313775 176.542538 
L 302.487938 170.018822 
L 319.575019 147.515815 
L 336.6621 175.839981 
L 353.749182 212.568606 
L 370.836263 221.622099 
L 387.923344 206.697838 
L 405.010426 191.973135 
L 422.097507 177.854902 
" clip-path="url(#pae125187e0)" style="fill: none; stroke: #0000ff; stroke-width: 0.5; stroke-linecap: round"/>
   </g>
   <g id="line2d_45">
    <path d="M 97.442962 113.143122 
L 114.530043 176.347086 
L 131.617124 230.231985 
L 148.704206 241.028912 
L 165.791287 226.332155 
L 182.878368 195.631794 
L 199.96545 216.113828 
L 217.052531 185.934795 
L 234.139612 227.803593 
L 251.226694 185.353555 
L 268.313775 232.218855 
L 285.400856 208.189306 
L 302.487938 212.306562 
L 319.575019 194.469372 
L 336.6621 213.829689 
L 353.749182 227.870606 
L 370.836263 166.581904 
L 387.923344 228.082477 
L 405.010426 215.254653 
L 422.097507 195.021278 
" clip-path="url(#pae125187e0)" style="fill: none; stroke: #ff0000; stroke-width: 0.5; stroke-linecap: round"/>
   </g>
   <g id="line2d_46">
    <path d="M 97.442962 148.897193 
L 114.530043 180.009799 
L 131.617124 198.150059 
L 148.704206 221.04469 
L 165.791287 208.703714 
L 182.878368 213.37371 
L 199.96545 198.205578 
L 217.052531 192.131215 
L 234.139612 234.400998 
L 251.226694 191.395543 
L 268.313775 204.09205 
L 285.400856 169.957346 
L 302.487938 187.275529 
L 319.575019 190.409993 
L 336.6621 192.97599 
L 353.749182 202.899574 
L 370.836263 182.584297 
L 387.923344 211.88767 
L 405.010426 200.952447 
L 422.097507 215.543632 
" clip-path="url(#pae125187e0)" style="fill: none; stroke: #ff0000; stroke-width: 0.5; stroke-linecap: round"/>
   </g>
   <g id="line2d_47">
    <path d="M 97.442962 132.758316 
L 114.530043 198.026561 
L 131.617124 183.219503 
L 148.704206 211.966498 
L 165.791287 224.377937 
L 182.878368 214.968968 
L 199.96545 203.971665 
L 217.052531 230.13821 
L 234.139612 217.851082 
L 251.226694 207.946575 
L 268.313775 177.781902 
L 302.487938 218.388319 
L 319.575019 222.402189 
L 336.6621 231.741858 
L 353.749182 229.305271 
L 370.836263 164.709755 
L 387.923344 206.008508 
L 405.010426 183.488232 
" clip-path="url(#pae125187e0)" style="fill: none; stroke: #ff0000; stroke-width: 0.5; stroke-linecap: round"/>
   </g>
   <g id="line2d_48">
    <path d="M 97.442962 173.306886 
L 114.530043 184.470687 
L 131.617124 177.502838 
L 148.704206 190.890129 
L 165.791287 195.67474 
L 182.878368 211.713021 
L 199.96545 246.458436 
L 217.052531 211.61542 
L 234.139612 194.550506 
L 251.226694 249.881553 
L 268.313775 212.474841 
" clip-path="url(#pae125187e0)" style="fill: none; stroke: #ff0000; stroke-width: 0.5; stroke-linecap: round"/>
   </g>
   <g id="line2d_49">
    <path d="M 97.442962 104.046365 
L 114.530043 176.921242 
L 131.617124 176.107018 
L 148.704206 190.299058 
L 165.791287 223.80206 
L 182.878368 225.233926 
L 199.96545 215.627162 
L 217.052531 172.21243 
L 234.139612 220.72362 
L 251.226694 204.277403 
L 268.313775 189.19338 
L 285.400856 171.783943 
L 302.487938 167.898704 
L 319.575019 176.380338 
L 336.6621 197.102354 
L 353.749182 204.832263 
L 370.836263 186.113542 
L 387.923344 202.514369 
L 405.010426 210.340549 
L 422.097507 215.353718 
" clip-path="url(#pae125187e0)" style="fill: none; stroke: #ff0000; stroke-width: 0.5; stroke-linecap: round"/>
   </g>
   <g id="line2d_50">
    <path d="M 97.442962 171.809908 
L 114.530043 181.689152 
L 131.617124 187.489112 
L 148.704206 244.232602 
L 165.791287 189.418523 
L 182.878368 195.529051 
L 199.96545 196.62712 
L 217.052531 223.913463 
L 234.139612 222.527553 
L 251.226694 207.120204 
L 285.400856 201.650823 
L 302.487938 193.172008 
L 319.575019 247.985374 
L 336.6621 185.882275 
L 353.749182 225.995143 
L 370.836263 205.102834 
L 387.923344 224.603457 
L 405.010426 188.369409 
" clip-path="url(#pae125187e0)" style="fill: none; stroke: #ff0000; stroke-width: 0.5; stroke-linecap: round"/>
   </g>
   <g id="line2d_51">
    <path d="M 97.442962 116.612574 
L 114.530043 196.611876 
L 131.617124 175.364176 
L 148.704206 168.057281 
L 165.791287 234.91532 
L 182.878368 234.377784 
L 217.052531 237.296487 
L 234.139612 199.452211 
L 251.226694 241.024302 
L 268.313775 141.73682 
L 285.400856 146.638365 
L 302.487938 186.702874 
L 319.575019 178.141148 
L 336.6621 244.38698 
L 353.749182 231.464921 
L 370.836263 202.923052 
L 387.923344 211.777359 
L 405.010426 216.304657 
L 422.097507 217.126272 
" clip-path="url(#pae125187e0)" style="fill: none; stroke: #ff0000; stroke-width: 0.5; stroke-linecap: round"/>
   </g>
   <g id="line2d_52">
    <path d="M 97.442962 124.793812 
L 114.530043 172.28364 
L 131.617124 170.479186 
L 148.704206 204.474369 
L 165.791287 215.776856 
L 182.878368 229.635148 
L 199.96545 225.786112 
L 234.139612 191.840769 
L 251.226694 227.798479 
L 268.313775 206.0664 
L 285.400856 176.51313 
L 302.487938 162.778779 
L 319.575019 217.543643 
L 336.6621 226.22482 
L 353.749182 192.430565 
L 370.836263 231.978015 
L 387.923344 218.603462 
L 405.010426 217.835276 
L 422.097507 229.413837 
" clip-path="url(#pae125187e0)" style="fill: none; stroke: #ff0000; stroke-width: 0.5; stroke-linecap: round"/>
   </g>
   <g id="line2d_53">
    <path d="M 97.442962 169.067389 
L 114.530043 186.104497 
L 131.617124 131.656538 
L 148.704206 216.372469 
L 165.791287 204.137154 
L 182.878368 207.954516 
L 199.96545 180.194868 
L 217.052531 224.885533 
L 234.139612 212.296825 
L 251.226694 233.270741 
L 285.400856 166.264084 
L 302.487938 204.153515 
L 319.575019 195.875569 
L 336.6621 205.091611 
L 353.749182 211.925526 
L 370.836263 227.180401 
L 387.923344 215.397837 
L 405.010426 229.775768 
L 422.097507 221.253564 
" clip-path="url(#pae125187e0)" style="fill: none; stroke: #ff0000; stroke-width: 0.5; stroke-linecap: round"/>
   </g>
   <g id="line2d_54">
    <path d="M 97.442962 155.475739 
L 114.530043 170.051913 
L 131.617124 205.829999 
L 148.704206 171.337637 
L 165.791287 173.442307 
L 182.878368 217.107673 
L 199.96545 212.38308 
L 217.052531 222.455057 
L 234.139612 199.699905 
L 251.226694 203.068732 
L 268.313775 214.540213 
L 285.400856 185.189002 
L 302.487938 173.408506 
L 319.575019 241.331893 
L 336.6621 214.951214 
L 353.749182 229.361064 
L 370.836263 185.0789 
L 387.923344 236.338205 
L 405.010426 208.469535 
L 422.097507 201.002629 
" clip-path="url(#pae125187e0)" style="fill: none; stroke: #ff0000; stroke-width: 0.5; stroke-linecap: round"/>
   </g>
   <g id="line2d_55">
    <path d="M 97.442962 149.824213 
L 114.530043 183.917045 
L 131.617124 221.170895 
L 148.704206 148.850962 
L 165.791287 219.183459 
L 182.878368 218.225109 
L 199.96545 217.671096 
L 217.052531 208.82364 
L 234.139612 190.842746 
L 251.226694 207.203601 
L 268.313775 215.400272 
L 285.400856 193.477397 
L 302.487938 217.929958 
L 319.575019 219.177177 
L 336.6621 209.93805 
L 353.749182 171.416133 
L 370.836263 173.144696 
L 387.923344 209.808232 
L 405.010426 225.169712 
L 422.097507 193.381101 
" clip-path="url(#pae125187e0)" style="fill: none; stroke: #ff0000; stroke-width: 0.5; stroke-linecap: round"/>
   </g>
   <g id="line2d_56">
    <path d="M 97.442962 179.780185 
L 114.530043 189.835147 
L 131.617124 172.350374 
L 148.704206 241.154988 
L 165.791287 263.276842 
L 182.878368 260.543624 
L 199.96545 192.445373 
L 217.052531 194.052103 
L 234.139612 213.702201 
L 268.313775 215.142074 
L 285.400856 228.616852 
L 302.487938 171.137975 
L 319.575019 227.322524 
L 336.6621 211.437483 
L 370.836263 168.123543 
L 387.923344 168.936198 
L 405.010426 223.387469 
L 422.097507 216.469579 
" clip-path="url(#pae125187e0)" style="fill: none; stroke: #ff0000; stroke-width: 0.5; stroke-linecap: round"/>
   </g>
   <g id="line2d_57"/>
   <g id="line2d_58"/>
   <g id="line2d_59"/>
   <g id="patch_3">
    <path d="M 81.210234 292.196062 
L 81.210234 26.084062 
" style="fill: none; stroke: #262626; stroke-width: 1.25; stroke-linejoin: miter; stroke-linecap: square"/>
   </g>
   <g id="patch_4">
    <path d="M 438.330234 292.196062 
L 438.330234 26.084062 
" style="fill: none; stroke: #262626; stroke-width: 1.25; stroke-linejoin: miter; stroke-linecap: square"/>
   </g>
   <g id="patch_5">
    <path d="M 81.210234 292.196062 
L 438.330234 292.196062 
" style="fill: none; stroke: #262626; stroke-width: 1.25; stroke-linejoin: miter; stroke-linecap: square"/>
   </g>
   <g id="patch_6">
    <path d="M 81.210234 26.084062 
L 438.330234 26.084062 
" style="fill: none; stroke: #262626; stroke-width: 1.25; stroke-linejoin: miter; stroke-linecap: square"/>
   </g>
   <g id="text_17">
    <text style="fill: #262626; font: 18px 'sans-serif'; text-anchor: middle" x="259.770234" y="20.084062" transform="rotate(-0 259.770234 20.084062)">Alpha Diversity</text>
   </g>
   <g id="legend_1">
    <g id="patch_7">
     <path d="M 459.486234 171.877031 
L 583.787953 171.877031 
Q 587.087953 171.877031 587.087953 168.577031 
L 587.087953 29.384062 
Q 587.087953 26.084062 583.787953 26.084062 
L 459.486234 26.084062 
Q 456.186234 26.084062 456.186234 29.384062 
L 456.186234 168.577031 
Q 456.186234 171.877031 459.486234 171.877031 
z
" style="fill: #ffffff; opacity: 0.8; stroke: #cccccc; stroke-linejoin: miter"/>
    </g>
    <g id="line2d_60">
     <path d="M 462.786234 38.920547 
L 479.286234 38.920547 
L 495.786234 38.920547 
" style="fill: none; stroke: #000000; stroke-width: 1.5; stroke-linecap: round"/>
    </g>
    <g id="text_18">
     <text style="fill: #262626; font: 16.5px 'sans-serif'; text-anchor: start" x="508.986234" y="44.695547" transform="rotate(-0 508.986234 44.695547)">RC_AIR</text>
    </g>
    <g id="line2d_61">
     <path d="M 462.786234 62.260312 
L 479.286234 62.260312 
L 495.786234 62.260312 
" style="fill: none; stroke: #0000ff; stroke-width: 1.5; stroke-linecap: round"/>
    </g>
    <g id="text_19">
     <text style="fill: #262626; font: 16.5px 'sans-serif'; text-anchor: start" x="508.986234" y="68.035312" transform="rotate(-0 508.986234 68.035312)">HFD_AIR</text>
    </g>
    <g id="line2d_62">
     <path d="M 462.786234 85.801172 
L 479.286234 85.801172 
L 495.786234 85.801172 
" style="fill: none; stroke: #ff0000; stroke-width: 1.5; stroke-linecap: round"/>
    </g>
    <g id="text_20">
     <text style="fill: #262626; font: 16.5px 'sans-serif'; text-anchor: start" x="508.986234" y="91.576172" transform="rotate(-0 508.986234 91.576172)">HFD_IHC</text>
    </g>
    <g id="line2d_63">
     <path d="M 462.786234 109.342031 
L 479.286234 109.342031 
L 495.786234 109.342031 
" style="fill: none; stroke: #000000; stroke-width: 1.5; stroke-linecap: round"/>
    </g>
    <g id="text_21">
     <text style="fill: #262626; font: 16.5px 'sans-serif'; text-anchor: start" x="508.986234" y="115.117031" transform="rotate(-0 508.986234 115.117031)">RC_AIR</text>
    </g>
    <g id="line2d_64">
     <path d="M 462.786234 132.681797 
L 479.286234 132.681797 
L 495.786234 132.681797 
" style="fill: none; stroke: #0000ff; stroke-width: 1.5; stroke-linecap: round"/>
    </g>
    <g id="text_22">
     <text style="fill: #262626; font: 16.5px 'sans-serif'; text-anchor: start" x="508.986234" y="138.456797" transform="rotate(-0 508.986234 138.456797)">HFD_AIR</text>
    </g>
    <g id="line2d_65">
     <path d="M 462.786234 156.222656 
L 479.286234 156.222656 
L 495.786234 156.222656 
" style="fill: none; stroke: #ff0000; stroke-width: 1.5; stroke-linecap: round"/>
    </g>
    <g id="text_23">
     <text style="fill: #262626; font: 16.5px 'sans-serif'; text-anchor: start" x="508.986234" y="161.997656" transform="rotate(-0 508.986234 161.997656)">HFD_IHC</text>
    </g>
   </g>
  </g>
 </g>
 <defs>
  <clipPath id="pae125187e0">
   <rect x="81.210234" y="26.084062" width="357.12" height="266.112"/>
  </clipPath>
 </defs>
</svg>
