<?xml version="1.0" encoding="utf-8" standalone="no"?>
<!DOCTYPE svg PUBLIC "-//W3C//DTD SVG 1.1//EN"
  "http://www.w3.org/Graphics/SVG/1.1/DTD/svg11.dtd">
<svg xmlns:xlink="http://www.w3.org/1999/xlink" width="581.36475pt" height="343.000828pt" viewBox="0 0 581.36475 343.000828" xmlns="http://www.w3.org/2000/svg" version="1.1">
 <metadata>
  <rdf:RDF xmlns:dc="http://purl.org/dc/elements/1.1/" xmlns:cc="http://creativecommons.org/ns#" xmlns:rdf="http://www.w3.org/1999/02/22-rdf-syntax-ns#">
   <cc:Work>
    <dc:type rdf:resource="http://purl.org/dc/dcmitype/StillImage"/>
    <dc:date>2024-08-19T12:27:47.461852</dc:date>
    <dc:format>image/svg+xml</dc:format>
    <dc:creator>
     <cc:Agent>
      <dc:title>Matplotlib v3.7.3, https://matplotlib.org/</dc:title>
     </cc:Agent>
    </dc:creator>
   </cc:Work>
  </rdf:RDF>
 </metadata>
 <defs>
  <style type="text/css">*{stroke-linejoin: round; stroke-linecap: butt}</style>
 </defs>
 <g id="figure_1">
  <g id="patch_1">
   <path d="M 0 343.000828 
L 581.36475 343.000828 
L 581.36475 0 
L 0 0 
z
" style="fill: #ffffff"/>
  </g>
  <g id="axes_1">
   <g id="patch_2">
    <path d="M 68.287031 292.196062 
L 425.407031 292.196062 
L 425.407031 26.084062 
L 68.287031 26.084062 
z
" style="fill: #ffffff"/>
   </g>
   <g id="matplotlib.axis_1">
    <g id="xtick_1">
     <g id="line2d_1">
      <defs>
       <path id="m2c83519b26" d="M 0 0 
L 0 6 
" style="stroke: #262626; stroke-width: 1.25"/>
      </defs>
      <g>
       <use xlink:href="#m2c83519b26" x="84.519759" y="292.196062" style="fill: #262626; stroke: #262626; stroke-width: 1.25"/>
      </g>
     </g>
     <g id="text_1">
      <text style="fill: #262626; font: 16.5px 'Arial', sans-serif; text-anchor: middle" x="84.519759" y="313.506453" transform="rotate(-0 84.519759 313.506453)">10</text>
     </g>
    </g>
    <g id="xtick_2">
     <g id="line2d_2">
      <g>
       <use xlink:href="#m2c83519b26" x="152.868084" y="292.196062" style="fill: #262626; stroke: #262626; stroke-width: 1.25"/>
      </g>
     </g>
     <g id="text_2">
      <text style="fill: #262626; font: 16.5px 'Arial', sans-serif; text-anchor: middle" x="152.868084" y="313.506453" transform="rotate(-0 152.868084 313.506453)">12</text>
     </g>
    </g>
    <g id="xtick_3">
     <g id="line2d_3">
      <g>
       <use xlink:href="#m2c83519b26" x="221.216409" y="292.196062" style="fill: #262626; stroke: #262626; stroke-width: 1.25"/>
      </g>
     </g>
     <g id="text_3">
      <text style="fill: #262626; font: 16.5px 'Arial', sans-serif; text-anchor: middle" x="221.216409" y="313.506453" transform="rotate(-0 221.216409 313.506453)">14</text>
     </g>
    </g>
    <g id="xtick_4">
     <g id="line2d_4">
      <g>
       <use xlink:href="#m2c83519b26" x="289.564735" y="292.196062" style="fill: #262626; stroke: #262626; stroke-width: 1.25"/>
      </g>
     </g>
     <g id="text_4">
      <text style="fill: #262626; font: 16.5px 'Arial', sans-serif; text-anchor: middle" x="289.564735" y="313.506453" transform="rotate(-0 289.564735 313.506453)">16</text>
     </g>
    </g>
    <g id="xtick_5">
     <g id="line2d_5">
      <g>
       <use xlink:href="#m2c83519b26" x="357.91306" y="292.196062" style="fill: #262626; stroke: #262626; stroke-width: 1.25"/>
      </g>
     </g>
     <g id="text_5">
      <text style="fill: #262626; font: 16.5px 'Arial', sans-serif; text-anchor: middle" x="357.91306" y="313.506453" transform="rotate(-0 357.91306 313.506453)">18</text>
     </g>
    </g>
    <g id="text_6">
     <text style="fill: #262626; font: 16px 'Arial', sans-serif; text-anchor: middle" x="246.847031" y="332.433328" transform="rotate(-0 246.847031 332.433328)">Host Age (weeks)</text>
    </g>
   </g>
   <g id="matplotlib.axis_2">
    <g id="ytick_1">
     <g id="line2d_6">
      <defs>
       <path id="m88cec6f0bc" d="M 0 0 
L -6 0 
" style="stroke: #262626; stroke-width: 1.25"/>
      </defs>
      <g>
       <use xlink:href="#m88cec6f0bc" x="68.287031" y="263.586009" style="fill: #262626; stroke: #262626; stroke-width: 1.25"/>
      </g>
     </g>
     <g id="text_7">
      <text style="fill: #262626; font: 16.5px 'Arial', sans-serif; text-anchor: end" x="58.787031" y="269.491204" transform="rotate(-0 58.787031 269.491204)">−5.0</text>
     </g>
    </g>
    <g id="ytick_2">
     <g id="line2d_7">
      <g>
       <use xlink:href="#m88cec6f0bc" x="68.287031" y="224.311958" style="fill: #262626; stroke: #262626; stroke-width: 1.25"/>
      </g>
     </g>
     <g id="text_8">
      <text style="fill: #262626; font: 16.5px 'Arial', sans-serif; text-anchor: end" x="58.787031" y="230.217153" transform="rotate(-0 58.787031 230.217153)">−2.5</text>
     </g>
    </g>
    <g id="ytick_3">
     <g id="line2d_8">
      <g>
       <use xlink:href="#m88cec6f0bc" x="68.287031" y="185.037907" style="fill: #262626; stroke: #262626; stroke-width: 1.25"/>
      </g>
     </g>
     <g id="text_9">
      <text style="fill: #262626; font: 16.5px 'Arial', sans-serif; text-anchor: end" x="58.787031" y="190.943102" transform="rotate(-0 58.787031 190.943102)">0.0</text>
     </g>
    </g>
    <g id="ytick_4">
     <g id="line2d_9">
      <g>
       <use xlink:href="#m88cec6f0bc" x="68.287031" y="145.763856" style="fill: #262626; stroke: #262626; stroke-width: 1.25"/>
      </g>
     </g>
     <g id="text_10">
      <text style="fill: #262626; font: 16.5px 'Arial', sans-serif; text-anchor: end" x="58.787031" y="151.669051" transform="rotate(-0 58.787031 151.669051)">2.5</text>
     </g>
    </g>
    <g id="ytick_5">
     <g id="line2d_10">
      <g>
       <use xlink:href="#m88cec6f0bc" x="68.287031" y="106.489805" style="fill: #262626; stroke: #262626; stroke-width: 1.25"/>
      </g>
     </g>
     <g id="text_11">
      <text style="fill: #262626; font: 16.5px 'Arial', sans-serif; text-anchor: end" x="58.787031" y="112.395" transform="rotate(-0 58.787031 112.395)">5.0</text>
     </g>
    </g>
    <g id="ytick_6">
     <g id="line2d_11">
      <g>
       <use xlink:href="#m88cec6f0bc" x="68.287031" y="67.215754" style="fill: #262626; stroke: #262626; stroke-width: 1.25"/>
      </g>
     </g>
     <g id="text_12">
      <text style="fill: #262626; font: 16.5px 'Arial', sans-serif; text-anchor: end" x="58.787031" y="73.120949" transform="rotate(-0 58.787031 73.120949)">7.5</text>
     </g>
    </g>
    <g id="ytick_7">
     <g id="line2d_12">
      <g>
       <use xlink:href="#m88cec6f0bc" x="68.287031" y="27.941703" style="fill: #262626; stroke: #262626; stroke-width: 1.25"/>
      </g>
     </g>
     <g id="text_13">
      <text style="fill: #262626; font: 16.5px 'Arial', sans-serif; text-anchor: end" x="58.787031" y="33.846899" transform="rotate(-0 58.787031 33.846899)">10.0</text>
     </g>
    </g>
    <g id="text_14">
     <text style="fill: #262626; font: 16px 'Arial', sans-serif; text-anchor: middle" x="18.8475" y="159.140062" transform="rotate(-90 18.8475 159.140062)">Ln (Top/Bot 10 Microbes) from Axis 2</text>
    </g>
   </g>
   <g id="line2d_13">
    <path d="M 84.519759 227.24083 
L 101.60684 222.76546 
L 118.693921 229.810815 
L 135.781003 223.736739 
L 152.868084 219.903109 
L 169.955165 204.749701 
L 187.042247 193.157946 
L 204.129328 180.064331 
L 221.216409 182.415908 
L 238.303491 161.240932 
L 255.390572 176.89649 
L 272.477653 174.58196 
L 289.564735 186.563331 
L 306.651816 174.08753 
L 323.738897 179.589324 
L 340.825979 178.795741 
L 357.91306 166.67763 
L 375.000141 165.953115 
L 392.087223 158.329975 
L 409.174304 160.524069 
" clip-path="url(#pdfec046eb7)" style="fill: none; stroke: #000000; stroke-width: 5; stroke-linecap: round"/>
   </g>
   <g id="line2d_14">
    <path d="M 84.519759 219.946664 
L 101.60684 139.86054 
L 118.693921 104.66257 
L 135.781003 97.036691 
L 152.868084 101.668551 
L 169.955165 101.371723 
L 187.042247 96.415455 
L 204.129328 88.868061 
L 221.216409 83.299307 
L 238.303491 97.274842 
L 255.390572 96.515312 
L 272.477653 103.510672 
L 289.564735 88.83892 
L 306.651816 99.71881 
L 323.738897 86.117274 
L 340.825979 85.703069 
L 357.91306 91.433318 
L 375.000141 85.33801 
L 392.087223 81.143109 
L 409.174304 87.739137 
" clip-path="url(#pdfec046eb7)" style="fill: none; stroke: #0000ff; stroke-width: 5; stroke-linecap: round"/>
   </g>
   <g id="line2d_15">
    <path d="M 84.519759 231.012831 
L 101.60684 146.613194 
L 118.693921 112.296875 
L 135.781003 103.965042 
L 152.868084 102.812582 
L 169.955165 105.284604 
L 187.042247 104.213483 
L 204.129328 105.322067 
L 221.216409 100.917734 
L 238.303491 95.072164 
L 255.390572 97.679708 
L 272.477653 102.061854 
L 289.564735 88.466852 
L 306.651816 87.616007 
L 323.738897 88.025552 
L 340.825979 97.562222 
L 357.91306 90.222553 
L 375.000141 94.429725 
L 392.087223 82.345299 
L 409.174304 87.224628 
" clip-path="url(#pdfec046eb7)" style="fill: none; stroke: #ff0000; stroke-width: 5; stroke-linecap: round"/>
   </g>
   <g id="line2d_16"/>
   <g id="line2d_17"/>
   <g id="line2d_18"/>
   <g id="line2d_19">
    <path d="M 84.519759 250.533046 
L 101.60684 231.542136 
L 118.693921 203.238453 
L 135.781003 243.750045 
L 152.868084 212.978114 
L 169.955165 226.958371 
L 187.042247 183.306089 
L 204.129328 197.648166 
L 221.216409 158.234309 
L 238.303491 170.145303 
L 255.390572 147.921583 
L 272.477653 187.507233 
L 289.564735 201.305217 
L 306.651816 181.811623 
L 323.738897 192.870025 
L 340.825979 174.445244 
L 357.91306 183.068632 
L 375.000141 166.248999 
L 392.087223 166.924416 
L 409.174304 171.878639 
" clip-path="url(#pdfec046eb7)" style="fill: none; stroke: #000000; stroke-width: 0.5; stroke-linecap: round"/>
   </g>
   <g id="line2d_20">
    <path d="M 84.519759 231.407558 
L 101.60684 241.591592 
L 118.693921 212.78141 
L 135.781003 253.192201 
L 152.868084 209.961787 
L 169.955165 223.741148 
L 187.042247 202.453395 
L 204.129328 191.815118 
L 221.216409 185.577068 
L 238.303491 135.739002 
L 255.390572 159.933533 
L 272.477653 159.6989 
L 289.564735 194.748212 
L 306.651816 189.062391 
L 323.738897 166.270771 
L 340.825979 150.360039 
L 357.91306 167.803164 
L 375.000141 175.56939 
L 392.087223 156.22808 
L 409.174304 175.818801 
" clip-path="url(#pdfec046eb7)" style="fill: none; stroke: #000000; stroke-width: 0.5; stroke-linecap: round"/>
   </g>
   <g id="line2d_21">
    <path d="M 84.519759 222.147054 
L 101.60684 247.308886 
L 135.781003 225.537936 
L 152.868084 228.179248 
L 169.955165 236.283534 
L 187.042247 256.372729 
L 204.129328 208.563377 
L 221.216409 119.334691 
L 238.303491 140.121982 
L 255.390572 180.379594 
L 272.477653 200.834274 
L 289.564735 192.752485 
L 306.651816 209.974103 
L 323.738897 167.461254 
L 340.825979 154.818949 
L 357.91306 147.984025 
L 375.000141 141.203537 
L 392.087223 131.682279 
L 409.174304 168.484354 
" clip-path="url(#pdfec046eb7)" style="fill: none; stroke: #000000; stroke-width: 0.5; stroke-linecap: round"/>
   </g>
   <g id="line2d_22">
    <path d="M 84.519759 195.280361 
L 101.60684 206.757734 
L 118.693921 239.670994 
L 135.781003 224.006692 
L 152.868084 205.780801 
L 169.955165 203.795857 
L 187.042247 205.949278 
L 204.129328 179.463798 
L 221.216409 179.186409 
L 238.303491 145.936451 
L 255.390572 174.954626 
L 272.477653 167.779125 
L 289.564735 189.078328 
L 306.651816 177.970953 
L 323.738897 165.612295 
L 340.825979 172.718694 
L 357.91306 165.795913 
L 375.000141 151.566522 
L 392.087223 156.472602 
L 409.174304 152.592158 
" clip-path="url(#pdfec046eb7)" style="fill: none; stroke: #000000; stroke-width: 0.5; stroke-linecap: round"/>
   </g>
   <g id="line2d_23">
    <path d="M 84.519759 245.668649 
L 101.60684 196.659078 
L 118.693921 232.739132 
L 135.781003 225.862537 
L 152.868084 221.041742 
L 169.955165 142.441894 
L 187.042247 198.327776 
L 204.129328 166.331939 
L 221.216409 201.988526 
L 238.303491 193.914118 
L 272.477653 161.070732 
L 289.564735 168.62889 
L 306.651816 165.667987 
L 323.738897 206.383266 
L 340.825979 165.999764 
L 357.91306 177.139849 
L 375.000141 175.184333 
L 392.087223 150.857244 
L 409.174304 162.397574 
" clip-path="url(#pdfec046eb7)" style="fill: none; stroke: #000000; stroke-width: 0.5; stroke-linecap: round"/>
   </g>
   <g id="line2d_24">
    <path d="M 84.519759 242.524427 
L 101.60684 233.796681 
L 118.693921 256.419697 
L 135.781003 194.073784 
L 152.868084 220.463227 
L 169.955165 171.609349 
L 187.042247 180.725741 
L 204.129328 160.448181 
L 221.216409 188.515454 
L 238.303491 146.255861 
L 255.390572 185.602491 
L 272.477653 184.644832 
L 289.564735 191.733981 
L 306.651816 170.907595 
L 323.738897 197.324068 
L 340.825979 230.004892 
L 357.91306 185.037907 
L 375.000141 191.21499 
L 392.087223 187.345379 
L 409.174304 190.131416 
" clip-path="url(#pdfec046eb7)" style="fill: none; stroke: #000000; stroke-width: 0.5; stroke-linecap: round"/>
   </g>
   <g id="line2d_25">
    <path d="M 84.519759 199.662551 
L 101.60684 199.490175 
L 118.693921 219.148933 
L 135.781003 212.404535 
L 152.868084 177.389942 
L 169.955165 196.281798 
L 187.042247 157.768783 
L 204.129328 181.433818 
L 221.216409 199.242665 
L 238.303491 164.688305 
L 255.390572 154.593094 
L 272.477653 168.388711 
L 306.651816 172.234443 
L 323.738897 202.124555 
L 340.825979 200.95739 
L 357.91306 135.961727 
L 375.000141 172.541776 
L 392.087223 198.139197 
L 409.174304 168.090855 
" clip-path="url(#pdfec046eb7)" style="fill: none; stroke: #000000; stroke-width: 0.5; stroke-linecap: round"/>
   </g>
   <g id="line2d_26">
    <path d="M 84.519759 233.793766 
L 101.60684 165.556363 
L 118.693921 248.223921 
L 135.781003 205.704657 
L 152.868084 194.286152 
L 169.955165 185.809328 
L 187.042247 158.93175 
L 204.129328 181.185456 
L 221.216409 188.323452 
L 238.303491 190.570826 
L 255.390572 168.747194 
L 272.477653 164.203178 
L 289.564735 184.124242 
L 306.651816 176.580105 
L 323.738897 208.237825 
L 340.825979 205.992355 
L 357.91306 212.81319 
L 375.000141 186.723335 
L 392.087223 135.556686 
L 409.174304 152.820681 
" clip-path="url(#pdfec046eb7)" style="fill: none; stroke: #000000; stroke-width: 0.5; stroke-linecap: round"/>
   </g>
   <g id="line2d_27">
    <path d="M 84.519759 236.898241 
L 101.60684 260.928332 
L 118.693921 202.367773 
L 135.781003 185.547453 
L 152.868084 224.011079 
L 169.955165 216.28714 
L 187.042247 160.935508 
L 204.129328 166.168644 
L 221.216409 211.498237 
L 238.303491 156.333895 
L 255.390572 195.106328 
L 272.477653 171.363824 
L 289.564735 168.291242 
L 306.651816 143.797373 
L 323.738897 150.920207 
L 340.825979 175.017188 
L 357.91306 155.641976 
L 375.000141 151.358626 
L 392.087223 163.434603 
L 409.174304 137.316321 
" clip-path="url(#pdfec046eb7)" style="fill: none; stroke: #000000; stroke-width: 0.5; stroke-linecap: round"/>
   </g>
   <g id="line2d_28">
    <path d="M 84.519759 228.354864 
L 101.60684 253.075983 
L 118.693921 278.246372 
L 135.781003 280.100062 
L 152.868084 243.854267 
L 169.955165 212.580608 
L 187.042247 177.270307 
L 204.129328 158.442876 
L 221.216409 168.013601 
L 238.303491 182.770344 
L 255.390572 188.109012 
L 272.477653 139.477998 
L 289.564735 163.774864 
L 306.651816 206.961622 
L 323.738897 136.799419 
L 340.825979 173.115899 
L 357.91306 139.84279 
L 375.000141 151.546097 
L 392.087223 148.37373 
L 409.174304 160.39942 
" clip-path="url(#pdfec046eb7)" style="fill: none; stroke: #000000; stroke-width: 0.5; stroke-linecap: round"/>
   </g>
   <g id="line2d_29">
    <path d="M 84.519759 228.115324 
L 101.60684 215.577663 
L 118.693921 201.391357 
L 135.781003 227.183706 
L 152.868084 248.105428 
L 169.955165 245.077323 
L 187.042247 207.648168 
L 204.129328 206.891994 
L 221.216409 235.473532 
L 238.303491 162.493274 
L 255.390572 188.707907 
L 272.477653 196.041888 
L 289.564735 178.226893 
L 306.651816 137.691913 
L 323.738897 180.234118 
L 340.825979 159.563441 
L 357.91306 155.416847 
L 375.000141 162.522505 
L 392.087223 176.475229 
L 409.174304 148.70644 
" clip-path="url(#pdfec046eb7)" style="fill: none; stroke: #000000; stroke-width: 0.5; stroke-linecap: round"/>
   </g>
   <g id="line2d_30">
    <path d="M 84.519759 212.504116 
L 101.60684 220.900899 
L 118.693921 233.690926 
L 135.781003 207.477254 
L 152.868084 252.785527 
L 169.955165 196.130068 
L 187.042247 228.205824 
L 204.129328 162.378604 
L 221.216409 153.602955 
L 238.303491 145.921825 
L 255.390572 201.80603 
L 272.477653 193.972831 
L 289.564735 219.532283 
L 306.651816 156.390255 
L 323.738897 180.834086 
L 340.825979 182.55504 
L 357.91306 173.625541 
L 375.000141 165.757271 
L 392.087223 128.470257 
L 409.174304 137.652169 
" clip-path="url(#pdfec046eb7)" style="fill: none; stroke: #000000; stroke-width: 0.5; stroke-linecap: round"/>
   </g>
   <g id="line2d_31">
    <path d="M 84.519759 234.137131 
L 101.60684 121.42376 
L 118.693921 103.656701 
L 152.868084 104.411223 
L 169.955165 85.164292 
L 187.042247 68.371199 
L 204.129328 82.601424 
L 238.303491 72.964003 
L 255.390572 114.909104 
L 272.477653 103.724836 
L 289.564735 81.11351 
L 306.651816 107.390087 
L 323.738897 86.416781 
L 340.825979 61.683652 
L 357.91306 92.41156 
L 375.000141 91.650127 
L 392.087223 78.086749 
L 409.174304 113.509738 
" clip-path="url(#pdfec046eb7)" style="fill: none; stroke: #0000ff; stroke-width: 0.5; stroke-linecap: round"/>
   </g>
   <g id="line2d_32">
    <path d="M 84.519759 218.941736 
L 101.60684 147.851294 
L 118.693921 113.714135 
L 135.781003 103.912305 
L 152.868084 73.978807 
L 169.955165 113.440187 
L 187.042247 85.582285 
L 204.129328 96.018683 
L 221.216409 75.550064 
L 238.303491 87.971176 
M 272.477653 92.683884 
L 289.564735 90.154305 
L 306.651816 116.047075 
L 323.738897 93.852364 
L 340.825979 81.141671 
L 357.91306 91.984105 
L 375.000141 107.256161 
L 392.087223 113.853248 
L 409.174304 87.308942 
" clip-path="url(#pdfec046eb7)" style="fill: none; stroke: #0000ff; stroke-width: 0.5; stroke-linecap: round"/>
   </g>
   <g id="line2d_33">
    <path d="M 84.519759 222.07853 
L 101.60684 131.202186 
L 118.693921 108.423352 
L 135.781003 81.088521 
L 152.868084 95.957204 
L 169.955165 86.181053 
L 187.042247 90.417116 
L 204.129328 76.895958 
L 221.216409 98.497769 
L 238.303491 145.724083 
L 255.390572 124.721569 
L 272.477653 112.529153 
L 289.564735 113.919301 
L 306.651816 96.459065 
L 323.738897 116.863423 
L 340.825979 86.180362 
L 357.91306 90.36246 
L 375.000141 74.561516 
L 392.087223 105.023451 
L 409.174304 90.109057 
" clip-path="url(#pdfec046eb7)" style="fill: none; stroke: #0000ff; stroke-width: 0.5; stroke-linecap: round"/>
   </g>
   <g id="line2d_34">
    <path d="M 84.519759 209.633443 
L 101.60684 147.930339 
L 118.693921 102.59788 
L 152.868084 98.736539 
L 169.955165 90.202561 
L 187.042247 112.684953 
L 204.129328 95.876203 
L 221.216409 78.734557 
L 238.303491 125.578358 
L 255.390572 116.595665 
L 272.477653 109.511917 
L 289.564735 107.09706 
L 306.651816 117.232768 
L 323.738897 82.096294 
L 340.825979 96.463566 
L 357.91306 99.573631 
L 375.000141 71.429557 
L 392.087223 94.25338 
L 409.174304 84.276319 
" clip-path="url(#pdfec046eb7)" style="fill: none; stroke: #0000ff; stroke-width: 0.5; stroke-linecap: round"/>
   </g>
   <g id="line2d_35">
    <path d="M 84.519759 180.932419 
L 101.60684 130.614529 
L 118.693921 118.634383 
L 152.868084 112.26384 
L 169.955165 115.598998 
L 187.042247 101.417223 
L 221.216409 108.542926 
L 238.303491 111.660332 
L 255.390572 98.597908 
L 272.477653 135.028406 
L 289.564735 129.338626 
L 306.651816 110.79412 
L 323.738897 82.983938 
L 340.825979 131.280714 
L 357.91306 103.84787 
L 375.000141 101.589169 
L 392.087223 74.599701 
L 409.174304 78.202662 
" clip-path="url(#pdfec046eb7)" style="fill: none; stroke: #0000ff; stroke-width: 0.5; stroke-linecap: round"/>
   </g>
   <g id="line2d_36">
    <path d="M 84.519759 237.771183 
L 101.60684 138.880565 
L 118.693921 100.488014 
L 135.781003 102.213485 
L 152.868084 93.311068 
L 169.955165 103.140713 
L 187.042247 100.965793 
L 204.129328 97.166107 
L 221.216409 75.554131 
L 238.303491 70.339647 
L 255.390572 75.312743 
L 272.477653 87.991995 
L 289.564735 69.713903 
L 306.651816 87.673433 
L 323.738897 64.062971 
L 340.825979 66.322108 
L 357.91306 59.114969 
L 375.000141 64.389618 
L 392.087223 65.352929 
L 409.174304 69.438471 
" clip-path="url(#pdfec046eb7)" style="fill: none; stroke: #0000ff; stroke-width: 0.5; stroke-linecap: round"/>
   </g>
   <g id="line2d_37">
    <path d="M 84.519759 221.689243 
L 101.60684 148.010282 
L 118.693921 116.543775 
L 135.781003 96.150891 
L 152.868084 101.569458 
L 169.955165 109.198718 
L 204.129328 107.91366 
L 221.216409 73.941729 
L 238.303491 92.218659 
L 255.390572 100.957595 
L 272.477653 113.331931 
L 289.564735 48.917058 
M 392.087223 52.303064 
L 409.174304 68.821174 
" clip-path="url(#pdfec046eb7)" style="fill: none; stroke: #0000ff; stroke-width: 0.5; stroke-linecap: round"/>
   </g>
   <g id="line2d_38">
    <path d="M 84.519759 246.494303 
L 101.60684 129.961198 
L 118.693921 81.669462 
L 135.781003 96.498166 
L 152.868084 105.259837 
L 169.955165 97.737916 
L 187.042247 95.987311 
L 204.129328 100.854043 
L 221.216409 76.61248 
L 238.303491 124.422651 
L 272.477653 125.573934 
L 289.564735 105.926305 
L 306.651816 132.89353 
L 323.738897 139.638057 
L 340.825979 122.601512 
L 357.91306 103.067163 
L 375.000141 113.978377 
L 392.087223 103.083189 
L 409.174304 126.014384 
" clip-path="url(#pdfec046eb7)" style="fill: none; stroke: #0000ff; stroke-width: 0.5; stroke-linecap: round"/>
   </g>
   <g id="line2d_39">
    <path d="M 84.519759 207.465674 
L 101.60684 139.849848 
L 118.693921 62.7877 
L 135.781003 90.47472 
L 152.868084 91.687033 
L 187.042247 76.960991 
M 221.216409 62.016154 
L 238.303491 49.078724 
M 272.477653 48.022284 
L 289.564735 50.07873 
L 306.651816 49.558413 
L 323.738897 38.180062 
L 340.825979 61.369116 
L 357.91306 88.570183 
M 392.087223 41.632109 
L 409.174304 78.813135 
" clip-path="url(#pdfec046eb7)" style="fill: none; stroke: #0000ff; stroke-width: 0.5; stroke-linecap: round"/>
   </g>
   <g id="line2d_40">
    <path d="M 84.519759 213.543374 
L 101.60684 149.79329 
L 118.693921 124.379619 
L 135.781003 102.363042 
L 152.868084 112.65823 
L 169.955165 123.251571 
L 187.042247 101.812781 
L 204.129328 80.421968 
L 221.216409 113.418888 
L 238.303491 99.660064 
L 255.390572 105.820287 
L 272.477653 107.264622 
L 289.564735 117.372901 
L 306.651816 99.086021 
L 323.738897 102.528794 
L 340.825979 109.123192 
L 357.91306 112.48102 
L 375.000141 104.728093 
L 392.087223 111.638719 
L 409.174304 103.948785 
" clip-path="url(#pdfec046eb7)" style="fill: none; stroke: #0000ff; stroke-width: 0.5; stroke-linecap: round"/>
   </g>
   <g id="line2d_41">
    <path d="M 84.519759 228.574832 
L 101.60684 136.254531 
L 118.693921 101.748805 
L 135.781003 103.060262 
L 152.868084 133.283125 
L 169.955165 97.176965 
L 187.042247 114.160212 
L 204.129328 75.165875 
L 221.216409 68.378994 
L 238.303491 100.466271 
L 255.390572 64.844204 
L 272.477653 102.954431 
L 289.564735 78.572601 
L 306.651816 85.652486 
L 323.738897 78.94789 
L 340.825979 52.020901 
M 375.000141 62.103136 
L 392.087223 80.0108 
L 409.174304 74.488875 
" clip-path="url(#pdfec046eb7)" style="fill: none; stroke: #0000ff; stroke-width: 0.5; stroke-linecap: round"/>
   </g>
   <g id="line2d_42">
    <path d="M 84.519759 218.098096 
L 101.60684 156.554659 
L 118.693921 121.307015 
L 135.781003 97.568825 
L 152.868084 96.906246 
L 169.955165 93.995982 
L 187.042247 112.210141 
L 204.129328 75.76669 
L 221.216409 85.044682 
L 238.303491 87.214137 
L 255.390572 66.878731 
L 289.564735 73.862744 
L 306.651816 94.119916 
L 323.738897 61.719434 
L 340.825979 74.546961 
L 357.91306 72.920217 
L 375.000141 61.694347 
L 392.087223 53.879969 
L 409.174304 77.938107 
" clip-path="url(#pdfec046eb7)" style="fill: none; stroke: #0000ff; stroke-width: 0.5; stroke-linecap: round"/>
   </g>
   <g id="line2d_43">
    <path d="M 84.519759 226.209816 
L 101.60684 152.519522 
L 118.693921 104.72211 
L 135.781003 109.500811 
L 152.868084 106.07495 
L 169.955165 98.013185 
L 187.042247 128.300874 
L 204.129328 130.968155 
L 221.216409 103.083653 
L 238.303491 99.364881 
L 255.390572 88.336309 
L 272.477653 114.783748 
L 289.564735 73.111896 
L 306.651816 81.71229 
L 323.738897 85.929859 
L 340.825979 90.051186 
L 357.91306 85.196099 
L 375.000141 59.182559 
L 392.087223 77.843417 
L 409.174304 90.610517 
" clip-path="url(#pdfec046eb7)" style="fill: none; stroke: #ff0000; stroke-width: 0.5; stroke-linecap: round"/>
   </g>
   <g id="line2d_44">
    <path d="M 84.519759 227.743881 
L 101.60684 138.071996 
L 118.693921 110.470688 
L 135.781003 93.161596 
L 152.868084 130.562577 
L 169.955165 113.313705 
L 187.042247 116.074553 
L 204.129328 101.427056 
L 221.216409 94.217696 
L 238.303491 107.133121 
L 255.390572 107.659071 
L 272.477653 92.472772 
L 289.564735 86.413692 
L 306.651816 123.16693 
L 323.738897 95.686839 
L 340.825979 124.64075 
L 357.91306 103.216426 
L 375.000141 130.019665 
L 392.087223 96.711953 
L 409.174304 106.42781 
" clip-path="url(#pdfec046eb7)" style="fill: none; stroke: #ff0000; stroke-width: 0.5; stroke-linecap: round"/>
   </g>
   <g id="line2d_45">
    <path d="M 84.519759 226.809587 
L 101.60684 143.296522 
L 118.693921 126.784478 
L 135.781003 124.405693 
L 152.868084 88.541037 
L 169.955165 106.498257 
L 187.042247 127.630954 
L 204.129328 117.918912 
L 221.216409 98.812837 
L 238.303491 116.309148 
L 255.390572 116.167571 
L 289.564735 86.687676 
L 306.651816 96.190527 
L 323.738897 83.984923 
L 340.825979 101.365106 
L 357.91306 112.438486 
L 375.000141 105.562577 
L 392.087223 74.711315 
" clip-path="url(#pdfec046eb7)" style="fill: none; stroke: #ff0000; stroke-width: 0.5; stroke-linecap: round"/>
   </g>
   <g id="line2d_46">
    <path d="M 84.519759 186.614616 
L 101.60684 147.351476 
L 118.693921 123.800019 
L 135.781003 108.25462 
L 152.868084 105.731306 
L 169.955165 106.658263 
L 187.042247 73.048583 
L 204.129328 92.883057 
L 221.216409 107.508435 
L 238.303491 82.345711 
L 255.390572 90.636085 
" clip-path="url(#pdfec046eb7)" style="fill: none; stroke: #ff0000; stroke-width: 0.5; stroke-linecap: round"/>
   </g>
   <g id="line2d_47">
    <path d="M 84.519759 219.624448 
L 101.60684 136.685118 
L 118.693921 103.03582 
L 135.781003 88.191581 
L 152.868084 94.616661 
L 169.955165 111.725487 
L 187.042247 102.292123 
L 204.129328 103.572396 
L 221.216409 87.46543 
L 238.303491 104.507858 
L 255.390572 96.240979 
L 272.477653 95.736005 
L 289.564735 114.146866 
L 306.651816 119.651949 
L 323.738897 121.282102 
L 340.825979 111.477809 
L 357.91306 101.323115 
L 375.000141 115.596223 
L 392.087223 99.888954 
L 409.174304 92.610802 
" clip-path="url(#pdfec046eb7)" style="fill: none; stroke: #ff0000; stroke-width: 0.5; stroke-linecap: round"/>
   </g>
   <g id="line2d_48">
    <path d="M 84.519759 231.823301 
L 101.60684 141.247788 
L 118.693921 105.79364 
L 135.781003 84.615799 
L 152.868084 108.999538 
L 169.955165 99.818831 
L 187.042247 106.059772 
L 204.129328 93.706176 
L 221.216409 76.225296 
L 238.303491 99.221446 
L 272.477653 89.006924 
L 289.564735 68.107927 
L 306.651816 62.558335 
L 323.738897 80.551717 
L 340.825979 82.077206 
L 357.91306 98.455739 
L 375.000141 77.940973 
L 392.087223 76.01776 
" clip-path="url(#pdfec046eb7)" style="fill: none; stroke: #ff0000; stroke-width: 0.5; stroke-linecap: round"/>
   </g>
   <g id="line2d_49">
    <path d="M 84.519759 275.142257 
L 101.60684 143.079913 
L 118.693921 111.787392 
L 135.781003 106.075942 
L 152.868084 89.611478 
L 169.955165 98.860633 
L 204.129328 86.435958 
L 221.216409 90.966726 
L 238.303491 76.992799 
L 255.390572 92.06278 
L 272.477653 113.357124 
L 289.564735 77.663131 
L 306.651816 77.337899 
L 323.738897 51.611227 
L 340.825979 85.077151 
L 357.91306 70.519361 
L 375.000141 71.536341 
L 392.087223 63.473 
L 409.174304 56.603158 
" clip-path="url(#pdfec046eb7)" style="fill: none; stroke: #ff0000; stroke-width: 0.5; stroke-linecap: round"/>
   </g>
   <g id="line2d_50">
    <path d="M 84.519759 248.792496 
L 101.60684 181.630824 
L 118.693921 123.135764 
L 135.781003 108.714548 
L 152.868084 123.508823 
L 169.955165 87.56666 
L 187.042247 75.933791 
L 221.216409 113.946255 
L 238.303491 106.47906 
L 255.390572 108.979634 
L 272.477653 104.385533 
L 289.564735 101.225019 
L 306.651816 103.681406 
L 323.738897 91.901988 
L 340.825979 106.052026 
L 357.91306 75.260496 
L 375.000141 100.90978 
L 392.087223 98.276444 
L 409.174304 68.49596 
" clip-path="url(#pdfec046eb7)" style="fill: none; stroke: #ff0000; stroke-width: 0.5; stroke-linecap: round"/>
   </g>
   <g id="line2d_51">
    <path d="M 84.519759 250.742036 
L 101.60684 127.198019 
L 118.693921 128.006415 
L 135.781003 118.361975 
L 152.868084 113.977679 
L 169.955165 123.755274 
L 187.042247 103.761196 
L 204.129328 99.981802 
L 221.216409 111.140545 
L 238.303491 84.87364 
L 272.477653 121.04733 
L 289.564735 99.606547 
L 306.651816 63.898027 
L 323.738897 93.054581 
L 340.825979 86.260469 
L 357.91306 83.793852 
L 375.000141 99.359754 
L 392.087223 90.249579 
L 409.174304 97.191216 
" clip-path="url(#pdfec046eb7)" style="fill: none; stroke: #ff0000; stroke-width: 0.5; stroke-linecap: round"/>
   </g>
   <g id="line2d_52">
    <path d="M 84.519759 217.13516 
L 101.60684 146.117707 
L 118.693921 110.138162 
L 135.781003 111.066249 
L 152.868084 84.905599 
L 169.955165 109.700097 
L 187.042247 99.050315 
L 204.129328 102.94341 
L 221.216409 96.702003 
L 238.303491 88.411791 
L 255.390572 80.27592 
L 272.477653 86.930067 
L 289.564735 84.682127 
L 306.651816 67.064406 
L 323.738897 74.181302 
L 340.825979 74.008875 
L 357.91306 75.871485 
L 375.000141 86.263444 
L 392.087223 75.761771 
L 409.174304 71.156731 
" clip-path="url(#pdfec046eb7)" style="fill: none; stroke: #ff0000; stroke-width: 0.5; stroke-linecap: round"/>
   </g>
   <g id="line2d_53">
    <path d="M 84.519759 234.333764 
L 101.60684 147.626696 
L 118.693921 94.725754 
L 135.781003 98.355964 
L 152.868084 121.308037 
L 169.955165 118.170483 
L 187.042247 100.872646 
L 204.129328 121.597325 
L 221.216409 120.351952 
L 238.303491 80.154346 
L 255.390572 95.127088 
L 272.477653 96.202248 
L 289.564735 99.661652 
L 306.651816 89.126486 
L 323.738897 109.614904 
L 340.825979 114.611639 
L 357.91306 111.287651 
L 375.000141 117.383806 
L 392.087223 57.37049 
L 409.174304 121.013541 
" clip-path="url(#pdfec046eb7)" style="fill: none; stroke: #ff0000; stroke-width: 0.5; stroke-linecap: round"/>
   </g>
   <g id="line2d_54">
    <path d="M 84.519759 227.182614 
L 101.60684 154.532752 
L 118.693921 105.162261 
L 135.781003 96.875722 
L 152.868084 65.913298 
L 169.955165 89.334372 
L 187.042247 113.323505 
L 204.129328 107.108495 
L 221.216409 110.591977 
L 255.390572 101.311643 
L 272.477653 106.696785 
L 289.564735 81.828841 
L 306.651816 79.387824 
L 323.738897 80.481628 
L 357.91306 75.085372 
L 375.000141 74.971854 
L 392.087223 95.49361 
L 409.174304 80.911914 
" clip-path="url(#pdfec046eb7)" style="fill: none; stroke: #ff0000; stroke-width: 0.5; stroke-linecap: round"/>
   </g>
   <g id="line2d_55"/>
   <g id="line2d_56"/>
   <g id="line2d_57"/>
   <g id="patch_3">
    <path d="M 68.287031 292.196062 
L 68.287031 26.084062 
" style="fill: none; stroke: #262626; stroke-width: 1.25; stroke-linejoin: miter; stroke-linecap: square"/>
   </g>
   <g id="patch_4">
    <path d="M 425.407031 292.196062 
L 425.407031 26.084062 
" style="fill: none; stroke: #262626; stroke-width: 1.25; stroke-linejoin: miter; stroke-linecap: square"/>
   </g>
   <g id="patch_5">
    <path d="M 68.287031 292.196062 
L 425.407031 292.196062 
" style="fill: none; stroke: #262626; stroke-width: 1.25; stroke-linejoin: miter; stroke-linecap: square"/>
   </g>
   <g id="patch_6">
    <path d="M 68.287031 26.084062 
L 425.407031 26.084062 
" style="fill: none; stroke: #262626; stroke-width: 1.25; stroke-linejoin: miter; stroke-linecap: square"/>
   </g>
   <g id="text_15">
    <text style="fill: #262626; font: 18px 'Arial', sans-serif; text-anchor: middle" x="246.847031" y="20.084062" transform="rotate(-0 246.847031 20.084062)">TEMPTED LR</text>
   </g>
   <g id="legend_1">
    <g id="patch_7">
     <path d="M 446.563031 171.877031 
L 570.86475 171.877031 
Q 574.16475 171.877031 574.16475 168.577031 
L 574.16475 29.384062 
Q 574.16475 26.084062 570.86475 26.084062 
L 446.563031 26.084062 
Q 443.263031 26.084062 443.263031 29.384062 
L 443.263031 168.577031 
Q 443.263031 171.877031 446.563031 171.877031 
z
" style="fill: #ffffff; opacity: 0.8; stroke: #cccccc; stroke-linejoin: miter"/>
    </g>
    <g id="line2d_58">
     <path d="M 449.863031 38.920547 
L 466.363031 38.920547 
L 482.863031 38.920547 
" style="fill: none; stroke: #000000; stroke-width: 1.5; stroke-linecap: round"/>
    </g>
    <g id="text_16">
     <text style="fill: #262626; font: 16.5px 'Arial', sans-serif; text-anchor: start" x="496.063031" y="44.695547" transform="rotate(-0 496.063031 44.695547)">RC_AIR</text>
    </g>
    <g id="line2d_59">
     <path d="M 449.863031 62.260312 
L 466.363031 62.260312 
L 482.863031 62.260312 
" style="fill: none; stroke: #0000ff; stroke-width: 1.5; stroke-linecap: round"/>
    </g>
    <g id="text_17">
     <text style="fill: #262626; font: 16.5px 'Arial', sans-serif; text-anchor: start" x="496.063031" y="68.035312" transform="rotate(-0 496.063031 68.035312)">HFD_AIR</text>
    </g>
    <g id="line2d_60">
     <path d="M 449.863031 85.801172 
L 466.363031 85.801172 
L 482.863031 85.801172 
" style="fill: none; stroke: #ff0000; stroke-width: 1.5; stroke-linecap: round"/>
    </g>
    <g id="text_18">
     <text style="fill: #262626; font: 16.5px 'Arial', sans-serif; text-anchor: start" x="496.063031" y="91.576172" transform="rotate(-0 496.063031 91.576172)">HFD_IHC</text>
    </g>
    <g id="line2d_61">
     <path d="M 449.863031 109.342031 
L 466.363031 109.342031 
L 482.863031 109.342031 
" style="fill: none; stroke: #000000; stroke-width: 1.5; stroke-linecap: round"/>
    </g>
    <g id="text_19">
     <text style="fill: #262626; font: 16.5px 'Arial', sans-serif; text-anchor: start" x="496.063031" y="115.117031" transform="rotate(-0 496.063031 115.117031)">RC_AIR</text>
    </g>
    <g id="line2d_62">
     <path d="M 449.863031 132.681797 
L 466.363031 132.681797 
L 482.863031 132.681797 
" style="fill: none; stroke: #0000ff; stroke-width: 1.5; stroke-linecap: round"/>
    </g>
    <g id="text_20">
     <text style="fill: #262626; font: 16.5px 'Arial', sans-serif; text-anchor: start" x="496.063031" y="138.456797" transform="rotate(-0 496.063031 138.456797)">HFD_AIR</text>
    </g>
    <g id="line2d_63">
     <path d="M 449.863031 156.222656 
L 466.363031 156.222656 
L 482.863031 156.222656 
" style="fill: none; stroke: #ff0000; stroke-width: 1.5; stroke-linecap: round"/>
    </g>
    <g id="text_21">
     <text style="fill: #262626; font: 16.5px 'Arial', sans-serif; text-anchor: start" x="496.063031" y="161.997656" transform="rotate(-0 496.063031 161.997656)">HFD_IHC</text>
    </g>
   </g>
  </g>
 </g>
 <defs>
  <clipPath id="pdfec046eb7">
   <rect x="68.287031" y="26.084062" width="357.12" height="266.112"/>
  </clipPath>
 </defs>
</svg>
