<?xml version="1.0" encoding="utf-8" standalone="no"?>
<!DOCTYPE svg PUBLIC "-//W3C//DTD SVG 1.1//EN"
  "http://www.w3.org/Graphics/SVG/1.1/DTD/svg11.dtd">
<svg xmlns:xlink="http://www.w3.org/1999/xlink" width="575.936859pt" height="343.000828pt" viewBox="0 0 575.936859 343.000828" xmlns="http://www.w3.org/2000/svg" version="1.1">
 <metadata>
  <rdf:RDF xmlns:dc="http://purl.org/dc/elements/1.1/" xmlns:cc="http://creativecommons.org/ns#" xmlns:rdf="http://www.w3.org/1999/02/22-rdf-syntax-ns#">
   <cc:Work>
    <dc:type rdf:resource="http://purl.org/dc/dcmitype/StillImage"/>
    <dc:date>2024-07-10T12:44:11.455207</dc:date>
    <dc:format>image/svg+xml</dc:format>
    <dc:creator>
     <cc:Agent>
      <dc:title>Matplotlib v3.6.0, https://matplotlib.org/</dc:title>
     </cc:Agent>
    </dc:creator>
   </cc:Work>
  </rdf:RDF>
 </metadata>
 <defs>
  <style type="text/css">*{stroke-linejoin: round; stroke-linecap: butt}</style>
 </defs>
 <g id="figure_1">
  <g id="patch_1">
   <path d="M 0 343.000828 
L 575.936859 343.000828 
L 575.936859 0 
L 0 0 
z
" style="fill: #ffffff"/>
  </g>
  <g id="axes_1">
   <g id="patch_2">
    <path d="M 62.859141 292.196062 
L 419.979141 292.196062 
L 419.979141 26.084062 
L 62.859141 26.084062 
z
" style="fill: #ffffff"/>
   </g>
   <g id="matplotlib.axis_1">
    <g id="xtick_1">
     <g id="line2d_1">
      <defs>
       <path id="m2aeda9997d" d="M 0 0 
L 0 6 
" style="stroke: #262626; stroke-width: 1.25"/>
      </defs>
      <g>
       <use xlink:href="#m2aeda9997d" x="79.091868" y="292.196062" style="fill: #262626; stroke: #262626; stroke-width: 1.25"/>
      </g>
     </g>
     <g id="text_1">
      <text style="fill: #262626; font: 16.5px 'sans-serif'; text-anchor: middle" x="79.091868" y="313.506453" transform="rotate(-0 79.091868 313.506453)">10</text>
     </g>
    </g>
    <g id="xtick_2">
     <g id="line2d_2">
      <g>
       <use xlink:href="#m2aeda9997d" x="147.440193" y="292.196062" style="fill: #262626; stroke: #262626; stroke-width: 1.25"/>
      </g>
     </g>
     <g id="text_2">
      <text style="fill: #262626; font: 16.5px 'sans-serif'; text-anchor: middle" x="147.440193" y="313.506453" transform="rotate(-0 147.440193 313.506453)">12</text>
     </g>
    </g>
    <g id="xtick_3">
     <g id="line2d_3">
      <g>
       <use xlink:href="#m2aeda9997d" x="215.788519" y="292.196062" style="fill: #262626; stroke: #262626; stroke-width: 1.25"/>
      </g>
     </g>
     <g id="text_3">
      <text style="fill: #262626; font: 16.5px 'sans-serif'; text-anchor: middle" x="215.788519" y="313.506453" transform="rotate(-0 215.788519 313.506453)">14</text>
     </g>
    </g>
    <g id="xtick_4">
     <g id="line2d_4">
      <g>
       <use xlink:href="#m2aeda9997d" x="284.136844" y="292.196062" style="fill: #262626; stroke: #262626; stroke-width: 1.25"/>
      </g>
     </g>
     <g id="text_4">
      <text style="fill: #262626; font: 16.5px 'sans-serif'; text-anchor: middle" x="284.136844" y="313.506453" transform="rotate(-0 284.136844 313.506453)">16</text>
     </g>
    </g>
    <g id="xtick_5">
     <g id="line2d_5">
      <g>
       <use xlink:href="#m2aeda9997d" x="352.485169" y="292.196062" style="fill: #262626; stroke: #262626; stroke-width: 1.25"/>
      </g>
     </g>
     <g id="text_5">
      <text style="fill: #262626; font: 16.5px 'sans-serif'; text-anchor: middle" x="352.485169" y="313.506453" transform="rotate(-0 352.485169 313.506453)">18</text>
     </g>
    </g>
    <g id="text_6">
     <text style="fill: #262626; font: 16px 'sans-serif'; text-anchor: middle" x="241.419141" y="332.433328" transform="rotate(-0 241.419141 332.433328)">Host Age (weeks)</text>
    </g>
   </g>
   <g id="matplotlib.axis_2">
    <g id="ytick_1">
     <g id="line2d_6">
      <defs>
       <path id="madc1a12ffb" d="M 0 0 
L -6 0 
" style="stroke: #262626; stroke-width: 1.25"/>
      </defs>
      <g>
       <use xlink:href="#madc1a12ffb" x="62.859141" y="292.196062" style="fill: #262626; stroke: #262626; stroke-width: 1.25"/>
      </g>
     </g>
     <g id="text_7">
      <text style="fill: #262626; font: 16.5px 'sans-serif'; text-anchor: end" x="53.359141" y="298.101258" transform="rotate(-0 53.359141 298.101258)">50</text>
     </g>
    </g>
    <g id="ytick_2">
     <g id="line2d_7">
      <g>
       <use xlink:href="#madc1a12ffb" x="62.859141" y="254.180062" style="fill: #262626; stroke: #262626; stroke-width: 1.25"/>
      </g>
     </g>
     <g id="text_8">
      <text style="fill: #262626; font: 16.5px 'sans-serif'; text-anchor: end" x="53.359141" y="260.085258" transform="rotate(-0 53.359141 260.085258)">100</text>
     </g>
    </g>
    <g id="ytick_3">
     <g id="line2d_8">
      <g>
       <use xlink:href="#madc1a12ffb" x="62.859141" y="216.164062" style="fill: #262626; stroke: #262626; stroke-width: 1.25"/>
      </g>
     </g>
     <g id="text_9">
      <text style="fill: #262626; font: 16.5px 'sans-serif'; text-anchor: end" x="53.359141" y="222.069258" transform="rotate(-0 53.359141 222.069258)">150</text>
     </g>
    </g>
    <g id="ytick_4">
     <g id="line2d_9">
      <g>
       <use xlink:href="#madc1a12ffb" x="62.859141" y="178.148062" style="fill: #262626; stroke: #262626; stroke-width: 1.25"/>
      </g>
     </g>
     <g id="text_10">
      <text style="fill: #262626; font: 16.5px 'sans-serif'; text-anchor: end" x="53.359141" y="184.053258" transform="rotate(-0 53.359141 184.053258)">200</text>
     </g>
    </g>
    <g id="ytick_5">
     <g id="line2d_10">
      <g>
       <use xlink:href="#madc1a12ffb" x="62.859141" y="140.132062" style="fill: #262626; stroke: #262626; stroke-width: 1.25"/>
      </g>
     </g>
     <g id="text_11">
      <text style="fill: #262626; font: 16.5px 'sans-serif'; text-anchor: end" x="53.359141" y="146.037258" transform="rotate(-0 53.359141 146.037258)">250</text>
     </g>
    </g>
    <g id="ytick_6">
     <g id="line2d_11">
      <g>
       <use xlink:href="#madc1a12ffb" x="62.859141" y="102.116062" style="fill: #262626; stroke: #262626; stroke-width: 1.25"/>
      </g>
     </g>
     <g id="text_12">
      <text style="fill: #262626; font: 16.5px 'sans-serif'; text-anchor: end" x="53.359141" y="108.021258" transform="rotate(-0 53.359141 108.021258)">300</text>
     </g>
    </g>
    <g id="ytick_7">
     <g id="line2d_12">
      <g>
       <use xlink:href="#madc1a12ffb" x="62.859141" y="64.100062" style="fill: #262626; stroke: #262626; stroke-width: 1.25"/>
      </g>
     </g>
     <g id="text_13">
      <text style="fill: #262626; font: 16.5px 'sans-serif'; text-anchor: end" x="53.359141" y="70.005258" transform="rotate(-0 53.359141 70.005258)">350</text>
     </g>
    </g>
    <g id="ytick_8">
     <g id="line2d_13">
      <g>
       <use xlink:href="#madc1a12ffb" x="62.859141" y="26.084062" style="fill: #262626; stroke: #262626; stroke-width: 1.25"/>
      </g>
     </g>
     <g id="text_14">
      <text style="fill: #262626; font: 16.5px 'sans-serif'; text-anchor: end" x="53.359141" y="31.989258" transform="rotate(-0 53.359141 31.989258)">400</text>
     </g>
    </g>
    <g id="text_15">
     <text style="fill: #262626; font: 16px 'sans-serif'; text-anchor: middle" x="18.6525" y="159.140062" transform="rotate(-90 18.6525 159.140062)">Observed Features</text>
    </g>
   </g>
   <g id="line2d_14">
    <path d="M 79.091868 161.737822 
L 96.178949 103.763422 
L 113.266031 137.229022 
L 130.353112 144.693982 
L 147.440193 149.382622 
L 164.527275 147.925342 
L 181.614356 138.928222 
L 198.701437 151.410142 
L 215.788519 151.346782 
L 232.8756 184.547422 
L 249.962681 154.785502 
L 267.049763 133.669342 
L 284.136844 132.736222 
L 301.223925 148.812382 
L 318.311007 150.333022 
L 335.398088 152.613982 
L 352.485169 163.638622 
L 369.572251 156.352222 
L 386.659332 176.817502 
L 403.746413 165.412702 
" clip-path="url(#p3c46ca43ac)" style="fill: none; stroke: #000000; stroke-width: 5; stroke-linecap: round"/>
   </g>
   <g id="line2d_15">
    <path d="M 79.091868 169.847902 
L 96.178949 194.241502 
L 113.266031 206.786782 
L 130.353112 215.657182 
L 147.440193 222.246622 
L 164.527275 218.790622 
L 181.614356 216.855262 
L 198.701437 228.813022 
L 215.788519 226.808542 
L 232.8756 221.042782 
L 249.962681 218.583262 
L 267.049763 210.081502 
L 284.136844 221.169502 
L 301.223925 212.742622 
L 318.311007 225.984862 
L 335.398088 228.139102 
L 352.485169 217.177822 
L 369.572251 219.205342 
L 386.659332 217.621342 
L 403.746413 217.621342 
" clip-path="url(#p3c46ca43ac)" style="fill: none; stroke: #0000ff; stroke-width: 5; stroke-linecap: round"/>
   </g>
   <g id="line2d_16">
    <path d="M 79.091868 167.693662 
L 96.178949 194.051422 
L 113.266031 207.800542 
L 130.353112 225.541342 
L 147.440193 231.623902 
L 164.527275 234.158302 
L 181.614356 227.707102 
L 198.701437 230.610142 
L 215.788519 235.362142 
L 232.8756 238.697182 
L 249.962681 224.679646 
L 267.049763 214.871518 
L 284.136844 223.767262 
L 301.223925 235.102942 
L 318.311007 231.439582 
L 335.398088 232.663006 
L 352.485169 224.458462 
L 369.572251 231.992542 
L 386.659332 239.388382 
L 403.746413 236.101342 
" clip-path="url(#p3c46ca43ac)" style="fill: none; stroke: #ff0000; stroke-width: 5; stroke-linecap: round"/>
   </g>
   <g id="line2d_17"/>
   <g id="line2d_18"/>
   <g id="line2d_19"/>
   <g id="line2d_20">
    <path d="M 79.091868 145.454302 
L 96.178949 137.090782 
L 113.266031 147.735262 
L 130.353112 148.495582 
L 147.440193 146.214622 
L 164.527275 122.644702 
L 181.614356 138.611422 
L 198.701437 140.892382 
L 215.788519 159.140062 
L 232.8756 181.189342 
L 249.962681 177.387742 
L 267.049763 139.371742 
L 284.136844 153.057502 
L 301.223925 172.825822 
L 318.311007 175.867102 
L 335.398088 183.470302 
L 352.485169 147.735262 
L 369.572251 187.271902 
L 386.659332 189.552862 
L 403.746413 174.346462 
" clip-path="url(#p3c46ca43ac)" style="fill: none; stroke: #000000; stroke-width: 0.5; stroke-linecap: round"/>
   </g>
   <g id="line2d_21">
    <path d="M 79.091868 180.429022 
L 96.178949 147.735262 
L 113.266031 140.132062 
L 130.353112 148.495582 
L 147.440193 153.817822 
L 164.527275 133.289182 
L 181.614356 115.801822 
L 198.701437 111.239902 
L 215.788519 162.941662 
L 232.8756 176.627422 
L 249.962681 192.594142 
L 267.049763 165.222622 
L 284.136844 149.255902 
L 301.223925 159.140062 
L 318.311007 160.660702 
L 335.398088 166.743262 
L 352.485169 153.817822 
L 369.572251 122.644702 
L 386.659332 174.346462 
L 403.746413 140.132062 
" clip-path="url(#p3c46ca43ac)" style="fill: none; stroke: #000000; stroke-width: 0.5; stroke-linecap: round"/>
   </g>
   <g id="line2d_22">
    <path d="M 79.091868 128.727262 
L 96.178949 139.371742 
L 130.353112 124.925662 
L 147.440193 132.528862 
L 164.527275 123.405022 
L 181.614356 124.925662 
L 198.701437 114.281182 
L 215.788519 225.287902 
L 232.8756 218.445022 
L 249.962681 151.536862 
L 267.049763 100.595422 
L 284.136844 145.454302 
L 301.223925 133.289182 
L 318.311007 174.346462 
L 335.398088 177.387742 
L 352.485169 171.305182 
L 369.572251 167.503582 
L 386.659332 238.973662 
L 403.746413 188.032222 
" clip-path="url(#p3c46ca43ac)" style="fill: none; stroke: #000000; stroke-width: 0.5; stroke-linecap: round"/>
   </g>
   <g id="line2d_23">
    <path d="M 79.091868 183.470302 
L 96.178949 170.544862 
L 113.266031 134.049502 
L 130.353112 160.660702 
L 147.440193 162.181342 
L 164.527275 137.090782 
L 181.614356 117.322462 
L 198.701437 126.446302 
L 215.788519 139.371742 
L 232.8756 194.875102 
L 249.962681 184.230622 
L 267.049763 115.041502 
L 284.136844 137.851102 
L 301.223925 125.685982 
L 318.311007 171.305182 
L 335.398088 167.503582 
L 352.485169 159.900382 
L 369.572251 214.643422 
L 386.659332 198.676702 
L 403.746413 174.346462 
" clip-path="url(#p3c46ca43ac)" style="fill: none; stroke: #000000; stroke-width: 0.5; stroke-linecap: round"/>
   </g>
   <g id="line2d_24">
    <path d="M 79.091868 145.454302 
L 96.178949 121.124062 
L 113.266031 150.776542 
L 130.353112 114.281182 
L 147.440193 135.570142 
L 164.527275 213.122782 
L 181.614356 139.371742 
L 198.701437 137.090782 
L 215.788519 156.859102 
L 232.8756 134.809822 
L 267.049763 120.363742 
L 284.136844 106.677982 
L 301.223925 108.198622 
L 318.311007 132.528862 
L 335.398088 169.784542 
L 352.485169 132.528862 
L 369.572251 162.941662 
L 386.659332 214.643422 
L 403.746413 162.941662 
" clip-path="url(#p3c46ca43ac)" style="fill: none; stroke: #000000; stroke-width: 0.5; stroke-linecap: round"/>
   </g>
   <g id="line2d_25">
    <path d="M 79.091868 149.255902 
L 96.178949 116.562142 
L 113.266031 98.314462 
L 130.353112 143.933662 
L 147.440193 127.206622 
L 164.527275 169.784542 
L 181.614356 124.925662 
L 198.701437 183.470302 
L 215.788519 166.743262 
L 232.8756 225.287902 
L 249.962681 177.387742 
L 267.049763 163.701982 
L 284.136844 129.487582 
L 301.223925 164.462302 
L 318.311007 155.338462 
L 335.398088 96.033502 
L 352.485169 116.562142 
L 369.572251 160.660702 
L 386.659332 153.057502 
L 403.746413 159.140062 
" clip-path="url(#p3c46ca43ac)" style="fill: none; stroke: #000000; stroke-width: 0.5; stroke-linecap: round"/>
   </g>
   <g id="line2d_26">
    <path d="M 79.091868 149.255902 
L 96.178949 147.735262 
L 113.266031 143.173342 
L 130.353112 161.421022 
L 147.440193 184.990942 
L 164.527275 121.884382 
L 181.614356 181.949662 
L 198.701437 181.189342 
L 215.788519 146.214622 
L 232.8756 153.817822 
L 249.962681 166.743262 
L 267.049763 171.305182 
L 301.223925 149.255902 
L 318.311007 133.289182 
L 335.398088 142.413022 
L 352.485169 223.767262 
L 369.572251 160.660702 
L 386.659332 153.057502 
L 403.746413 189.552862 
" clip-path="url(#p3c46ca43ac)" style="fill: none; stroke: #000000; stroke-width: 0.5; stroke-linecap: round"/>
   </g>
   <g id="line2d_27">
    <path d="M 79.091868 155.338462 
L 84.367361 -1 
M 108.586706 -1 
L 113.266031 131.008222 
L 130.353112 134.809822 
L 147.440193 150.776542 
L 164.527275 131.768542 
L 181.614356 131.008222 
L 198.701437 148.495582 
L 215.788519 109.719262 
L 232.8756 149.255902 
L 249.962681 132.528862 
L 267.049763 127.206622 
L 284.136844 118.843102 
L 301.223925 125.685982 
L 318.311007 102.876382 
L 335.398088 122.644702 
L 352.485169 102.876382 
L 369.572251 138.611422 
L 386.659332 184.990942 
L 403.746413 148.495582 
" clip-path="url(#p3c46ca43ac)" style="fill: none; stroke: #000000; stroke-width: 0.5; stroke-linecap: round"/>
   </g>
   <g id="line2d_28">
    <path d="M 79.091868 173.586142 
L 96.178949 151.536862 
L 113.266031 159.900382 
L 130.353112 197.156062 
L 147.440193 185.751262 
L 164.527275 156.098782 
L 181.614356 207.040222 
L 198.701437 206.279902 
L 215.788519 150.776542 
L 232.8756 222.246622 
L 249.962681 118.082782 
L 267.049763 110.479582 
L 284.136844 146.974942 
L 301.223925 185.751262 
L 318.311007 184.230622 
L 335.398088 143.173342 
L 352.485169 184.990942 
L 369.572251 154.578142 
L 386.659332 147.735262 
L 403.746413 180.429022 
" clip-path="url(#p3c46ca43ac)" style="fill: none; stroke: #000000; stroke-width: 0.5; stroke-linecap: round"/>
   </g>
   <g id="line2d_29">
    <path d="M 79.091868 183.470302 
L 96.178949 143.933662 
L 113.266031 134.049502 
L 130.353112 121.124062 
L 147.440193 141.652702 
L 164.527275 156.859102 
L 181.614356 166.743262 
L 198.701437 157.619422 
L 215.788519 159.140062 
L 232.8756 149.255902 
L 249.962681 124.165342 
L 267.049763 137.090782 
L 284.136844 127.206622 
L 301.223925 129.487582 
L 318.311007 143.173342 
L 335.398088 144.693982 
L 352.485169 200.957662 
L 369.572251 140.892382 
L 386.659332 140.892382 
L 403.746413 168.263902 
" clip-path="url(#p3c46ca43ac)" style="fill: none; stroke: #000000; stroke-width: 0.5; stroke-linecap: round"/>
   </g>
   <g id="line2d_30">
    <path d="M 79.091868 175.106782 
L 96.178949 159.900382 
L 113.266031 131.768542 
L 130.353112 124.925662 
L 147.440193 141.652702 
L 164.527275 146.974942 
L 181.614356 137.090782 
L 198.701437 162.181342 
L 215.788519 88.430302 
L 232.8756 200.957662 
L 249.962681 156.859102 
L 267.049763 135.570142 
L 284.136844 122.644702 
L 301.223925 160.660702 
L 318.311007 121.884382 
L 335.398088 146.214622 
L 352.485169 191.073502 
L 369.572251 135.570142 
L 386.659332 130.247902 
L 403.746413 161.421022 
" clip-path="url(#p3c46ca43ac)" style="fill: none; stroke: #000000; stroke-width: 0.5; stroke-linecap: round"/>
   </g>
   <g id="line2d_31">
    <path d="M 79.091868 171.305182 
L 96.178949 160.660702 
L 113.266031 138.611422 
L 130.353112 156.098782 
L 147.440193 130.247902 
L 164.527275 162.181342 
L 181.614356 82.347742 
L 198.701437 147.735262 
L 215.788519 151.536862 
L 232.8756 207.800542 
L 249.962681 121.124062 
L 267.049763 118.082782 
L 284.136844 122.644702 
L 301.223925 171.305182 
L 318.311007 148.495582 
L 335.398088 171.305182 
L 352.485169 178.148062 
L 369.572251 130.247902 
L 386.659332 195.635422 
L 403.746413 137.851102 
" clip-path="url(#p3c46ca43ac)" style="fill: none; stroke: #000000; stroke-width: 0.5; stroke-linecap: round"/>
   </g>
   <g id="line2d_32">
    <path d="M 79.091868 165.222622 
L 96.178949 203.238622 
L 113.266031 200.197342 
L 147.440193 225.287902 
L 164.527275 237.453022 
L 181.614356 210.081502 
L 198.701437 223.767262 
L 232.8756 232.891102 
L 249.962681 211.602142 
L 267.049763 213.122782 
L 284.136844 229.089502 
L 301.223925 208.560862 
L 318.311007 220.725982 
L 335.398088 249.618142 
L 352.485169 225.287902 
L 369.572251 203.998942 
L 386.659332 219.965662 
L 403.746413 205.519582 
" clip-path="url(#p3c46ca43ac)" style="fill: none; stroke: #0000ff; stroke-width: 0.5; stroke-linecap: round"/>
   </g>
   <g id="line2d_33">
    <path d="M 79.091868 183.470302 
L 96.178949 191.073502 
L 113.266031 197.156062 
L 130.353112 245.816542 
L 147.440193 219.965662 
L 164.527275 210.081502 
L 181.614356 230.610142 
L 198.701437 235.932382 
L 215.788519 254.940382 
L 232.8756 218.445022 
L 249.962681 250.378462 
L 267.049763 233.651422 
L 284.136844 219.965662 
L 301.223925 226.048222 
L 318.311007 227.568862 
L 335.398088 244.295902 
L 352.485169 224.527582 
L 369.572251 224.527582 
L 386.659332 221.486302 
L 403.746413 238.973662 
" clip-path="url(#p3c46ca43ac)" style="fill: none; stroke: #0000ff; stroke-width: 0.5; stroke-linecap: round"/>
   </g>
   <g id="line2d_34">
    <path d="M 79.091868 170.544862 
L 96.178949 197.916382 
L 113.266031 184.230622 
L 130.353112 216.164062 
L 147.440193 229.089502 
L 164.527275 217.684702 
L 181.614356 244.295902 
L 198.701437 233.651422 
L 215.788519 229.849822 
L 232.8756 205.519582 
L 249.962681 211.602142 
L 267.049763 207.800542 
L 284.136844 210.841822 
L 301.223925 219.205342 
L 318.311007 218.445022 
L 335.398088 215.403742 
L 352.485169 224.527582 
L 369.572251 244.295902 
L 386.659332 202.478302 
L 403.746413 211.602142 
" clip-path="url(#p3c46ca43ac)" style="fill: none; stroke: #0000ff; stroke-width: 0.5; stroke-linecap: round"/>
   </g>
   <g id="line2d_35">
    <path d="M 79.091868 192.594142 
L 96.178949 186.511582 
L 113.266031 210.081502 
L 147.440193 223.006942 
L 164.527275 232.891102 
L 181.614356 227.568862 
L 198.701437 219.205342 
L 215.788519 216.164062 
L 232.8756 214.643422 
L 249.962681 214.643422 
L 267.049763 222.246622 
L 284.136844 219.965662 
L 301.223925 224.527582 
L 318.311007 223.006942 
L 335.398088 222.246622 
L 352.485169 216.924382 
L 369.572251 227.568862 
L 386.659332 217.684702 
L 403.746413 232.130782 
" clip-path="url(#p3c46ca43ac)" style="fill: none; stroke: #0000ff; stroke-width: 0.5; stroke-linecap: round"/>
   </g>
   <g id="line2d_36">
    <path d="M 79.091868 183.470302 
L 96.178949 203.238622 
L 113.266031 187.271902 
L 147.440193 205.519582 
L 164.527275 217.684702 
L 181.614356 204.759262 
L 215.788519 223.006942 
L 232.8756 199.437022 
L 249.962681 226.808542 
L 267.049763 162.941662 
L 284.136844 235.932382 
L 301.223925 220.725982 
L 318.311007 238.973662 
L 335.398088 219.205342 
L 352.485169 215.403742 
L 369.572251 222.246622 
L 386.659332 213.122782 
L 403.746413 213.883102 
" clip-path="url(#p3c46ca43ac)" style="fill: none; stroke: #0000ff; stroke-width: 0.5; stroke-linecap: round"/>
   </g>
   <g id="line2d_37">
    <path d="M 79.091868 184.230622 
L 96.178949 187.271902 
L 113.266031 207.800542 
L 130.353112 225.287902 
L 147.440193 256.461022 
L 164.527275 216.924382 
L 181.614356 213.883102 
L 198.701437 241.254622 
L 215.788519 246.576862 
L 232.8756 229.849822 
L 249.962681 226.048222 
L 267.049763 220.725982 
L 284.136844 220.725982 
L 301.223925 216.164062 
L 318.311007 241.254622 
L 335.398088 242.775262 
L 352.485169 224.527582 
L 369.572251 218.445022 
L 386.659332 220.725982 
L 403.746413 221.486302 
" clip-path="url(#p3c46ca43ac)" style="fill: none; stroke: #0000ff; stroke-width: 0.5; stroke-linecap: round"/>
   </g>
   <g id="line2d_38">
    <path d="M 79.091868 146.214622 
L 96.178949 184.230622 
L 113.266031 212.362462 
L 130.353112 200.197342 
L 147.440193 219.965662 
L 164.527275 216.924382 
L 198.701437 220.725982 
L 215.788519 219.205342 
L 232.8756 217.684702 
L 249.962681 224.527582 
L 267.049763 212.362462 
L 284.136844 212.362462 
L 301.223925 210.081502 
L 318.311007 224.527582 
L 335.398088 221.486302 
L 352.485169 238.973662 
L 369.572251 223.006942 
L 386.659332 222.246622 
L 403.746413 219.205342 
" clip-path="url(#p3c46ca43ac)" style="fill: none; stroke: #0000ff; stroke-width: 0.5; stroke-linecap: round"/>
   </g>
   <g id="line2d_39">
    <path d="M 79.091868 163.701982 
L 96.178949 207.040222 
L 113.266031 243.535582 
L 130.353112 208.560862 
L 147.440193 213.122782 
L 164.527275 197.156062 
L 181.614356 207.040222 
L 198.701437 224.527582 
L 215.788519 238.973662 
L 232.8756 222.246622 
L 267.049763 175.867102 
L 284.136844 222.246622 
L 301.223925 191.073502 
L 318.311007 226.048222 
L 335.398088 200.957662 
L 352.485169 196.395742 
L 369.572251 188.792542 
L 386.659332 232.130782 
L 403.746413 220.725982 
" clip-path="url(#p3c46ca43ac)" style="fill: none; stroke: #0000ff; stroke-width: 0.5; stroke-linecap: round"/>
   </g>
   <g id="line2d_40">
    <path d="M 79.091868 184.230622 
L 96.178949 201.717982 
L 113.266031 228.329182 
L 130.353112 208.560862 
L 147.440193 224.527582 
L 181.614356 221.486302 
L 198.701437 237.453022 
L 215.788519 223.767262 
L 232.8756 242.014942 
L 249.962681 224.527582 
L 267.049763 219.205342 
L 284.136844 254.940382 
L 301.223925 225.287902 
L 318.311007 238.213342 
L 335.398088 237.453022 
L 352.485169 203.238622 
L 369.572251 234.411742 
L 386.659332 222.246622 
L 403.746413 222.246622 
" clip-path="url(#p3c46ca43ac)" style="fill: none; stroke: #0000ff; stroke-width: 0.5; stroke-linecap: round"/>
   </g>
   <g id="line2d_41">
    <path d="M 79.091868 155.338462 
L 96.178949 188.792542 
L 113.266031 194.114782 
L 130.353112 198.676702 
L 147.440193 217.684702 
L 164.527275 205.519582 
L 181.614356 179.668702 
L 198.701437 242.014942 
L 215.788519 210.081502 
L 232.8756 228.329182 
L 249.962681 194.114782 
L 267.049763 216.924382 
L 284.136844 207.800542 
L 301.223925 221.486302 
L 318.311007 204.759262 
L 335.398088 217.684702 
L 352.485169 194.114782 
L 369.572251 208.560862 
L 386.659332 216.924382 
L 403.746413 205.519582 
" clip-path="url(#p3c46ca43ac)" style="fill: none; stroke: #0000ff; stroke-width: 0.5; stroke-linecap: round"/>
   </g>
   <g id="line2d_42">
    <path d="M 79.091868 159.900382 
L 96.178949 198.676702 
L 113.266031 226.048222 
L 130.353112 221.486302 
L 147.440193 218.445022 
L 164.527275 229.089502 
L 181.614356 220.725982 
L 198.701437 218.445022 
L 215.788519 217.684702 
L 232.8756 216.924382 
L 249.962681 203.998942 
L 267.049763 226.048222 
L 284.136844 212.362462 
L 301.223925 195.635422 
L 318.311007 226.048222 
L 335.398088 234.411742 
L 352.485169 204.759262 
L 369.572251 205.519582 
L 386.659332 200.957662 
L 403.746413 216.164062 
" clip-path="url(#p3c46ca43ac)" style="fill: none; stroke: #0000ff; stroke-width: 0.5; stroke-linecap: round"/>
   </g>
   <g id="line2d_43">
    <path d="M 79.091868 149.255902 
L 96.178949 181.189342 
L 113.266031 190.313182 
L 130.353112 216.164062 
L 147.440193 213.883102 
L 164.527275 225.287902 
L 181.614356 225.287902 
L 198.701437 219.965662 
L 215.788519 214.643422 
L 232.8756 224.527582 
L 249.962681 216.164062 
L 284.136844 207.800542 
L 301.223925 194.114782 
L 318.311007 222.246622 
L 335.398088 232.130782 
L 352.485169 237.453022 
L 369.572251 229.089502 
L 386.659332 221.486302 
L 403.746413 203.998942 
" clip-path="url(#p3c46ca43ac)" style="fill: none; stroke: #0000ff; stroke-width: 0.5; stroke-linecap: round"/>
   </g>
   <g id="line2d_44">
    <path d="M 79.091868 140.132062 
L 96.178949 197.916382 
L 113.266031 234.411742 
L 130.353112 245.816542 
L 147.440193 229.849822 
L 164.527275 229.089502 
L 181.614356 225.287902 
L 198.701437 208.560862 
L 215.788519 238.213342 
L 232.8756 227.568862 
L 249.962681 238.973662 
L 267.049763 213.883102 
L 284.136844 227.568862 
L 301.223925 224.527582 
L 318.311007 232.891102 
L 335.398088 232.891102 
L 352.485169 213.883102 
L 369.572251 245.816542 
L 386.659332 238.213342 
L 403.746413 225.287902 
" clip-path="url(#p3c46ca43ac)" style="fill: none; stroke: #ff0000; stroke-width: 0.5; stroke-linecap: round"/>
   </g>
   <g id="line2d_45">
    <path d="M 79.091868 169.784542 
L 96.178949 188.032222 
L 113.266031 202.478302 
L 130.353112 243.535582 
L 147.440193 222.246622 
L 164.527275 232.130782 
L 181.614356 216.924382 
L 198.701437 227.568862 
L 215.788519 254.940382 
L 232.8756 226.048222 
L 249.962681 226.808542 
L 267.049763 221.486302 
L 284.136844 228.329182 
L 301.223925 219.205342 
L 318.311007 213.122782 
L 335.398088 223.006942 
L 352.485169 219.205342 
L 369.572251 223.006942 
L 386.659332 231.370462 
L 403.746413 240.494302 
" clip-path="url(#p3c46ca43ac)" style="fill: none; stroke: #ff0000; stroke-width: 0.5; stroke-linecap: round"/>
   </g>
   <g id="line2d_46">
    <path d="M 79.091868 166.743262 
L 96.178949 190.313182 
L 113.266031 181.949662 
L 130.353112 211.602142 
L 147.440193 246.576862 
L 164.527275 230.610142 
L 181.614356 222.246622 
L 198.701437 246.576862 
L 215.788519 237.453022 
L 232.8756 232.891102 
L 249.962681 213.122782 
L 284.136844 241.254622 
L 301.223925 235.172062 
L 318.311007 240.494302 
L 335.398088 238.973662 
L 352.485169 216.164062 
L 369.572251 220.725982 
L 386.659332 245.056222 
" clip-path="url(#p3c46ca43ac)" style="fill: none; stroke: #ff0000; stroke-width: 0.5; stroke-linecap: round"/>
   </g>
   <g id="line2d_47">
    <path d="M 79.091868 189.552862 
L 96.178949 196.395742 
L 113.266031 188.032222 
L 130.353112 217.684702 
L 147.440193 212.362462 
L 164.527275 235.172062 
L 181.614356 254.180062 
L 198.701437 233.651422 
L 215.788519 238.213342 
L 232.8756 257.981662 
L 249.962681 230.610142 
" clip-path="url(#p3c46ca43ac)" style="fill: none; stroke: #ff0000; stroke-width: 0.5; stroke-linecap: round"/>
   </g>
   <g id="line2d_48">
    <path d="M 79.091868 150.016222 
L 96.178949 187.271902 
L 113.266031 216.924382 
L 130.353112 235.172062 
L 147.440193 240.494302 
L 164.527275 237.453022 
L 181.614356 239.733982 
L 198.701437 210.841822 
L 215.788519 240.494302 
L 232.8756 223.006942 
L 249.962681 222.246622 
L 267.049763 209.321182 
L 284.136844 207.040222 
L 301.223925 212.362462 
L 318.311007 219.205342 
L 335.398088 228.329182 
L 352.485169 219.205342 
L 369.572251 220.725982 
L 386.659332 232.891102 
L 403.746413 237.453022 
" clip-path="url(#p3c46ca43ac)" style="fill: none; stroke: #ff0000; stroke-width: 0.5; stroke-linecap: round"/>
   </g>
   <g id="line2d_49">
    <path d="M 79.091868 203.998942 
L 96.178949 187.271902 
L 113.266031 216.924382 
L 130.353112 249.618142 
L 147.440193 213.122782 
L 164.527275 226.808542 
L 181.614356 232.891102 
L 198.701437 244.295902 
L 215.788519 242.014942 
L 232.8756 245.056222 
L 267.049763 218.445022 
L 284.136844 227.568862 
L 301.223925 261.022942 
L 318.311007 227.568862 
L 335.398088 240.494302 
L 352.485169 230.610142 
L 369.572251 242.775262 
L 386.659332 230.610142 
" clip-path="url(#p3c46ca43ac)" style="fill: none; stroke: #ff0000; stroke-width: 0.5; stroke-linecap: round"/>
   </g>
   <g id="line2d_50">
    <path d="M 79.091868 145.454302 
L 96.178949 207.800542 
L 113.266031 208.560862 
L 130.353112 199.437022 
L 147.440193 243.535582 
L 164.527275 248.097502 
L 198.701437 248.857822 
L 215.788519 234.411742 
L 232.8756 249.618142 
L 249.962681 207.800542 
L 267.049763 192.594142 
L 284.136844 230.610142 
L 301.223925 235.932382 
L 318.311007 248.857822 
L 335.398088 239.733982 
L 352.485169 236.692702 
L 369.572251 242.014942 
L 386.659332 240.494302 
L 403.746413 247.337182 
" clip-path="url(#p3c46ca43ac)" style="fill: none; stroke: #ff0000; stroke-width: 0.5; stroke-linecap: round"/>
   </g>
   <g id="line2d_51">
    <path d="M 79.091868 156.098782 
L 96.178949 187.271902 
L 113.266031 204.759262 
L 130.353112 217.684702 
L 147.440193 223.006942 
L 164.527275 238.213342 
L 181.614356 241.254622 
L 215.788519 218.445022 
L 232.8756 239.733982 
L 249.962681 223.006942 
L 267.049763 210.081502 
L 284.136844 210.081502 
L 301.223925 226.808542 
L 318.311007 235.932382 
L 335.398088 227.568862 
L 352.485169 235.932382 
L 369.572251 238.213342 
L 386.659332 235.172062 
L 403.746413 246.576862 
" clip-path="url(#p3c46ca43ac)" style="fill: none; stroke: #ff0000; stroke-width: 0.5; stroke-linecap: round"/>
   </g>
   <g id="line2d_52">
    <path d="M 79.091868 174.346462 
L 96.178949 201.717982 
L 113.266031 189.552862 
L 130.353112 227.568862 
L 147.440193 223.006942 
L 164.527275 214.643422 
L 181.614356 209.321182 
L 198.701437 231.370462 
L 215.788519 229.089502 
L 232.8756 242.014942 
L 267.049763 197.156062 
L 284.136844 224.527582 
L 301.223925 238.213342 
L 318.311007 238.213342 
L 335.398088 228.329182 
L 352.485169 242.014942 
L 369.572251 234.411742 
L 386.659332 251.899102 
L 403.746413 235.172062 
" clip-path="url(#p3c46ca43ac)" style="fill: none; stroke: #ff0000; stroke-width: 0.5; stroke-linecap: round"/>
   </g>
   <g id="line2d_53">
    <path d="M 79.091868 164.462302 
L 96.178949 192.594142 
L 113.266031 215.403742 
L 130.353112 208.560862 
L 147.440193 221.486302 
L 164.527275 232.891102 
L 181.614356 223.006942 
L 198.701437 232.891102 
L 215.788519 229.089502 
L 232.8756 237.453022 
L 249.962681 228.329182 
L 267.049763 224.527582 
L 284.136844 215.403742 
L 301.223925 261.783262 
L 318.311007 230.610142 
L 335.398088 250.378462 
L 352.485169 230.610142 
L 369.572251 245.056222 
L 386.659332 242.014942 
L 403.746413 238.213342 
" clip-path="url(#p3c46ca43ac)" style="fill: none; stroke: #ff0000; stroke-width: 0.5; stroke-linecap: round"/>
   </g>
   <g id="line2d_54">
    <path d="M 79.091868 165.222622 
L 96.178949 201.717982 
L 113.266031 229.849822 
L 130.353112 196.395742 
L 147.440193 234.411742 
L 164.527275 222.246622 
L 181.614356 230.610142 
L 198.701437 213.122782 
L 215.788519 226.808542 
L 232.8756 244.295902 
L 249.962681 225.287902 
L 267.049763 223.006942 
L 284.136844 229.089502 
L 301.223925 231.370462 
L 318.311007 217.684702 
L 335.398088 216.924382 
L 352.485169 210.081502 
L 369.572251 233.651422 
L 386.659332 245.056222 
L 403.746413 219.205342 
" clip-path="url(#p3c46ca43ac)" style="fill: none; stroke: #ff0000; stroke-width: 0.5; stroke-linecap: round"/>
   </g>
   <g id="line2d_55">
    <path d="M 79.091868 186.511582 
L 96.178949 190.313182 
L 113.266031 204.759262 
L 130.353112 253.419742 
L 147.440193 269.386462 
L 164.527275 262.543582 
L 181.614356 209.321182 
L 198.701437 238.973662 
L 215.788519 235.172062 
L 249.962681 230.610142 
L 267.049763 238.213342 
L 284.136844 219.965662 
L 301.223925 239.733982 
L 318.311007 241.254622 
L 352.485169 214.643422 
L 369.572251 205.519582 
L 386.659332 240.494302 
L 403.746413 235.172062 
" clip-path="url(#p3c46ca43ac)" style="fill: none; stroke: #ff0000; stroke-width: 0.5; stroke-linecap: round"/>
   </g>
   <g id="line2d_56"/>
   <g id="line2d_57"/>
   <g id="line2d_58"/>
   <g id="patch_3">
    <path d="M 62.859141 292.196062 
L 62.859141 26.084062 
" style="fill: none; stroke: #262626; stroke-width: 1.25; stroke-linejoin: miter; stroke-linecap: square"/>
   </g>
   <g id="patch_4">
    <path d="M 419.979141 292.196062 
L 419.979141 26.084062 
" style="fill: none; stroke: #262626; stroke-width: 1.25; stroke-linejoin: miter; stroke-linecap: square"/>
   </g>
   <g id="patch_5">
    <path d="M 62.859141 292.196062 
L 419.979141 292.196062 
" style="fill: none; stroke: #262626; stroke-width: 1.25; stroke-linejoin: miter; stroke-linecap: square"/>
   </g>
   <g id="patch_6">
    <path d="M 62.859141 26.084062 
L 419.979141 26.084062 
" style="fill: none; stroke: #262626; stroke-width: 1.25; stroke-linejoin: miter; stroke-linecap: square"/>
   </g>
   <g id="text_16">
    <text style="fill: #262626; font: 18px 'sans-serif'; text-anchor: middle" x="241.419141" y="20.084062" transform="rotate(-0 241.419141 20.084062)">Alpha Diversity</text>
   </g>
   <g id="legend_1">
    <g id="patch_7">
     <path d="M 441.135141 171.877031 
L 565.436859 171.877031 
Q 568.736859 171.877031 568.736859 168.577031 
L 568.736859 29.384062 
Q 568.736859 26.084062 565.436859 26.084062 
L 441.135141 26.084062 
Q 437.835141 26.084062 437.835141 29.384062 
L 437.835141 168.577031 
Q 437.835141 171.877031 441.135141 171.877031 
z
" style="fill: #ffffff; opacity: 0.8; stroke: #cccccc; stroke-linejoin: miter"/>
    </g>
    <g id="line2d_59">
     <path d="M 444.435141 38.920547 
L 460.935141 38.920547 
L 477.435141 38.920547 
" style="fill: none; stroke: #000000; stroke-width: 1.5; stroke-linecap: round"/>
    </g>
    <g id="text_17">
     <text style="fill: #262626; font: 16.5px 'sans-serif'; text-anchor: start" x="490.635141" y="44.695547" transform="rotate(-0 490.635141 44.695547)">RC_AIR</text>
    </g>
    <g id="line2d_60">
     <path d="M 444.435141 62.260312 
L 460.935141 62.260312 
L 477.435141 62.260312 
" style="fill: none; stroke: #0000ff; stroke-width: 1.5; stroke-linecap: round"/>
    </g>
    <g id="text_18">
     <text style="fill: #262626; font: 16.5px 'sans-serif'; text-anchor: start" x="490.635141" y="68.035312" transform="rotate(-0 490.635141 68.035312)">HFD_AIR</text>
    </g>
    <g id="line2d_61">
     <path d="M 444.435141 85.801172 
L 460.935141 85.801172 
L 477.435141 85.801172 
" style="fill: none; stroke: #ff0000; stroke-width: 1.5; stroke-linecap: round"/>
    </g>
    <g id="text_19">
     <text style="fill: #262626; font: 16.5px 'sans-serif'; text-anchor: start" x="490.635141" y="91.576172" transform="rotate(-0 490.635141 91.576172)">HFD_IHC</text>
    </g>
    <g id="line2d_62">
     <path d="M 444.435141 109.342031 
L 460.935141 109.342031 
L 477.435141 109.342031 
" style="fill: none; stroke: #000000; stroke-width: 1.5; stroke-linecap: round"/>
    </g>
    <g id="text_20">
     <text style="fill: #262626; font: 16.5px 'sans-serif'; text-anchor: start" x="490.635141" y="115.117031" transform="rotate(-0 490.635141 115.117031)">RC_AIR</text>
    </g>
    <g id="line2d_63">
     <path d="M 444.435141 132.681797 
L 460.935141 132.681797 
L 477.435141 132.681797 
" style="fill: none; stroke: #0000ff; stroke-width: 1.5; stroke-linecap: round"/>
    </g>
    <g id="text_21">
     <text style="fill: #262626; font: 16.5px 'sans-serif'; text-anchor: start" x="490.635141" y="138.456797" transform="rotate(-0 490.635141 138.456797)">HFD_AIR</text>
    </g>
    <g id="line2d_64">
     <path d="M 444.435141 156.222656 
L 460.935141 156.222656 
L 477.435141 156.222656 
" style="fill: none; stroke: #ff0000; stroke-width: 1.5; stroke-linecap: round"/>
    </g>
    <g id="text_22">
     <text style="fill: #262626; font: 16.5px 'sans-serif'; text-anchor: start" x="490.635141" y="161.997656" transform="rotate(-0 490.635141 161.997656)">HFD_IHC</text>
    </g>
   </g>
  </g>
 </g>
 <defs>
  <clipPath id="p3c46ca43ac">
   <rect x="62.859141" y="26.084062" width="357.12" height="266.112"/>
  </clipPath>
 </defs>
</svg>
