<?xml version="1.0" encoding="utf-8" standalone="no"?>
<!DOCTYPE svg PUBLIC "-//W3C//DTD SVG 1.1//EN"
  "http://www.w3.org/Graphics/SVG/1.1/DTD/svg11.dtd">
<svg xmlns:xlink="http://www.w3.org/1999/xlink" width="567.605297pt" height="343.000828pt" viewBox="0 0 567.605297 343.000828" xmlns="http://www.w3.org/2000/svg" version="1.1">
 <metadata>
  <rdf:RDF xmlns:dc="http://purl.org/dc/elements/1.1/" xmlns:cc="http://creativecommons.org/ns#" xmlns:rdf="http://www.w3.org/1999/02/22-rdf-syntax-ns#">
   <cc:Work>
    <dc:type rdf:resource="http://purl.org/dc/dcmitype/StillImage"/>
    <dc:date>2024-07-09T18:21:37.633483</dc:date>
    <dc:format>image/svg+xml</dc:format>
    <dc:creator>
     <cc:Agent>
      <dc:title>Matplotlib v3.6.0, https://matplotlib.org/</dc:title>
     </cc:Agent>
    </dc:creator>
   </cc:Work>
  </rdf:RDF>
 </metadata>
 <defs>
  <style type="text/css">*{stroke-linejoin: round; stroke-linecap: butt}</style>
 </defs>
 <g id="figure_1">
  <g id="patch_1">
   <path d="M 0 343.000828 
L 567.605297 343.000828 
L 567.605297 0 
L 0 0 
z
" style="fill: #ffffff"/>
  </g>
  <g id="axes_1">
   <g id="patch_2">
    <path d="M 54.527578 292.196062 
L 411.647578 292.196062 
L 411.647578 26.084062 
L 54.527578 26.084062 
z
" style="fill: #ffffff"/>
   </g>
   <g id="matplotlib.axis_1">
    <g id="xtick_1">
     <g id="line2d_1">
      <defs>
       <path id="m46ac727565" d="M 0 0 
L 0 6 
" style="stroke: #262626; stroke-width: 1.25"/>
      </defs>
      <g>
       <use xlink:href="#m46ac727565" x="70.760305" y="292.196062" style="fill: #262626; stroke: #262626; stroke-width: 1.25"/>
      </g>
     </g>
     <g id="text_1">
      <text style="fill: #262626; font: 16.5px 'sans-serif'; text-anchor: middle" x="70.760305" y="313.506453" transform="rotate(-0 70.760305 313.506453)">10</text>
     </g>
    </g>
    <g id="xtick_2">
     <g id="line2d_2">
      <g>
       <use xlink:href="#m46ac727565" x="139.108631" y="292.196062" style="fill: #262626; stroke: #262626; stroke-width: 1.25"/>
      </g>
     </g>
     <g id="text_2">
      <text style="fill: #262626; font: 16.5px 'sans-serif'; text-anchor: middle" x="139.108631" y="313.506453" transform="rotate(-0 139.108631 313.506453)">12</text>
     </g>
    </g>
    <g id="xtick_3">
     <g id="line2d_3">
      <g>
       <use xlink:href="#m46ac727565" x="207.456956" y="292.196062" style="fill: #262626; stroke: #262626; stroke-width: 1.25"/>
      </g>
     </g>
     <g id="text_3">
      <text style="fill: #262626; font: 16.5px 'sans-serif'; text-anchor: middle" x="207.456956" y="313.506453" transform="rotate(-0 207.456956 313.506453)">14</text>
     </g>
    </g>
    <g id="xtick_4">
     <g id="line2d_4">
      <g>
       <use xlink:href="#m46ac727565" x="275.805281" y="292.196062" style="fill: #262626; stroke: #262626; stroke-width: 1.25"/>
      </g>
     </g>
     <g id="text_4">
      <text style="fill: #262626; font: 16.5px 'sans-serif'; text-anchor: middle" x="275.805281" y="313.506453" transform="rotate(-0 275.805281 313.506453)">16</text>
     </g>
    </g>
    <g id="xtick_5">
     <g id="line2d_5">
      <g>
       <use xlink:href="#m46ac727565" x="344.153607" y="292.196062" style="fill: #262626; stroke: #262626; stroke-width: 1.25"/>
      </g>
     </g>
     <g id="text_5">
      <text style="fill: #262626; font: 16.5px 'sans-serif'; text-anchor: middle" x="344.153607" y="313.506453" transform="rotate(-0 344.153607 313.506453)">18</text>
     </g>
    </g>
    <g id="text_6">
     <text style="fill: #262626; font: 16px 'sans-serif'; text-anchor: middle" x="233.087578" y="332.433328" transform="rotate(-0 233.087578 332.433328)">Host Age (weeks)</text>
    </g>
   </g>
   <g id="matplotlib.axis_2">
    <g id="ytick_1">
     <g id="line2d_6">
      <defs>
       <path id="m63f13f2dc5" d="M 0 0 
L -6 0 
" style="stroke: #262626; stroke-width: 1.25"/>
      </defs>
      <g>
       <use xlink:href="#m63f13f2dc5" x="54.527578" y="259.007932" style="fill: #262626; stroke: #262626; stroke-width: 1.25"/>
      </g>
     </g>
     <g id="text_7">
      <text style="fill: #262626; font: 16.5px 'sans-serif'; text-anchor: end" x="45.027578" y="264.913127" transform="rotate(-0 45.027578 264.913127)">−8</text>
     </g>
    </g>
    <g id="ytick_2">
     <g id="line2d_7">
      <g>
       <use xlink:href="#m63f13f2dc5" x="54.527578" y="223.062768" style="fill: #262626; stroke: #262626; stroke-width: 1.25"/>
      </g>
     </g>
     <g id="text_8">
      <text style="fill: #262626; font: 16.5px 'sans-serif'; text-anchor: end" x="45.027578" y="228.967963" transform="rotate(-0 45.027578 228.967963)">−6</text>
     </g>
    </g>
    <g id="ytick_3">
     <g id="line2d_8">
      <g>
       <use xlink:href="#m63f13f2dc5" x="54.527578" y="187.117604" style="fill: #262626; stroke: #262626; stroke-width: 1.25"/>
      </g>
     </g>
     <g id="text_9">
      <text style="fill: #262626; font: 16.5px 'sans-serif'; text-anchor: end" x="45.027578" y="193.022799" transform="rotate(-0 45.027578 193.022799)">−4</text>
     </g>
    </g>
    <g id="ytick_4">
     <g id="line2d_9">
      <g>
       <use xlink:href="#m63f13f2dc5" x="54.527578" y="151.17244" style="fill: #262626; stroke: #262626; stroke-width: 1.25"/>
      </g>
     </g>
     <g id="text_10">
      <text style="fill: #262626; font: 16.5px 'sans-serif'; text-anchor: end" x="45.027578" y="157.077635" transform="rotate(-0 45.027578 157.077635)">−2</text>
     </g>
    </g>
    <g id="ytick_5">
     <g id="line2d_10">
      <g>
       <use xlink:href="#m63f13f2dc5" x="54.527578" y="115.227276" style="fill: #262626; stroke: #262626; stroke-width: 1.25"/>
      </g>
     </g>
     <g id="text_11">
      <text style="fill: #262626; font: 16.5px 'sans-serif'; text-anchor: end" x="45.027578" y="121.132472" transform="rotate(-0 45.027578 121.132472)">0</text>
     </g>
    </g>
    <g id="ytick_6">
     <g id="line2d_11">
      <g>
       <use xlink:href="#m63f13f2dc5" x="54.527578" y="79.282112" style="fill: #262626; stroke: #262626; stroke-width: 1.25"/>
      </g>
     </g>
     <g id="text_12">
      <text style="fill: #262626; font: 16.5px 'sans-serif'; text-anchor: end" x="45.027578" y="85.187308" transform="rotate(-0 45.027578 85.187308)">2</text>
     </g>
    </g>
    <g id="ytick_7">
     <g id="line2d_12">
      <g>
       <use xlink:href="#m63f13f2dc5" x="54.527578" y="43.336948" style="fill: #262626; stroke: #262626; stroke-width: 1.25"/>
      </g>
     </g>
     <g id="text_13">
      <text style="fill: #262626; font: 16.5px 'sans-serif'; text-anchor: end" x="45.027578" y="49.242144" transform="rotate(-0 45.027578 49.242144)">4</text>
     </g>
    </g>
    <g id="text_14">
     <text style="fill: #262626; font: 16px 'sans-serif'; text-anchor: middle" x="18.8475" y="159.140062" transform="rotate(-90 18.8475 159.140062)">Ln (Top/Bot 10 Microbes) from Axis 1</text>
    </g>
   </g>
   <g id="line2d_13">
    <path d="M 70.760305 70.590695 
L 87.847387 70.927631 
L 104.934468 74.062618 
L 122.021549 68.806287 
L 139.108631 76.193383 
L 156.195712 87.288872 
L 173.282793 91.696469 
L 190.369875 94.464316 
L 207.456956 82.907468 
L 224.544037 86.639553 
L 241.631119 92.259038 
L 258.7182 92.300666 
L 275.805281 90.170887 
L 292.892363 83.303994 
L 309.979444 80.158531 
L 327.066525 87.833573 
L 344.153607 98.051732 
L 361.240688 101.833868 
L 378.32777 107.944889 
L 395.414851 107.403475 
" clip-path="url(#p20a5fc250c)" style="fill: none; stroke: #000000; stroke-width: 5; stroke-linecap: round"/>
   </g>
   <g id="line2d_14">
    <path d="M 70.760305 92.742883 
L 87.847387 143.288424 
L 104.934468 163.341432 
L 122.021549 151.084557 
L 139.108631 136.555046 
L 156.195712 133.649694 
L 173.282793 118.782547 
L 190.369875 113.14983 
L 207.456956 118.688135 
L 224.544037 122.214665 
L 241.631119 122.155465 
L 258.7182 114.206509 
L 275.805281 127.285543 
L 292.892363 114.572597 
L 309.979444 113.464825 
L 327.066525 105.516723 
L 344.153607 113.73177 
L 361.240688 120.557618 
L 378.32777 110.304271 
L 395.414851 109.177073 
" clip-path="url(#p20a5fc250c)" style="fill: none; stroke: #0000ff; stroke-width: 5; stroke-linecap: round"/>
   </g>
   <g id="line2d_15">
    <path d="M 70.760305 158.386816 
L 87.847387 160.010927 
L 104.934468 228.305844 
L 122.021549 240.509261 
L 139.108631 231.922573 
L 156.195712 231.593513 
L 173.282793 214.11626 
L 190.369875 220.762336 
L 207.456956 217.106183 
L 224.544037 222.145349 
L 241.631119 195.097095 
L 258.7182 188.865483 
L 275.805281 198.112099 
L 292.892363 197.773139 
L 309.979444 208.422113 
L 327.066525 207.715486 
L 344.153607 199.383069 
L 361.240688 203.555661 
L 378.32777 200.124224 
L 395.414851 189.206401 
" clip-path="url(#p20a5fc250c)" style="fill: none; stroke: #ff0000; stroke-width: 5; stroke-linecap: round"/>
   </g>
   <g id="line2d_16"/>
   <g id="line2d_17"/>
   <g id="line2d_18"/>
   <g id="line2d_19">
    <path d="M 70.760305 45.28471 
L 87.847387 68.188579 
L 104.934468 73.704586 
L 122.021549 52.982309 
L 139.108631 79.963793 
L 156.195712 71.245379 
L 173.282793 82.028877 
L 190.369875 82.576515 
L 207.456956 79.433084 
L 224.544037 82.243669 
L 241.631119 81.302928 
L 258.7182 68.577463 
L 275.805281 69.943248 
L 292.892363 61.269591 
L 309.979444 74.245397 
L 327.066525 62.420473 
L 344.153607 73.069056 
L 361.240688 96.804066 
L 378.32777 109.977459 
L 395.414851 120.318665 
" clip-path="url(#p20a5fc250c)" style="fill: none; stroke: #000000; stroke-width: 0.5; stroke-linecap: round"/>
   </g>
   <g id="line2d_20">
    <path d="M 70.760305 79.715335 
L 87.847387 55.652524 
L 104.934468 51.033513 
L 122.021549 56.164857 
L 139.108631 69.591393 
L 156.195712 64.529267 
L 173.282793 74.831256 
L 190.369875 87.485329 
L 207.456956 79.494556 
L 224.544037 99.282831 
L 241.631119 75.484749 
L 258.7182 78.478736 
L 275.805281 70.592545 
L 292.892363 93.25942 
L 309.979444 85.141598 
L 327.066525 71.980912 
L 344.153607 89.854127 
L 361.240688 92.363439 
L 378.32777 117.028832 
L 395.414851 110.002064 
" clip-path="url(#p20a5fc250c)" style="fill: none; stroke: #000000; stroke-width: 0.5; stroke-linecap: round"/>
   </g>
   <g id="line2d_21">
    <path d="M 70.760305 54.837773 
L 87.847387 47.984263 
L 122.021549 58.241218 
L 139.108631 51.076762 
L 156.195712 53.425174 
L 173.282793 44.836149 
L 190.369875 60.666864 
L 207.456956 83.766656 
L 224.544037 71.59284 
L 241.631119 92.77984 
L 258.7182 88.520132 
L 275.805281 73.981716 
L 292.892363 76.340174 
L 309.979444 82.341433 
L 327.066525 81.391363 
L 344.153607 92.5618 
L 361.240688 98.368811 
L 378.32777 117.951812 
L 395.414851 111.420013 
" clip-path="url(#p20a5fc250c)" style="fill: none; stroke: #000000; stroke-width: 0.5; stroke-linecap: round"/>
   </g>
   <g id="line2d_22">
    <path d="M 70.760305 98.708992 
L 87.847387 69.894952 
L 104.934468 53.533501 
L 122.021549 48.854677 
L 139.108631 71.424277 
L 156.195712 78.286397 
L 173.282793 63.051797 
L 190.369875 72.980897 
L 207.456956 68.395927 
L 224.544037 83.761417 
L 241.631119 76.077509 
L 258.7182 99.440513 
L 275.805281 99.750755 
L 292.892363 84.15534 
L 309.979444 91.329732 
L 327.066525 93.815341 
L 344.153607 89.872219 
L 361.240688 83.873944 
L 378.32777 103.190554 
L 395.414851 107.995068 
" clip-path="url(#p20a5fc250c)" style="fill: none; stroke: #000000; stroke-width: 0.5; stroke-linecap: round"/>
   </g>
   <g id="line2d_23">
    <path d="M 70.760305 67.164319 
L 87.847387 88.818619 
L 104.934468 67.230518 
L 122.021549 71.147177 
L 139.108631 62.159244 
L 156.195712 120.109502 
L 173.282793 93.991071 
L 190.369875 121.24663 
L 207.456956 66.873887 
L 224.544037 78.598724 
L 258.7182 96.545375 
L 275.805281 81.951827 
L 292.892363 68.257684 
L 309.979444 70.866915 
L 327.066525 91.743945 
L 344.153607 115.630794 
L 361.240688 104.096003 
L 378.32777 98.347876 
L 395.414851 98.598704 
" clip-path="url(#p20a5fc250c)" style="fill: none; stroke: #000000; stroke-width: 0.5; stroke-linecap: round"/>
   </g>
   <g id="line2d_24">
    <path d="M 70.760305 55.416418 
L 87.847387 61.35148 
L 104.934468 69.367717 
L 122.021549 76.678637 
L 139.108631 89.456782 
L 156.195712 107.353165 
L 173.282793 115.480585 
L 190.369875 116.126926 
L 207.456956 83.525493 
L 224.544037 89.048279 
L 241.631119 90.196622 
L 258.7182 95.98264 
L 275.805281 110.616625 
L 292.892363 71.140974 
L 309.979444 45.398581 
L 327.066525 94.053167 
L 344.153607 86.5723 
L 361.240688 88.223848 
L 378.32777 82.843189 
L 395.414851 92.428029 
" clip-path="url(#p20a5fc250c)" style="fill: none; stroke: #000000; stroke-width: 0.5; stroke-linecap: round"/>
   </g>
   <g id="line2d_25">
    <path d="M 70.760305 84.440628 
L 87.847387 67.033982 
L 104.934468 74.789613 
L 122.021549 60.025815 
L 139.108631 81.184376 
L 156.195712 94.721563 
L 173.282793 107.909348 
L 190.369875 99.800419 
L 207.456956 74.078241 
L 224.544037 90.541172 
L 241.631119 91.621464 
L 258.7182 83.20123 
L 292.892363 82.059998 
L 309.979444 59.774297 
L 327.066525 85.437648 
L 344.153607 140.435141 
L 361.240688 120.718839 
L 378.32777 114.781686 
L 395.414851 90.498095 
" clip-path="url(#p20a5fc250c)" style="fill: none; stroke: #000000; stroke-width: 0.5; stroke-linecap: round"/>
   </g>
   <g id="line2d_26">
    <path d="M 70.760305 57.555656 
L 87.847387 81.851441 
L 104.934468 51.261373 
L 122.021549 67.172278 
L 139.108631 94.204535 
L 156.195712 102.205715 
L 173.282793 116.98119 
L 190.369875 97.452095 
L 207.456956 90.427567 
L 224.544037 76.59075 
L 241.631119 95.60091 
L 258.7182 94.012153 
L 275.805281 95.339997 
L 292.892363 72.307095 
L 309.979444 60.807831 
L 327.066525 90.429748 
L 344.153607 101.748832 
L 361.240688 89.892454 
L 378.32777 102.033151 
L 395.414851 96.423565 
" clip-path="url(#p20a5fc250c)" style="fill: none; stroke: #000000; stroke-width: 0.5; stroke-linecap: round"/>
   </g>
   <g id="line2d_27">
    <path d="M 70.760305 69.951007 
L 87.847387 62.483205 
L 104.934468 106.160636 
L 122.021549 87.216212 
L 139.108631 66.792391 
L 156.195712 72.412342 
L 173.282793 116.272526 
L 190.369875 95.016838 
L 207.456956 77.453221 
L 224.544037 88.866799 
L 241.631119 107.177354 
L 258.7182 96.586514 
L 275.805281 89.312994 
L 292.892363 92.221919 
L 309.979444 102.08843 
L 327.066525 92.8624 
L 344.153607 103.327298 
L 361.240688 117.87457 
L 378.32777 108.099586 
L 395.414851 121.12617 
" clip-path="url(#p20a5fc250c)" style="fill: none; stroke: #000000; stroke-width: 0.5; stroke-linecap: round"/>
   </g>
   <g id="line2d_28">
    <path d="M 70.760305 57.635147 
L 87.847387 68.365446 
L 104.934468 58.328179 
L 122.021549 87.593976 
L 139.108631 87.848504 
L 156.195712 105.687785 
L 173.282793 86.721952 
L 190.369875 100.881318 
L 207.456956 80.9198 
L 224.544037 65.709273 
L 241.631119 103.763908 
L 258.7182 104.02558 
L 275.805281 96.646134 
L 292.892363 88.532562 
L 309.979444 91.502846 
L 327.066525 78.871487 
L 344.153607 96.684935 
L 361.240688 115.861804 
L 378.32777 125.164717 
L 395.414851 107.801507 
" clip-path="url(#p20a5fc250c)" style="fill: none; stroke: #000000; stroke-width: 0.5; stroke-linecap: round"/>
   </g>
   <g id="line2d_29">
    <path d="M 70.760305 93.514521 
L 87.847387 85.796699 
L 104.934468 107.443052 
L 122.021549 74.018652 
L 139.108631 56.242413 
L 156.195712 82.315305 
L 173.282793 91.839239 
L 190.369875 99.960202 
L 207.456956 84.114313 
L 224.544037 96.743636 
L 241.631119 88.36711 
L 258.7182 92.366058 
L 275.805281 107.940021 
L 292.892363 98.714074 
L 309.979444 100.915145 
L 327.066525 109.211436 
L 344.153607 94.614409 
L 361.240688 107.206651 
L 378.32777 95.209711 
L 395.414851 112.235574 
" clip-path="url(#p20a5fc250c)" style="fill: none; stroke: #000000; stroke-width: 0.5; stroke-linecap: round"/>
   </g>
   <g id="line2d_30">
    <path d="M 70.760305 82.863831 
L 87.847387 93.710383 
L 104.934468 101.836109 
L 122.021549 85.579634 
L 139.108631 104.376124 
L 156.195712 95.174869 
L 173.282793 106.413637 
L 190.369875 99.377756 
L 207.456956 126.40687 
L 224.544037 116.695241 
L 241.631119 112.477018 
L 258.7182 109.871601 
L 275.805281 95.803898 
L 292.892363 111.389098 
L 309.979444 97.490163 
L 327.066525 101.784951 
L 344.153607 92.249868 
L 361.240688 106.72199 
L 378.32777 120.710097 
L 395.414851 119.994248 
" clip-path="url(#p20a5fc250c)" style="fill: none; stroke: #000000; stroke-width: 0.5; stroke-linecap: round"/>
   </g>
   <g id="line2d_31">
    <path d="M 70.760305 78.488396 
L 87.847387 153.110489 
L 104.934468 173.840298 
L 139.108631 152.188287 
L 156.195712 126.148085 
L 173.282793 125.2692 
L 190.369875 142.081069 
L 224.544037 145.390653 
L 241.631119 133.897908 
L 258.7182 119.996774 
L 275.805281 127.611604 
L 292.892363 117.51668 
L 309.979444 123.936887 
L 327.066525 128.050512 
L 344.153607 114.819756 
L 361.240688 128.078383 
L 378.32777 128.426901 
L 395.414851 100.296376 
" clip-path="url(#p20a5fc250c)" style="fill: none; stroke: #0000ff; stroke-width: 0.5; stroke-linecap: round"/>
   </g>
   <g id="line2d_32">
    <path d="M 70.760305 86.941526 
L 87.847387 166.932566 
L 104.934468 174.982683 
L 122.021549 161.72667 
L 139.108631 114.367614 
L 156.195712 120.494681 
L 173.282793 96.625194 
L 190.369875 106.003347 
L 207.456956 98.763108 
L 224.544037 105.682298 
L 241.631119 130.922511 
L 258.7182 99.954674 
L 275.805281 105.813765 
L 292.892363 119.176144 
L 309.979444 114.863302 
L 327.066525 109.960586 
L 344.153607 112.901129 
L 361.240688 134.118245 
L 378.32777 105.17066 
L 395.414851 107.104552 
" clip-path="url(#p20a5fc250c)" style="fill: none; stroke: #0000ff; stroke-width: 0.5; stroke-linecap: round"/>
   </g>
   <g id="line2d_33">
    <path d="M 70.760305 107.952177 
L 87.847387 144.675583 
L 104.934468 168.84324 
L 122.021549 186.811866 
L 139.108631 119.5265 
L 156.195712 130.381066 
L 173.282793 107.57777 
L 190.369875 98.065129 
L 207.456956 101.403969 
L 224.544037 104.805247 
L 241.631119 111.438396 
L 258.7182 81.510181 
L 275.805281 117.687849 
L 292.892363 101.399339 
L 309.979444 97.282332 
L 327.066525 38.180062 
L 344.153607 83.89558 
L 361.240688 136.036808 
L 378.32777 74.08291 
L 395.414851 97.305574 
" clip-path="url(#p20a5fc250c)" style="fill: none; stroke: #0000ff; stroke-width: 0.5; stroke-linecap: round"/>
   </g>
   <g id="line2d_34">
    <path d="M 70.760305 102.109643 
L 87.847387 170.354621 
L 104.934468 174.242948 
L 139.108631 128.61919 
L 156.195712 161.732425 
L 173.282793 138.318761 
L 190.369875 132.852224 
L 207.456956 97.42309 
L 224.544037 98.487441 
L 241.631119 105.026995 
L 258.7182 80.362793 
L 275.805281 98.22406 
L 292.892363 69.759602 
L 309.979444 86.120755 
L 327.066525 92.713373 
L 344.153607 104.67121 
L 361.240688 116.805177 
L 378.32777 65.761556 
L 395.414851 88.719155 
" clip-path="url(#p20a5fc250c)" style="fill: none; stroke: #0000ff; stroke-width: 0.5; stroke-linecap: round"/>
   </g>
   <g id="line2d_35">
    <path d="M 70.760305 118.594982 
L 87.847387 142.712897 
L 104.934468 177.959289 
L 139.108631 133.241203 
L 156.195712 122.106385 
L 173.282793 120.495686 
L 207.456956 122.724801 
L 224.544037 139.821618 
L 241.631119 120.668636 
L 258.7182 128.898878 
L 275.805281 140.601517 
L 292.892363 136.229512 
L 309.979444 107.04919 
L 327.066525 120.124631 
L 344.153607 110.012027 
L 361.240688 110.339141 
L 378.32777 146.143986 
L 395.414851 138.053628 
" clip-path="url(#p20a5fc250c)" style="fill: none; stroke: #0000ff; stroke-width: 0.5; stroke-linecap: round"/>
   </g>
   <g id="line2d_36">
    <path d="M 70.760305 78.249676 
L 87.847387 155.154416 
L 104.934468 152.737343 
L 122.021549 122.458611 
L 139.108631 137.945426 
L 156.195712 118.04094 
L 173.282793 107.593551 
L 190.369875 109.167911 
L 207.456956 120.069193 
L 224.544037 123.469504 
L 241.631119 113.392516 
L 258.7182 117.161677 
L 275.805281 119.839642 
L 292.892363 99.815411 
L 309.979444 84.442252 
L 327.066525 72.266815 
L 344.153607 74.037561 
L 361.240688 103.088926 
L 378.32777 86.26151 
L 395.414851 63.493229 
" clip-path="url(#p20a5fc250c)" style="fill: none; stroke: #0000ff; stroke-width: 0.5; stroke-linecap: round"/>
   </g>
   <g id="line2d_37">
    <path d="M 70.760305 94.292311 
L 87.847387 127.606352 
L 104.934468 133.450441 
L 122.021549 127.932105 
L 139.108631 143.522775 
L 156.195712 148.046945 
L 190.369875 109.20334 
L 207.456956 127.597411 
L 224.544037 147.960734 
L 241.631119 139.682919 
L 258.7182 141.077814 
L 275.805281 147.05128 
L 292.892363 125.659959 
L 309.979444 136.107903 
L 327.066525 118.813747 
L 344.153607 130.046154 
L 361.240688 159.377701 
L 378.32777 106.63759 
L 395.414851 131.357602 
" clip-path="url(#p20a5fc250c)" style="fill: none; stroke: #0000ff; stroke-width: 0.5; stroke-linecap: round"/>
   </g>
   <g id="line2d_38">
    <path d="M 70.760305 72.273547 
L 87.847387 140.887274 
L 104.934468 161.786871 
L 122.021549 148.292194 
L 139.108631 131.557236 
L 156.195712 116.395952 
L 173.282793 125.369642 
L 190.369875 148.757014 
L 207.456956 162.237513 
L 224.544037 107.926219 
L 258.7182 124.035025 
L 275.805281 140.592333 
L 292.892363 131.717272 
L 309.979444 137.59674 
L 327.066525 131.606902 
L 344.153607 123.57339 
L 361.240688 120.730687 
L 378.32777 136.03457 
L 395.414851 136.379601 
" clip-path="url(#p20a5fc250c)" style="fill: none; stroke: #0000ff; stroke-width: 0.5; stroke-linecap: round"/>
   </g>
   <g id="line2d_39">
    <path d="M 70.760305 104.691737 
L 87.847387 139.225936 
L 104.934468 148.642081 
L 122.021549 145.417672 
L 139.108631 152.90104 
L 173.282793 114.638357 
L 190.369875 110.206091 
L 207.456956 123.558386 
L 224.544037 123.832377 
L 241.631119 97.01551 
L 258.7182 117.424376 
L 275.805281 150.595345 
L 292.892363 140.666063 
L 309.979444 110.651522 
L 327.066525 112.544325 
L 344.153607 138.693277 
L 361.240688 101.506041 
L 378.32777 119.638515 
L 395.414851 93.436087 
" clip-path="url(#p20a5fc250c)" style="fill: none; stroke: #0000ff; stroke-width: 0.5; stroke-linecap: round"/>
   </g>
   <g id="line2d_40">
    <path d="M 70.760305 91.285609 
L 87.847387 121.371801 
L 104.934468 159.896103 
L 122.021549 155.079617 
L 139.108631 127.785426 
L 156.195712 142.726426 
L 173.282793 108.871452 
L 190.369875 72.730284 
L 207.456956 121.915806 
L 224.544037 120.961482 
L 241.631119 117.836891 
L 258.7182 102.0138 
L 275.805281 111.56354 
L 292.892363 94.871195 
L 309.979444 102.592211 
L 327.066525 105.480563 
L 344.153607 109.62251 
L 361.240688 106.06294 
L 378.32777 103.286547 
L 395.414851 102.095537 
" clip-path="url(#p20a5fc250c)" style="fill: none; stroke: #0000ff; stroke-width: 0.5; stroke-linecap: round"/>
   </g>
   <g id="line2d_41">
    <path d="M 70.760305 92.761977 
L 87.847387 119.50098 
L 104.934468 178.934212 
L 122.021549 168.874295 
L 139.108631 153.553301 
L 156.195712 138.470103 
L 173.282793 134.591606 
L 190.369875 106.338325 
L 207.456956 119.070013 
L 224.544037 125.465269 
L 241.631119 142.027385 
L 258.7182 143.835605 
L 275.805281 132.837495 
L 292.892363 139.068129 
L 309.979444 143.454332 
L 327.066525 113.487478 
L 344.153607 130.422008 
L 361.240688 125.105296 
L 378.32777 135.402034 
L 395.414851 132.330548 
" clip-path="url(#p20a5fc250c)" style="fill: none; stroke: #0000ff; stroke-width: 0.5; stroke-linecap: round"/>
   </g>
   <g id="line2d_42">
    <path d="M 70.760305 85.273012 
L 87.847387 137.928168 
L 104.934468 154.781675 
L 122.021549 143.167985 
L 139.108631 143.452559 
L 156.195712 145.603623 
L 173.282793 127.256801 
L 190.369875 109.243393 
L 207.456956 110.806191 
L 224.544037 122.773134 
L 241.631119 131.800444 
L 275.805281 135.008089 
L 292.892363 98.991855 
L 309.979444 117.480472 
L 327.066525 122.971677 
L 344.153607 132.086638 
L 361.240688 105.442075 
L 378.32777 116.804475 
L 395.414851 119.552986 
" clip-path="url(#p20a5fc250c)" style="fill: none; stroke: #0000ff; stroke-width: 0.5; stroke-linecap: round"/>
   </g>
   <g id="line2d_43">
    <path d="M 70.760305 115.066086 
L 87.847387 125.936507 
L 104.934468 237.651919 
L 122.021549 249.730605 
L 139.108631 240.228666 
L 156.195712 230.313749 
L 173.282793 243.926166 
L 190.369875 238.444246 
L 207.456956 245.251527 
L 224.544037 252.591785 
L 275.805281 232.963895 
L 292.892363 169.569026 
L 309.979444 165.432802 
L 327.066525 174.311496 
L 344.153607 175.455484 
L 361.240688 180.917634 
L 378.32777 175.141882 
L 395.414851 152.416889 
" clip-path="url(#p20a5fc250c)" style="fill: none; stroke: #ff0000; stroke-width: 0.5; stroke-linecap: round"/>
   </g>
   <g id="line2d_44">
    <path d="M 70.760305 190.147805 
L 87.847387 195.322638 
L 104.934468 204.48166 
L 122.021549 246.935267 
L 139.108631 216.738101 
L 156.195712 239.933425 
L 173.282793 194.672789 
L 190.369875 184.930575 
L 207.456956 175.912626 
L 224.544037 167.898652 
L 241.631119 137.880962 
L 258.7182 151.272055 
L 275.805281 178.792883 
L 292.892363 181.837476 
L 309.979444 177.301189 
L 327.066525 172.481576 
L 344.153607 159.223963 
L 361.240688 165.867408 
L 378.32777 182.560302 
L 395.414851 187.472316 
" clip-path="url(#p20a5fc250c)" style="fill: none; stroke: #ff0000; stroke-width: 0.5; stroke-linecap: round"/>
   </g>
   <g id="line2d_45">
    <path d="M 70.760305 143.585001 
L 87.847387 127.843207 
L 104.934468 212.189428 
L 122.021549 215.938926 
L 139.108631 251.777113 
L 156.195712 223.547368 
L 190.369875 257.524756 
L 207.456956 193.616782 
L 224.544037 210.257565 
L 241.631119 204.254045 
L 275.805281 181.738755 
L 292.892363 196.975292 
L 309.979444 200.047251 
L 327.066525 195.719606 
L 344.153607 194.890764 
L 361.240688 207.496007 
L 378.32777 197.102874 
" clip-path="url(#p20a5fc250c)" style="fill: none; stroke: #ff0000; stroke-width: 0.5; stroke-linecap: round"/>
   </g>
   <g id="line2d_46">
    <path d="M 70.760305 171.227177 
L 87.847387 140.292634 
L 104.934468 199.723613 
L 139.108631 183.745929 
L 156.195712 201.981824 
L 173.282793 185.245582 
L 190.369875 191.704754 
L 207.456956 213.192342 
L 224.544037 195.191414 
L 241.631119 197.50053 
" clip-path="url(#p20a5fc250c)" style="fill: none; stroke: #ff0000; stroke-width: 0.5; stroke-linecap: round"/>
   </g>
   <g id="line2d_47">
    <path d="M 70.760305 130.823988 
L 87.847387 148.42713 
L 104.934468 222.825165 
L 122.021549 216.163421 
L 139.108631 248.596545 
L 156.195712 280.100062 
L 173.282793 249.098881 
L 190.369875 244.673234 
L 207.456956 159.996943 
L 224.544037 218.826206 
L 241.631119 206.710543 
L 258.7182 187.516633 
L 275.805281 186.575785 
L 292.892363 193.28674 
L 309.979444 211.000731 
L 327.066525 201.033954 
L 344.153607 187.097945 
L 361.240688 199.094382 
L 378.32777 194.225232 
L 395.414851 186.863353 
" clip-path="url(#p20a5fc250c)" style="fill: none; stroke: #ff0000; stroke-width: 0.5; stroke-linecap: round"/>
   </g>
   <g id="line2d_48">
    <path d="M 70.760305 201.320719 
L 87.847387 140.769382 
L 104.934468 235.689844 
L 122.021549 268.710159 
L 139.108631 221.280636 
L 156.195712 226.952027 
L 173.282793 218.851311 
L 190.369875 221.549132 
L 207.456956 269.827315 
L 224.544037 235.900983 
L 258.7182 225.623597 
L 275.805281 217.402697 
L 292.892363 266.321547 
L 309.979444 269.28706 
L 327.066525 271.88102 
L 344.153607 250.54291 
L 361.240688 253.768664 
L 378.32777 236.832122 
" clip-path="url(#p20a5fc250c)" style="fill: none; stroke: #ff0000; stroke-width: 0.5; stroke-linecap: round"/>
   </g>
   <g id="line2d_49">
    <path d="M 70.760305 202.709438 
L 87.847387 207.869456 
L 104.934468 236.435433 
L 122.021549 208.99748 
L 139.108631 236.880313 
L 156.195712 236.604769 
L 190.369875 261.344105 
L 207.456956 262.779523 
L 258.7182 182.538381 
L 275.805281 222.060651 
L 292.892363 250.850073 
L 309.979444 269.958922 
L 327.066525 252.462081 
L 361.240688 271.990169 
L 378.32777 238.749304 
L 395.414851 239.977659 
" clip-path="url(#p20a5fc250c)" style="fill: none; stroke: #ff0000; stroke-width: 0.5; stroke-linecap: round"/>
   </g>
   <g id="line2d_50">
    <path d="M 70.760305 184.624874 
L 87.847387 155.775218 
L 122.021549 260.144165 
L 139.108631 240.144908 
L 156.195712 232.8502 
L 173.282793 226.53655 
L 207.456956 224.59867 
L 224.544037 262.98848 
L 241.631119 192.170722 
L 258.7182 170.1303 
L 275.805281 184.888667 
L 292.892363 200.740661 
L 309.979444 235.538996 
L 327.066525 236.891352 
L 344.153607 257.058897 
L 378.32777 188.866302 
L 395.414851 180.333853 
" clip-path="url(#p20a5fc250c)" style="fill: none; stroke: #ff0000; stroke-width: 0.5; stroke-linecap: round"/>
   </g>
   <g id="line2d_51">
    <path d="M 70.760305 175.179668 
L 87.847387 189.518509 
L 104.934468 232.072238 
L 122.021549 264.254531 
L 139.108631 236.155034 
L 156.195712 218.465708 
L 173.282793 169.414726 
L 190.369875 145.698018 
L 224.544037 242.961857 
L 258.7182 191.720859 
L 275.805281 242.621783 
L 309.979444 260.332774 
L 327.066525 243.502598 
L 344.153607 270.647106 
L 361.240688 246.601285 
L 378.32777 253.670793 
L 395.414851 246.301634 
" clip-path="url(#p20a5fc250c)" style="fill: none; stroke: #ff0000; stroke-width: 0.5; stroke-linecap: round"/>
   </g>
   <g id="line2d_52">
    <path d="M 70.760305 112.67294 
L 87.847387 153.333886 
L 104.934468 219.610441 
L 122.021549 209.365712 
L 139.108631 244.01201 
L 156.195712 219.593689 
L 173.282793 207.613507 
L 190.369875 193.964703 
L 207.456956 220.651783 
L 224.544037 226.274437 
L 241.631119 204.437188 
L 258.7182 209.177725 
L 275.805281 176.617091 
L 292.892363 186.4147 
L 309.979444 167.699148 
L 327.066525 168.527294 
L 344.153607 165.569573 
L 361.240688 169.720545 
L 378.32777 178.206711 
L 395.414851 165.40002 
" clip-path="url(#p20a5fc250c)" style="fill: none; stroke: #ff0000; stroke-width: 0.5; stroke-linecap: round"/>
   </g>
   <g id="line2d_53">
    <path d="M 70.760305 123.219429 
L 87.847387 142.822934 
L 104.934468 267.206457 
L 139.108631 231.58905 
L 156.195712 219.444162 
L 173.282793 240.336333 
L 190.369875 244.203099 
L 207.456956 156.674957 
L 224.544037 208.562112 
L 241.631119 154.114533 
L 258.7182 145.658862 
L 275.805281 160.182395 
L 292.892363 165.976648 
L 309.979444 172.696502 
L 327.066525 160.343878 
L 344.153607 156.483788 
L 361.240688 155.46889 
L 378.32777 179.953351 
L 395.414851 173.080932 
" clip-path="url(#p20a5fc250c)" style="fill: none; stroke: #ff0000; stroke-width: 0.5; stroke-linecap: round"/>
   </g>
   <g id="line2d_54">
    <path d="M 70.760305 150.064663 
L 87.847387 192.219623 
L 104.934468 243.47809 
L 122.021549 264.852344 
L 156.195712 249.335171 
L 173.282793 205.466752 
L 190.369875 244.34907 
L 207.456956 265.665548 
L 241.631119 263.708237 
L 258.7182 236.150938 
L 275.805281 195.388483 
L 292.892363 165.759225 
L 309.979444 163.347871 
L 344.153607 176.860263 
L 361.240688 184.631624 
L 378.32777 176.057587 
L 395.414851 171.010949 
" clip-path="url(#p20a5fc250c)" style="fill: none; stroke: #ff0000; stroke-width: 0.5; stroke-linecap: round"/>
   </g>
   <g id="line2d_55"/>
   <g id="line2d_56"/>
   <g id="line2d_57"/>
   <g id="patch_3">
    <path d="M 54.527578 292.196062 
L 54.527578 26.084062 
" style="fill: none; stroke: #262626; stroke-width: 1.25; stroke-linejoin: miter; stroke-linecap: square"/>
   </g>
   <g id="patch_4">
    <path d="M 411.647578 292.196062 
L 411.647578 26.084062 
" style="fill: none; stroke: #262626; stroke-width: 1.25; stroke-linejoin: miter; stroke-linecap: square"/>
   </g>
   <g id="patch_5">
    <path d="M 54.527578 292.196062 
L 411.647578 292.196062 
" style="fill: none; stroke: #262626; stroke-width: 1.25; stroke-linejoin: miter; stroke-linecap: square"/>
   </g>
   <g id="patch_6">
    <path d="M 54.527578 26.084062 
L 411.647578 26.084062 
" style="fill: none; stroke: #262626; stroke-width: 1.25; stroke-linejoin: miter; stroke-linecap: square"/>
   </g>
   <g id="text_15">
    <text style="fill: #262626; font: 18px 'sans-serif'; text-anchor: middle" x="233.087578" y="20.084062" transform="rotate(-0 233.087578 20.084062)">TEMPTED</text>
   </g>
   <g id="legend_1">
    <g id="patch_7">
     <path d="M 432.803578 171.877031 
L 557.105297 171.877031 
Q 560.405297 171.877031 560.405297 168.577031 
L 560.405297 29.384062 
Q 560.405297 26.084062 557.105297 26.084062 
L 432.803578 26.084062 
Q 429.503578 26.084062 429.503578 29.384062 
L 429.503578 168.577031 
Q 429.503578 171.877031 432.803578 171.877031 
z
" style="fill: #ffffff; opacity: 0.8; stroke: #cccccc; stroke-linejoin: miter"/>
    </g>
    <g id="line2d_58">
     <path d="M 436.103578 38.920547 
L 452.603578 38.920547 
L 469.103578 38.920547 
" style="fill: none; stroke: #000000; stroke-width: 1.5; stroke-linecap: round"/>
    </g>
    <g id="text_16">
     <text style="fill: #262626; font: 16.5px 'sans-serif'; text-anchor: start" x="482.303578" y="44.695547" transform="rotate(-0 482.303578 44.695547)">RC_AIR</text>
    </g>
    <g id="line2d_59">
     <path d="M 436.103578 62.260312 
L 452.603578 62.260312 
L 469.103578 62.260312 
" style="fill: none; stroke: #0000ff; stroke-width: 1.5; stroke-linecap: round"/>
    </g>
    <g id="text_17">
     <text style="fill: #262626; font: 16.5px 'sans-serif'; text-anchor: start" x="482.303578" y="68.035312" transform="rotate(-0 482.303578 68.035312)">HFD_AIR</text>
    </g>
    <g id="line2d_60">
     <path d="M 436.103578 85.801172 
L 452.603578 85.801172 
L 469.103578 85.801172 
" style="fill: none; stroke: #ff0000; stroke-width: 1.5; stroke-linecap: round"/>
    </g>
    <g id="text_18">
     <text style="fill: #262626; font: 16.5px 'sans-serif'; text-anchor: start" x="482.303578" y="91.576172" transform="rotate(-0 482.303578 91.576172)">HFD_IHC</text>
    </g>
    <g id="line2d_61">
     <path d="M 436.103578 109.342031 
L 452.603578 109.342031 
L 469.103578 109.342031 
" style="fill: none; stroke: #000000; stroke-width: 1.5; stroke-linecap: round"/>
    </g>
    <g id="text_19">
     <text style="fill: #262626; font: 16.5px 'sans-serif'; text-anchor: start" x="482.303578" y="115.117031" transform="rotate(-0 482.303578 115.117031)">RC_AIR</text>
    </g>
    <g id="line2d_62">
     <path d="M 436.103578 132.681797 
L 452.603578 132.681797 
L 469.103578 132.681797 
" style="fill: none; stroke: #0000ff; stroke-width: 1.5; stroke-linecap: round"/>
    </g>
    <g id="text_20">
     <text style="fill: #262626; font: 16.5px 'sans-serif'; text-anchor: start" x="482.303578" y="138.456797" transform="rotate(-0 482.303578 138.456797)">HFD_AIR</text>
    </g>
    <g id="line2d_63">
     <path d="M 436.103578 156.222656 
L 452.603578 156.222656 
L 469.103578 156.222656 
" style="fill: none; stroke: #ff0000; stroke-width: 1.5; stroke-linecap: round"/>
    </g>
    <g id="text_21">
     <text style="fill: #262626; font: 16.5px 'sans-serif'; text-anchor: start" x="482.303578" y="161.997656" transform="rotate(-0 482.303578 161.997656)">HFD_IHC</text>
    </g>
   </g>
  </g>
 </g>
 <defs>
  <clipPath id="p20a5fc250c">
   <rect x="54.527578" y="26.084062" width="357.12" height="266.112"/>
  </clipPath>
 </defs>
</svg>
