<?xml version="1.0" encoding="utf-8" standalone="no"?>
<!DOCTYPE svg PUBLIC "-//W3C//DTD SVG 1.1//EN"
  "http://www.w3.org/Graphics/SVG/1.1/DTD/svg11.dtd">
<svg xmlns:xlink="http://www.w3.org/1999/xlink" width="557.968266pt" height="343.000828pt" viewBox="0 0 557.968266 343.000828" xmlns="http://www.w3.org/2000/svg" version="1.1">
 <metadata>
  <rdf:RDF xmlns:dc="http://purl.org/dc/elements/1.1/" xmlns:cc="http://creativecommons.org/ns#" xmlns:rdf="http://www.w3.org/1999/02/22-rdf-syntax-ns#">
   <cc:Work>
    <dc:type rdf:resource="http://purl.org/dc/dcmitype/StillImage"/>
    <dc:date>2024-07-10T12:42:43.241042</dc:date>
    <dc:format>image/svg+xml</dc:format>
    <dc:creator>
     <cc:Agent>
      <dc:title>Matplotlib v3.6.0, https://matplotlib.org/</dc:title>
     </cc:Agent>
    </dc:creator>
   </cc:Work>
  </rdf:RDF>
 </metadata>
 <defs>
  <style type="text/css">*{stroke-linejoin: round; stroke-linecap: butt}</style>
 </defs>
 <g id="figure_1">
  <g id="patch_1">
   <path d="M 0 343.000828 
L 557.968266 343.000828 
L 557.968266 0 
L 0 0 
z
" style="fill: #ffffff"/>
  </g>
  <g id="axes_1">
   <g id="patch_2">
    <path d="M 44.890547 292.196062 
L 402.010547 292.196062 
L 402.010547 26.084062 
L 44.890547 26.084062 
z
" style="fill: #ffffff"/>
   </g>
   <g id="matplotlib.axis_1">
    <g id="xtick_1">
     <g id="line2d_1">
      <defs>
       <path id="m9bd3937ec9" d="M 0 0 
L 0 6 
" style="stroke: #262626; stroke-width: 1.25"/>
      </defs>
      <g>
       <use xlink:href="#m9bd3937ec9" x="61.123274" y="292.196062" style="fill: #262626; stroke: #262626; stroke-width: 1.25"/>
      </g>
     </g>
     <g id="text_1">
      <text style="fill: #262626; font: 16.5px 'sans-serif'; text-anchor: middle" x="61.123274" y="313.506453" transform="rotate(-0 61.123274 313.506453)">10</text>
     </g>
    </g>
    <g id="xtick_2">
     <g id="line2d_2">
      <g>
       <use xlink:href="#m9bd3937ec9" x="129.4716" y="292.196062" style="fill: #262626; stroke: #262626; stroke-width: 1.25"/>
      </g>
     </g>
     <g id="text_2">
      <text style="fill: #262626; font: 16.5px 'sans-serif'; text-anchor: middle" x="129.4716" y="313.506453" transform="rotate(-0 129.4716 313.506453)">12</text>
     </g>
    </g>
    <g id="xtick_3">
     <g id="line2d_3">
      <g>
       <use xlink:href="#m9bd3937ec9" x="197.819925" y="292.196062" style="fill: #262626; stroke: #262626; stroke-width: 1.25"/>
      </g>
     </g>
     <g id="text_3">
      <text style="fill: #262626; font: 16.5px 'sans-serif'; text-anchor: middle" x="197.819925" y="313.506453" transform="rotate(-0 197.819925 313.506453)">14</text>
     </g>
    </g>
    <g id="xtick_4">
     <g id="line2d_4">
      <g>
       <use xlink:href="#m9bd3937ec9" x="266.16825" y="292.196062" style="fill: #262626; stroke: #262626; stroke-width: 1.25"/>
      </g>
     </g>
     <g id="text_4">
      <text style="fill: #262626; font: 16.5px 'sans-serif'; text-anchor: middle" x="266.16825" y="313.506453" transform="rotate(-0 266.16825 313.506453)">16</text>
     </g>
    </g>
    <g id="xtick_5">
     <g id="line2d_5">
      <g>
       <use xlink:href="#m9bd3937ec9" x="334.516576" y="292.196062" style="fill: #262626; stroke: #262626; stroke-width: 1.25"/>
      </g>
     </g>
     <g id="text_5">
      <text style="fill: #262626; font: 16.5px 'sans-serif'; text-anchor: middle" x="334.516576" y="313.506453" transform="rotate(-0 334.516576 313.506453)">18</text>
     </g>
    </g>
    <g id="text_6">
     <text style="fill: #262626; font: 16px 'sans-serif'; text-anchor: middle" x="223.450547" y="332.433328" transform="rotate(-0 223.450547 332.433328)">Host Age (weeks)</text>
    </g>
   </g>
   <g id="matplotlib.axis_2">
    <g id="ytick_1">
     <g id="line2d_6">
      <defs>
       <path id="mc40ae4a984" d="M 0 0 
L -6 0 
" style="stroke: #262626; stroke-width: 1.25"/>
      </defs>
      <g>
       <use xlink:href="#mc40ae4a984" x="44.890547" y="256.220742" style="fill: #262626; stroke: #262626; stroke-width: 1.25"/>
      </g>
     </g>
     <g id="text_7">
      <text style="fill: #262626; font: 16.5px 'sans-serif'; text-anchor: end" x="35.390547" y="262.125937" transform="rotate(-0 35.390547 262.125937)">2</text>
     </g>
    </g>
    <g id="ytick_2">
     <g id="line2d_7">
      <g>
       <use xlink:href="#mc40ae4a984" x="44.890547" y="216.326701" style="fill: #262626; stroke: #262626; stroke-width: 1.25"/>
      </g>
     </g>
     <g id="text_8">
      <text style="fill: #262626; font: 16.5px 'sans-serif'; text-anchor: end" x="35.390547" y="222.231897" transform="rotate(-0 35.390547 222.231897)">3</text>
     </g>
    </g>
    <g id="ytick_3">
     <g id="line2d_8">
      <g>
       <use xlink:href="#mc40ae4a984" x="44.890547" y="176.43266" style="fill: #262626; stroke: #262626; stroke-width: 1.25"/>
      </g>
     </g>
     <g id="text_9">
      <text style="fill: #262626; font: 16.5px 'sans-serif'; text-anchor: end" x="35.390547" y="182.337856" transform="rotate(-0 35.390547 182.337856)">4</text>
     </g>
    </g>
    <g id="ytick_4">
     <g id="line2d_9">
      <g>
       <use xlink:href="#mc40ae4a984" x="44.890547" y="136.538619" style="fill: #262626; stroke: #262626; stroke-width: 1.25"/>
      </g>
     </g>
     <g id="text_10">
      <text style="fill: #262626; font: 16.5px 'sans-serif'; text-anchor: end" x="35.390547" y="142.443815" transform="rotate(-0 35.390547 142.443815)">5</text>
     </g>
    </g>
    <g id="ytick_5">
     <g id="line2d_10">
      <g>
       <use xlink:href="#mc40ae4a984" x="44.890547" y="96.644578" style="fill: #262626; stroke: #262626; stroke-width: 1.25"/>
      </g>
     </g>
     <g id="text_11">
      <text style="fill: #262626; font: 16.5px 'sans-serif'; text-anchor: end" x="35.390547" y="102.549774" transform="rotate(-0 35.390547 102.549774)">6</text>
     </g>
    </g>
    <g id="ytick_6">
     <g id="line2d_11">
      <g>
       <use xlink:href="#mc40ae4a984" x="44.890547" y="56.750538" style="fill: #262626; stroke: #262626; stroke-width: 1.25"/>
      </g>
     </g>
     <g id="text_12">
      <text style="fill: #262626; font: 16.5px 'sans-serif'; text-anchor: end" x="35.390547" y="62.655733" transform="rotate(-0 35.390547 62.655733)">7</text>
     </g>
    </g>
    <g id="text_13">
     <text style="fill: #262626; font: 16px 'sans-serif'; text-anchor: middle" x="18.8475" y="159.140062" transform="rotate(-90 18.8475 159.140062)">Shannon Entropy</text>
    </g>
   </g>
   <g id="line2d_12">
    <path d="M 61.123274 164.38129 
L 78.210355 131.465386 
L 95.297437 140.544987 
L 112.384518 153.209517 
L 129.4716 146.66401 
L 146.558681 156.648429 
L 163.645762 167.05897 
L 180.732844 172.256556 
L 197.819925 166.201536 
L 214.907006 199.69829 
L 231.994088 171.678681 
L 249.081169 155.024778 
L 266.16825 154.9967 
L 283.255332 175.66844 
L 300.342413 174.8617 
L 317.429494 182.802139 
L 334.516576 197.718066 
L 351.603657 197.866696 
L 368.690738 211.646579 
L 385.77782 203.692395 
" clip-path="url(#p9d9b6015b0)" style="fill: none; stroke: #000000; stroke-width: 5; stroke-linecap: round"/>
   </g>
   <g id="line2d_13">
    <path d="M 61.123274 178.834868 
L 78.210355 168.370882 
L 95.297437 190.529236 
L 112.384518 181.177871 
L 129.4716 163.43093 
L 146.558681 168.824926 
L 163.645762 157.392508 
L 180.732844 166.044988 
L 197.819925 176.364171 
L 214.907006 160.988869 
L 231.994088 165.346644 
L 249.081169 156.229379 
L 266.16825 176.510808 
L 283.255332 150.648537 
L 300.342413 166.385894 
L 317.429494 170.286132 
L 334.516576 165.226613 
L 351.603657 165.993551 
L 368.690738 163.345804 
L 385.77782 162.517071 
" clip-path="url(#p9d9b6015b0)" style="fill: none; stroke: #0000ff; stroke-width: 5; stroke-linecap: round"/>
   </g>
   <g id="line2d_14">
    <path d="M 61.123274 189.848856 
L 78.210355 169.606791 
L 95.297437 194.996163 
L 112.384518 203.330912 
L 129.4716 196.260477 
L 146.558681 195.025069 
L 163.645762 179.178938 
L 180.732844 187.630309 
L 197.819925 190.8779 
L 214.907006 209.774278 
L 231.994088 185.730493 
L 249.081169 168.755064 
L 266.16825 194.345467 
L 283.255332 207.712187 
L 300.342413 193.521187 
L 317.429494 190.859179 
L 334.516576 197.022272 
L 351.603657 203.204615 
L 368.690738 215.370676 
L 385.77782 182.487221 
" clip-path="url(#p9d9b6015b0)" style="fill: none; stroke: #ff0000; stroke-width: 5; stroke-linecap: round"/>
   </g>
   <g id="line2d_15"/>
   <g id="line2d_16"/>
   <g id="line2d_17"/>
   <g id="line2d_18">
    <path d="M 61.123274 132.985086 
L 78.210355 112.755158 
L 95.297437 157.866896 
L 112.384518 135.051741 
L 129.4716 138.287816 
L 146.558681 104.551528 
L 163.645762 179.372441 
L 180.732844 143.069018 
L 197.819925 193.987055 
L 214.907006 177.648494 
L 231.994088 171.164672 
L 249.081169 141.629977 
L 266.16825 156.284993 
L 283.255332 179.362029 
L 300.342413 185.137969 
L 317.429494 168.80937 
L 334.516576 147.49076 
L 351.603657 189.486521 
L 368.690738 224.24645 
L 385.77782 179.325486 
" clip-path="url(#p9d9b6015b0)" style="fill: none; stroke: #000000; stroke-width: 0.5; stroke-linecap: round"/>
   </g>
   <g id="line2d_19">
    <path d="M 61.123274 173.038693 
L 78.210355 121.326765 
L 95.297437 164.595053 
L 112.384518 126.479743 
L 129.4716 147.263853 
L 146.558681 119.977324 
L 163.645762 149.384635 
L 180.732844 152.648749 
L 197.819925 170.553044 
L 214.907006 206.42236 
L 231.994088 191.378849 
L 249.081169 175.175014 
L 266.16825 172.739949 
L 283.255332 165.502051 
L 300.342413 158.573843 
L 317.429494 193.2222 
L 334.516576 163.682611 
L 351.603657 140.123145 
L 368.690738 201.911579 
L 385.77782 181.273684 
" clip-path="url(#p9d9b6015b0)" style="fill: none; stroke: #000000; stroke-width: 0.5; stroke-linecap: round"/>
   </g>
   <g id="line2d_20">
    <path d="M 61.123274 149.4692 
L 78.210355 112.268962 
L 112.384518 152.170302 
L 129.4716 117.80246 
L 146.558681 115.108681 
L 163.645762 145.50399 
L 180.732844 145.856336 
L 197.819925 220.098194 
L 214.907006 214.919873 
L 231.994088 146.562793 
L 249.081169 121.173742 
L 266.16825 183.450636 
L 283.255332 142.328049 
L 300.342413 173.61737 
L 317.429494 183.366968 
L 334.516576 179.75584 
L 351.603657 183.142025 
L 368.690738 230.366299 
L 385.77782 210.279805 
" clip-path="url(#p9d9b6015b0)" style="fill: none; stroke: #000000; stroke-width: 0.5; stroke-linecap: round"/>
   </g>
   <g id="line2d_21">
    <path d="M 61.123274 151.083063 
L 78.210355 155.254468 
L 95.297437 119.194099 
L 112.384518 137.365531 
L 129.4716 136.832948 
L 146.558681 112.631643 
L 163.645762 125.386358 
L 180.732844 153.665011 
L 197.819925 148.043192 
L 214.907006 199.050626 
L 231.994088 175.227281 
L 249.081169 137.006338 
L 266.16825 129.894114 
L 283.255332 132.257999 
L 300.342413 169.291946 
L 317.429494 164.831405 
L 334.516576 190.852125 
L 351.603657 212.424005 
L 368.690738 206.118684 
L 385.77782 199.798156 
" clip-path="url(#p9d9b6015b0)" style="fill: none; stroke: #000000; stroke-width: 0.5; stroke-linecap: round"/>
   </g>
   <g id="line2d_22">
    <path d="M 61.123274 118.461675 
L 78.210355 123.139538 
L 95.297437 151.769152 
L 112.384518 113.020189 
L 129.4716 134.221648 
L 146.558681 221.905732 
L 163.645762 136.831745 
L 180.732844 143.895447 
L 197.819925 153.833751 
L 214.907006 161.391172 
L 249.081169 145.971862 
L 266.16825 153.864935 
L 283.255332 147.939858 
L 300.342413 130.598109 
L 317.429494 220.587877 
L 334.516576 184.320378 
L 351.603657 230.995589 
L 368.690738 243.157945 
L 385.77782 220.890057 
" clip-path="url(#p9d9b6015b0)" style="fill: none; stroke: #000000; stroke-width: 0.5; stroke-linecap: round"/>
   </g>
   <g id="line2d_23">
    <path d="M 61.123274 135.365702 
L 78.210355 112.109113 
L 95.297437 107.786083 
L 112.384518 161.746385 
L 129.4716 128.436278 
L 146.558681 177.89092 
L 163.645762 132.801171 
L 180.732844 188.891873 
L 197.819925 157.095838 
L 214.907006 203.113868 
L 231.994088 170.179167 
L 249.081169 146.039249 
L 266.16825 145.01574 
L 283.255332 185.008668 
L 300.342413 196.564332 
L 317.429494 132.598017 
L 334.516576 181.511544 
L 351.603657 206.822337 
L 368.690738 211.011842 
L 385.77782 175.622461 
" clip-path="url(#p9d9b6015b0)" style="fill: none; stroke: #000000; stroke-width: 0.5; stroke-linecap: round"/>
   </g>
   <g id="line2d_24">
    <path d="M 61.123274 139.053243 
L 78.210355 127.124077 
L 95.297437 123.074173 
L 112.384518 169.320486 
L 129.4716 200.341495 
L 146.558681 135.806487 
L 163.645762 217.567931 
L 180.732844 145.637629 
L 197.819925 147.750249 
L 214.907006 166.249514 
L 231.994088 199.319545 
L 249.081169 196.07706 
L 283.255332 169.827046 
L 300.342413 172.447022 
L 317.429494 200.306024 
L 334.516576 253.125967 
L 351.603657 216.96062 
L 368.690738 195.53057 
L 385.77782 247.148998 
" clip-path="url(#p9d9b6015b0)" style="fill: none; stroke: #000000; stroke-width: 0.5; stroke-linecap: round"/>
   </g>
   <g id="line2d_25">
    <path d="M 61.123274 147.268308 
L 78.210355 38.180062 
L 95.297437 134.359356 
L 112.384518 155.086468 
L 129.4716 124.415208 
L 146.558681 130.578015 
L 163.645762 174.712364 
L 180.732844 151.085173 
L 197.819925 135.707829 
L 214.907006 142.23501 
L 231.994088 164.231393 
L 249.081169 169.030068 
L 266.16825 136.317888 
L 283.255332 152.475774 
L 300.342413 135.917723 
L 317.429494 181.98015 
L 334.516576 164.794416 
L 351.603657 199.379104 
L 368.690738 232.685302 
L 385.77782 200.745908 
" clip-path="url(#p9d9b6015b0)" style="fill: none; stroke: #000000; stroke-width: 0.5; stroke-linecap: round"/>
   </g>
   <g id="line2d_26">
    <path d="M 61.123274 205.905102 
L 78.210355 175.806495 
L 95.297437 150.791419 
L 112.384518 212.274003 
L 129.4716 191.710225 
L 146.558681 210.699721 
L 163.645762 225.744832 
L 180.732844 243.809081 
L 197.819925 185.678307 
L 214.907006 258.451456 
L 231.994088 153.760705 
L 249.081169 151.510967 
L 266.16825 174.959435 
L 283.255332 250.5491 
L 300.342413 242.243046 
L 317.429494 173.309872 
L 334.516576 225.750503 
L 351.603657 217.766977 
L 368.690738 195.48438 
L 385.77782 218.741769 
" clip-path="url(#p9d9b6015b0)" style="fill: none; stroke: #000000; stroke-width: 0.5; stroke-linecap: round"/>
   </g>
   <g id="line2d_27">
    <path d="M 61.123274 230.217112 
L 78.210355 168.314071 
L 95.297437 132.086898 
L 112.384518 129.372559 
L 129.4716 147.995388 
L 146.558681 181.574417 
L 163.645762 203.651156 
L 180.732844 205.165194 
L 197.819925 200.642416 
L 214.907006 215.200143 
L 231.994088 168.597295 
L 249.081169 167.828812 
L 266.16825 155.591225 
L 283.255332 175.893284 
L 300.342413 196.955845 
L 317.429494 195.154643 
L 334.516576 213.876684 
L 351.603657 190.361677 
L 368.690738 201.41794 
L 385.77782 217.17544 
" clip-path="url(#p9d9b6015b0)" style="fill: none; stroke: #000000; stroke-width: 0.5; stroke-linecap: round"/>
   </g>
   <g id="line2d_28">
    <path d="M 61.123274 178.188672 
L 78.210355 156.068338 
L 95.297437 163.299029 
L 112.384518 153.957318 
L 129.4716 148.213363 
L 146.558681 144.60888 
L 163.645762 178.359422 
L 180.732844 169.86764 
L 197.819925 112.483868 
L 214.907006 224.59497 
L 231.994088 184.209991 
L 249.081169 136.848623 
L 266.16825 144.217509 
L 283.255332 204.781846 
L 300.342413 141.878433 
L 317.429494 190.398746 
L 334.516576 235.441379 
L 351.603657 193.783302 
L 368.690738 178.680195 
L 385.77782 208.973476 
" clip-path="url(#p9d9b6015b0)" style="fill: none; stroke: #000000; stroke-width: 0.5; stroke-linecap: round"/>
   </g>
   <g id="line2d_29">
    <path d="M 61.123274 211.539626 
L 78.210355 175.237584 
L 95.297437 141.172696 
L 112.384518 192.669477 
L 129.4716 144.447441 
L 146.558681 224.447798 
L 163.645762 135.391594 
L 180.732844 223.487526 
L 197.819925 168.544693 
L 214.907006 227.101993 
L 231.994088 163.833805 
L 249.081169 172.005628 
L 266.16825 152.627272 
L 283.255332 202.095581 
L 300.342413 195.114763 
L 317.429494 189.060397 
L 334.516576 232.014588 
L 351.603657 193.155053 
L 368.690738 219.147762 
L 385.77782 184.333501 
" clip-path="url(#p9d9b6015b0)" style="fill: none; stroke: #000000; stroke-width: 0.5; stroke-linecap: round"/>
   </g>
   <g id="line2d_30">
    <path d="M 61.123274 192.170547 
L 78.210355 212.147236 
L 95.297437 188.155801 
L 129.4716 179.720308 
L 146.558681 194.548037 
L 163.645762 180.563935 
L 180.732844 182.226983 
L 214.907006 205.732853 
L 231.994088 147.737499 
L 249.081169 167.718832 
L 266.16825 198.888278 
L 283.255332 161.851871 
L 300.342413 170.922893 
L 317.429494 205.067324 
L 334.516576 160.082231 
L 351.603657 164.564238 
L 368.690738 180.071447 
L 385.77782 132.927321 
" clip-path="url(#p9d9b6015b0)" style="fill: none; stroke: #0000ff; stroke-width: 0.5; stroke-linecap: round"/>
   </g>
   <g id="line2d_31">
    <path d="M 61.123274 185.550912 
L 78.210355 161.679228 
L 95.297437 201.686242 
L 112.384518 195.136239 
L 129.4716 217.570182 
L 146.558681 167.978985 
L 163.645762 182.181959 
L 180.732844 156.398116 
L 197.819925 206.475487 
L 214.907006 186.160086 
L 231.994088 214.694479 
L 249.081169 191.004405 
L 266.16825 190.217023 
L 283.255332 151.542551 
L 300.342413 178.169132 
L 317.429494 202.018817 
L 334.516576 184.548854 
L 351.603657 171.691896 
L 368.690738 151.92984 
L 385.77782 189.293061 
" clip-path="url(#p9d9b6015b0)" style="fill: none; stroke: #0000ff; stroke-width: 0.5; stroke-linecap: round"/>
   </g>
   <g id="line2d_32">
    <path d="M 61.123274 165.562957 
L 78.210355 191.190054 
L 95.297437 190.383452 
L 112.384518 209.998534 
L 129.4716 148.498719 
L 146.558681 174.528127 
L 163.645762 184.166649 
L 180.732844 178.163773 
L 197.819925 181.359413 
L 214.907006 119.073223 
L 231.994088 162.476088 
L 249.081169 139.7825 
L 266.16825 158.335618 
L 283.255332 161.082104 
L 300.342413 130.579605 
L 317.429494 154.274445 
L 334.516576 169.767777 
L 351.603657 205.919534 
L 368.690738 142.139264 
L 385.77782 155.682846 
" clip-path="url(#p9d9b6015b0)" style="fill: none; stroke: #0000ff; stroke-width: 0.5; stroke-linecap: round"/>
   </g>
   <g id="line2d_33">
    <path d="M 61.123274 204.511247 
L 78.210355 152.506583 
L 95.297437 184.702231 
L 129.4716 160.168951 
L 146.558681 190.768898 
L 163.645762 158.467053 
L 180.732844 155.690629 
L 197.819925 160.488204 
L 214.907006 141.864552 
L 231.994088 154.249053 
L 249.081169 162.450448 
L 266.16825 152.606817 
L 283.255332 129.134185 
L 300.342413 172.478009 
L 317.429494 163.465069 
L 334.516576 139.710938 
L 351.603657 173.966875 
L 368.690738 165.733981 
L 385.77782 194.98156 
" clip-path="url(#p9d9b6015b0)" style="fill: none; stroke: #0000ff; stroke-width: 0.5; stroke-linecap: round"/>
   </g>
   <g id="line2d_34">
    <path d="M 61.123274 193.535361 
L 78.210355 185.673305 
L 95.297437 184.870976 
L 129.4716 159.110984 
L 146.558681 166.247327 
L 163.645762 158.568457 
L 197.819925 173.061848 
L 214.907006 156.03779 
L 231.994088 179.497053 
L 249.081169 152.553878 
L 266.16825 172.855474 
L 283.255332 173.84506 
L 300.342413 202.126551 
L 317.429494 140.378526 
L 334.516576 143.509992 
L 351.603657 172.377195 
L 368.690738 206.121926 
L 385.77782 178.67223 
" clip-path="url(#p9d9b6015b0)" style="fill: none; stroke: #0000ff; stroke-width: 0.5; stroke-linecap: round"/>
   </g>
   <g id="line2d_35">
    <path d="M 61.123274 179.053254 
L 78.210355 170.02231 
L 95.297437 189.418043 
L 112.384518 161.701921 
L 129.4716 181.766961 
L 146.558681 152.08485 
L 163.645762 147.526354 
L 180.732844 174.515528 
L 197.819925 213.049681 
L 214.907006 180.641012 
L 231.994088 177.589457 
L 249.081169 158.995585 
L 266.16825 187.340067 
L 283.255332 159.189709 
L 300.342413 202.166111 
L 317.429494 211.379127 
L 334.516576 210.906712 
L 351.603657 182.130285 
L 368.690738 169.356875 
L 385.77782 179.35871 
" clip-path="url(#p9d9b6015b0)" style="fill: none; stroke: #0000ff; stroke-width: 0.5; stroke-linecap: round"/>
   </g>
   <g id="line2d_36">
    <path d="M 61.123274 163.504649 
L 78.210355 128.618684 
L 95.297437 159.007873 
L 112.384518 157.642453 
L 129.4716 149.383715 
L 146.558681 162.683019 
L 180.732844 144.88337 
L 197.819925 160.470531 
L 214.907006 161.837983 
L 231.994088 157.909891 
L 249.081169 170.495315 
L 266.16825 190.912725 
L 283.255332 148.335009 
L 300.342413 164.270995 
L 317.429494 150.534499 
L 334.516576 184.939419 
L 351.603657 183.453225 
L 368.690738 156.886883 
L 385.77782 173.263802 
" clip-path="url(#p9d9b6015b0)" style="fill: none; stroke: #0000ff; stroke-width: 0.5; stroke-linecap: round"/>
   </g>
   <g id="line2d_37">
    <path d="M 61.123274 145.0749 
L 78.210355 200.4178 
L 95.297437 229.094064 
L 112.384518 173.957484 
L 129.4716 136.059253 
L 146.558681 139.844962 
L 163.645762 132.959309 
L 180.732844 152.195518 
L 197.819925 222.60234 
L 214.907006 138.245928 
L 249.081169 147.883812 
L 266.16825 173.308595 
L 283.255332 126.211914 
L 300.342413 152.181542 
L 317.429494 148.186408 
L 334.516576 170.896359 
L 351.603657 140.498812 
L 368.690738 190.732672 
L 385.77782 162.131263 
" clip-path="url(#p9d9b6015b0)" style="fill: none; stroke: #0000ff; stroke-width: 0.5; stroke-linecap: round"/>
   </g>
   <g id="line2d_38">
    <path d="M 61.123274 178.80715 
L 78.210355 163.00688 
L 95.297437 207.010837 
L 112.384518 180.523193 
L 129.4716 168.430808 
L 163.645762 157.289655 
L 180.732844 165.530736 
L 197.819925 161.626257 
L 214.907006 172.577309 
L 231.994088 122.482926 
L 249.081169 129.667698 
L 266.16825 236.25522 
L 283.255332 171.122818 
L 300.342413 148.909396 
L 317.429494 191.205128 
L 334.516576 181.3291 
L 351.603657 162.451028 
L 368.690738 164.546374 
L 385.77782 126.363527 
" clip-path="url(#p9d9b6015b0)" style="fill: none; stroke: #0000ff; stroke-width: 0.5; stroke-linecap: round"/>
   </g>
   <g id="line2d_39">
    <path d="M 61.123274 185.144032 
L 78.210355 148.781586 
L 95.297437 178.30413 
L 112.384518 187.308358 
L 129.4716 148.602263 
L 146.558681 156.934904 
L 163.645762 149.930943 
L 180.732844 208.927541 
L 197.819925 145.062558 
L 214.907006 168.0664 
L 231.994088 147.326164 
L 249.081169 155.396726 
L 266.16825 146.84187 
L 283.255332 163.432911 
L 300.342413 144.589733 
L 317.429494 157.264015 
L 334.516576 131.020654 
L 351.603657 155.417239 
L 368.690738 141.546875 
L 385.77782 154.147919 
" clip-path="url(#p9d9b6015b0)" style="fill: none; stroke: #0000ff; stroke-width: 0.5; stroke-linecap: round"/>
   </g>
   <g id="line2d_40">
    <path d="M 61.123274 141.171243 
L 78.210355 158.51171 
L 95.297437 211.472977 
L 112.384518 191.604838 
L 129.4716 154.793931 
L 146.558681 184.029141 
L 163.645762 142.346503 
L 180.732844 157.261047 
L 197.819925 162.990065 
L 214.907006 149.999388 
L 231.994088 177.009164 
L 249.081169 142.573977 
L 266.16825 140.249745 
L 283.255332 141.239908 
L 300.342413 171.936445 
L 317.429494 158.640618 
L 334.516576 149.45681 
L 351.603657 132.737262 
L 368.690738 148.118766 
L 385.77782 145.909557 
" clip-path="url(#p9d9b6015b0)" style="fill: none; stroke: #0000ff; stroke-width: 0.5; stroke-linecap: round"/>
   </g>
   <g id="line2d_41">
    <path d="M 61.123274 211.932165 
L 78.210355 147.895214 
L 95.297437 162.244207 
L 112.384518 172.727822 
L 129.4716 157.065079 
L 146.558681 167.425931 
L 163.645762 137.316772 
L 180.732844 150.701632 
L 197.819925 152.819496 
L 214.907006 151.629906 
L 231.994088 177.84131 
L 266.16825 170.31826 
L 283.255332 120.79441 
L 300.342413 158.30032 
L 317.429494 161.019613 
L 334.516576 156.550513 
L 351.603657 146.715018 
L 368.690738 142.964749 
L 385.77782 157.473053 
" clip-path="url(#p9d9b6015b0)" style="fill: none; stroke: #0000ff; stroke-width: 0.5; stroke-linecap: round"/>
   </g>
   <g id="line2d_42">
    <path d="M 61.123274 195.374746 
L 78.210355 147.508128 
L 95.297437 204.081903 
L 112.384518 195.894635 
L 129.4716 184.05737 
L 146.558681 208.691802 
L 163.645762 157.609982 
L 180.732844 184.402572 
L 197.819925 173.674068 
L 214.907006 199.832653 
L 231.994088 186.036874 
L 249.081169 152.829421 
L 266.16825 188.534862 
L 283.255332 188.819809 
L 300.342413 182.522486 
L 317.429494 180.061719 
L 334.516576 172.857836 
L 351.603657 241.423987 
L 368.690738 191.7908 
L 385.77782 130.847051 
" clip-path="url(#p9d9b6015b0)" style="fill: none; stroke: #ff0000; stroke-width: 0.5; stroke-linecap: round"/>
   </g>
   <g id="line2d_43">
    <path d="M 61.123274 181.029301 
L 78.210355 186.495444 
L 95.297437 180.872101 
L 112.384518 217.056641 
L 129.4716 172.061021 
L 146.558681 177.283726 
L 163.645762 156.556278 
L 180.732844 180.608006 
L 197.819925 213.346148 
L 214.907006 165.565682 
L 231.994088 165.71039 
L 249.081169 167.532638 
L 266.16825 213.124006 
L 283.255332 161.785176 
L 300.342413 206.083854 
L 317.429494 176.146189 
L 334.516576 179.081646 
L 351.603657 171.458113 
L 368.690738 194.954938 
L 385.77782 185.001052 
" clip-path="url(#p9d9b6015b0)" style="fill: none; stroke: #ff0000; stroke-width: 0.5; stroke-linecap: round"/>
   </g>
   <g id="line2d_44">
    <path d="M 61.123274 176.985101 
L 78.210355 140.763423 
L 95.297437 173.932422 
L 112.384518 157.393696 
L 129.4716 261.26287 
L 146.558681 213.313706 
L 163.645762 169.610347 
L 180.732844 210.431688 
L 197.819925 198.882971 
L 214.907006 200.711285 
L 231.994088 181.603824 
L 266.16825 224.606185 
L 283.255332 199.917599 
L 300.342413 219.480346 
L 317.429494 202.47046 
L 334.516576 193.329482 
L 351.603657 194.089033 
L 368.690738 250.74866 
" clip-path="url(#p9d9b6015b0)" style="fill: none; stroke: #ff0000; stroke-width: 0.5; stroke-linecap: round"/>
   </g>
   <g id="line2d_45">
    <path d="M 61.123274 229.872547 
L 78.210355 163.103218 
L 95.297437 183.100553 
L 112.384518 183.378343 
L 129.4716 166.671877 
L 146.558681 193.365203 
L 163.645762 230.145189 
L 180.732844 190.497527 
L 197.819925 220.165778 
L 214.907006 252.896778 
L 231.994088 226.429734 
" clip-path="url(#p9d9b6015b0)" style="fill: none; stroke: #ff0000; stroke-width: 0.5; stroke-linecap: round"/>
   </g>
   <g id="line2d_46">
    <path d="M 61.123274 186.521164 
L 78.210355 162.984975 
L 95.297437 217.724371 
L 112.384518 280.100062 
L 129.4716 232.206751 
L 146.558681 202.492203 
L 163.645762 224.200149 
L 180.732844 199.987724 
L 197.819925 215.143139 
L 214.907006 196.018225 
L 231.994088 211.859394 
L 249.081169 189.28767 
L 266.16825 173.825804 
L 283.255332 181.318984 
L 300.342413 165.146144 
L 317.429494 172.351857 
L 334.516576 201.158071 
L 351.603657 179.550269 
L 368.690738 198.445956 
L 385.77782 198.40649 
" clip-path="url(#p9d9b6015b0)" style="fill: none; stroke: #ff0000; stroke-width: 0.5; stroke-linecap: round"/>
   </g>
   <g id="line2d_47">
    <path d="M 61.123274 240.047691 
L 78.210355 165.594153 
L 95.297437 195.845426 
L 112.384518 226.3006 
L 129.4716 164.023849 
L 146.558681 178.915844 
L 163.645762 166.814256 
L 180.732844 183.010832 
L 197.819925 211.347141 
L 214.907006 224.465692 
L 249.081169 209.237875 
L 266.16825 180.977965 
L 283.255332 258.921877 
L 300.342413 212.917295 
L 317.429494 226.102307 
L 334.516576 202.337348 
L 351.603657 228.411182 
L 368.690738 211.573588 
" clip-path="url(#p9d9b6015b0)" style="fill: none; stroke: #ff0000; stroke-width: 0.5; stroke-linecap: round"/>
   </g>
   <g id="line2d_48">
    <path d="M 61.123274 160.798415 
L 78.210355 203.727828 
L 95.297437 214.821085 
L 112.384518 193.887806 
L 129.4716 218.034743 
L 146.558681 234.810658 
L 180.732844 210.239726 
L 197.819925 184.579211 
L 214.907006 192.085259 
L 231.994088 189.077986 
L 249.081169 174.841871 
L 266.16825 226.977794 
L 283.255332 215.795953 
L 300.342413 213.663286 
L 317.429494 189.720782 
L 334.516576 212.183778 
L 351.603657 202.2623 
L 368.690738 230.624047 
L 385.77782 203.029655 
" clip-path="url(#p9d9b6015b0)" style="fill: none; stroke: #ff0000; stroke-width: 0.5; stroke-linecap: round"/>
   </g>
   <g id="line2d_49">
    <path d="M 61.123274 175.211822 
L 78.210355 170.122154 
L 95.297437 179.265971 
L 112.384518 182.401323 
L 129.4716 157.056064 
L 146.558681 207.282499 
L 163.645762 190.349172 
L 197.819925 172.147874 
L 214.907006 184.191104 
L 231.994088 177.817325 
L 249.081169 153.220728 
L 266.16825 180.775292 
L 283.255332 178.892053 
L 300.342413 205.808005 
L 317.429494 188.507192 
L 334.516576 216.136009 
L 351.603657 214.38309 
L 368.690738 170.844268 
L 385.77782 206.053762 
" clip-path="url(#p9d9b6015b0)" style="fill: none; stroke: #ff0000; stroke-width: 0.5; stroke-linecap: round"/>
   </g>
   <g id="line2d_50">
    <path d="M 61.123274 180.587413 
L 78.210355 205.785358 
L 95.297437 179.843495 
L 112.384518 177.032128 
L 129.4716 172.546225 
L 146.558681 152.478125 
L 163.645762 147.226422 
L 180.732844 176.778206 
L 197.819925 175.750424 
L 214.907006 206.342385 
L 249.081169 156.411222 
L 266.16825 169.897552 
L 283.255332 243.666824 
L 300.342413 190.874362 
L 317.429494 193.82535 
L 334.516576 222.560466 
L 351.603657 198.171772 
L 368.690738 247.216587 
L 385.77782 186.971627 
" clip-path="url(#p9d9b6015b0)" style="fill: none; stroke: #ff0000; stroke-width: 0.5; stroke-linecap: round"/>
   </g>
   <g id="line2d_51">
    <path d="M 61.123274 181.08724 
L 78.210355 145.863992 
L 95.297437 187.852571 
L 112.384518 182.107495 
L 129.4716 200.180243 
L 146.558681 159.446977 
L 163.645762 173.310831 
L 180.732844 169.046651 
L 197.819925 183.030973 
L 214.907006 223.135894 
L 231.994088 187.524152 
L 249.081169 172.236017 
L 266.16825 184.927546 
L 283.255332 262.712064 
L 300.342413 178.939356 
L 317.429494 230.004868 
L 334.516576 218.51331 
L 351.603657 215.804284 
L 368.690738 244.365242 
L 385.77782 197.656214 
" clip-path="url(#p9d9b6015b0)" style="fill: none; stroke: #ff0000; stroke-width: 0.5; stroke-linecap: round"/>
   </g>
   <g id="line2d_52">
    <path d="M 61.123274 179.440077 
L 78.210355 173.333135 
L 95.297437 228.221009 
L 112.384518 207.226933 
L 129.4716 169.735777 
L 146.558681 170.382023 
L 163.645762 173.794419 
L 180.732844 166.335526 
L 197.819925 158.134429 
L 214.907006 262.272096 
L 231.994088 173.539627 
L 249.081169 151.154601 
L 266.16825 184.169514 
L 283.255332 203.803515 
L 300.342413 158.498137 
L 317.429494 149.401061 
L 334.516576 168.86671 
L 351.603657 171.424035 
L 368.690738 240.572962 
L 385.77782 138.239618 
" clip-path="url(#p9d9b6015b0)" style="fill: none; stroke: #ff0000; stroke-width: 0.5; stroke-linecap: round"/>
   </g>
   <g id="line2d_53">
    <path d="M 61.123274 191.230754 
L 78.210355 169.999688 
L 95.297437 194.393052 
L 112.384518 237.19128 
L 129.4716 257.288933 
L 146.558681 241.838063 
L 163.645762 181.351267 
L 180.732844 192.594937 
L 197.819925 184.332639 
L 231.994088 157.705628 
L 249.081169 160.798593 
L 266.16825 209.98362 
L 283.255332 189.200205 
L 300.342413 194.79979 
L 334.516576 180.220331 
L 351.603657 218.272696 
L 368.690738 187.940392 
L 385.77782 196.179523 
" clip-path="url(#p9d9b6015b0)" style="fill: none; stroke: #ff0000; stroke-width: 0.5; stroke-linecap: round"/>
   </g>
   <g id="line2d_54"/>
   <g id="line2d_55"/>
   <g id="line2d_56"/>
   <g id="patch_3">
    <path d="M 44.890547 292.196062 
L 44.890547 26.084062 
" style="fill: none; stroke: #262626; stroke-width: 1.25; stroke-linejoin: miter; stroke-linecap: square"/>
   </g>
   <g id="patch_4">
    <path d="M 402.010547 292.196062 
L 402.010547 26.084062 
" style="fill: none; stroke: #262626; stroke-width: 1.25; stroke-linejoin: miter; stroke-linecap: square"/>
   </g>
   <g id="patch_5">
    <path d="M 44.890547 292.196062 
L 402.010547 292.196062 
" style="fill: none; stroke: #262626; stroke-width: 1.25; stroke-linejoin: miter; stroke-linecap: square"/>
   </g>
   <g id="patch_6">
    <path d="M 44.890547 26.084062 
L 402.010547 26.084062 
" style="fill: none; stroke: #262626; stroke-width: 1.25; stroke-linejoin: miter; stroke-linecap: square"/>
   </g>
   <g id="text_14">
    <text style="fill: #262626; font: 18px 'sans-serif'; text-anchor: middle" x="223.450547" y="20.084062" transform="rotate(-0 223.450547 20.084062)">Alpha Diversity</text>
   </g>
   <g id="legend_1">
    <g id="patch_7">
     <path d="M 423.166547 171.877031 
L 547.468266 171.877031 
Q 550.768266 171.877031 550.768266 168.577031 
L 550.768266 29.384062 
Q 550.768266 26.084062 547.468266 26.084062 
L 423.166547 26.084062 
Q 419.866547 26.084062 419.866547 29.384062 
L 419.866547 168.577031 
Q 419.866547 171.877031 423.166547 171.877031 
z
" style="fill: #ffffff; opacity: 0.8; stroke: #cccccc; stroke-linejoin: miter"/>
    </g>
    <g id="line2d_57">
     <path d="M 426.466547 38.920547 
L 442.966547 38.920547 
L 459.466547 38.920547 
" style="fill: none; stroke: #000000; stroke-width: 1.5; stroke-linecap: round"/>
    </g>
    <g id="text_15">
     <text style="fill: #262626; font: 16.5px 'sans-serif'; text-anchor: start" x="472.666547" y="44.695547" transform="rotate(-0 472.666547 44.695547)">RC_AIR</text>
    </g>
    <g id="line2d_58">
     <path d="M 426.466547 62.260312 
L 442.966547 62.260312 
L 459.466547 62.260312 
" style="fill: none; stroke: #0000ff; stroke-width: 1.5; stroke-linecap: round"/>
    </g>
    <g id="text_16">
     <text style="fill: #262626; font: 16.5px 'sans-serif'; text-anchor: start" x="472.666547" y="68.035312" transform="rotate(-0 472.666547 68.035312)">HFD_AIR</text>
    </g>
    <g id="line2d_59">
     <path d="M 426.466547 85.801172 
L 442.966547 85.801172 
L 459.466547 85.801172 
" style="fill: none; stroke: #ff0000; stroke-width: 1.5; stroke-linecap: round"/>
    </g>
    <g id="text_17">
     <text style="fill: #262626; font: 16.5px 'sans-serif'; text-anchor: start" x="472.666547" y="91.576172" transform="rotate(-0 472.666547 91.576172)">HFD_IHC</text>
    </g>
    <g id="line2d_60">
     <path d="M 426.466547 109.342031 
L 442.966547 109.342031 
L 459.466547 109.342031 
" style="fill: none; stroke: #000000; stroke-width: 1.5; stroke-linecap: round"/>
    </g>
    <g id="text_18">
     <text style="fill: #262626; font: 16.5px 'sans-serif'; text-anchor: start" x="472.666547" y="115.117031" transform="rotate(-0 472.666547 115.117031)">RC_AIR</text>
    </g>
    <g id="line2d_61">
     <path d="M 426.466547 132.681797 
L 442.966547 132.681797 
L 459.466547 132.681797 
" style="fill: none; stroke: #0000ff; stroke-width: 1.5; stroke-linecap: round"/>
    </g>
    <g id="text_19">
     <text style="fill: #262626; font: 16.5px 'sans-serif'; text-anchor: start" x="472.666547" y="138.456797" transform="rotate(-0 472.666547 138.456797)">HFD_AIR</text>
    </g>
    <g id="line2d_62">
     <path d="M 426.466547 156.222656 
L 442.966547 156.222656 
L 459.466547 156.222656 
" style="fill: none; stroke: #ff0000; stroke-width: 1.5; stroke-linecap: round"/>
    </g>
    <g id="text_20">
     <text style="fill: #262626; font: 16.5px 'sans-serif'; text-anchor: start" x="472.666547" y="161.997656" transform="rotate(-0 472.666547 161.997656)">HFD_IHC</text>
    </g>
   </g>
  </g>
 </g>
 <defs>
  <clipPath id="p9d9b6015b0">
   <rect x="44.890547" y="26.084062" width="357.12" height="266.112"/>
  </clipPath>
 </defs>
</svg>
