<?xml version="1.0" encoding="utf-8" standalone="no"?>
<!DOCTYPE svg PUBLIC "-//W3C//DTD SVG 1.1//EN"
  "http://www.w3.org/Graphics/SVG/1.1/DTD/svg11.dtd">
<svg xmlns:xlink="http://www.w3.org/1999/xlink" width="567.605297pt" height="343.000828pt" viewBox="0 0 567.605297 343.000828" xmlns="http://www.w3.org/2000/svg" version="1.1">
 <metadata>
  <rdf:RDF xmlns:dc="http://purl.org/dc/elements/1.1/" xmlns:cc="http://creativecommons.org/ns#" xmlns:rdf="http://www.w3.org/1999/02/22-rdf-syntax-ns#">
   <cc:Work>
    <dc:type rdf:resource="http://purl.org/dc/dcmitype/StillImage"/>
    <dc:date>2024-07-10T16:22:58.474704</dc:date>
    <dc:format>image/svg+xml</dc:format>
    <dc:creator>
     <cc:Agent>
      <dc:title>Matplotlib v3.6.0, https://matplotlib.org/</dc:title>
     </cc:Agent>
    </dc:creator>
   </cc:Work>
  </rdf:RDF>
 </metadata>
 <defs>
  <style type="text/css">*{stroke-linejoin: round; stroke-linecap: butt}</style>
 </defs>
 <g id="figure_1">
  <g id="patch_1">
   <path d="M 0 343.000828 
L 567.605297 343.000828 
L 567.605297 0 
L 0 0 
z
" style="fill: #ffffff"/>
  </g>
  <g id="axes_1">
   <g id="patch_2">
    <path d="M 54.527578 292.196062 
L 411.647578 292.196062 
L 411.647578 26.084062 
L 54.527578 26.084062 
z
" style="fill: #ffffff"/>
   </g>
   <g id="matplotlib.axis_1">
    <g id="xtick_1">
     <g id="line2d_1">
      <defs>
       <path id="m753621acaf" d="M 0 0 
L 0 6 
" style="stroke: #262626; stroke-width: 1.25"/>
      </defs>
      <g>
       <use xlink:href="#m753621acaf" x="70.760305" y="292.196062" style="fill: #262626; stroke: #262626; stroke-width: 1.25"/>
      </g>
     </g>
     <g id="text_1">
      <text style="fill: #262626; font: 16.5px 'sans-serif'; text-anchor: middle" x="70.760305" y="313.506453" transform="rotate(-0 70.760305 313.506453)">10</text>
     </g>
    </g>
    <g id="xtick_2">
     <g id="line2d_2">
      <g>
       <use xlink:href="#m753621acaf" x="139.108631" y="292.196062" style="fill: #262626; stroke: #262626; stroke-width: 1.25"/>
      </g>
     </g>
     <g id="text_2">
      <text style="fill: #262626; font: 16.5px 'sans-serif'; text-anchor: middle" x="139.108631" y="313.506453" transform="rotate(-0 139.108631 313.506453)">12</text>
     </g>
    </g>
    <g id="xtick_3">
     <g id="line2d_3">
      <g>
       <use xlink:href="#m753621acaf" x="207.456956" y="292.196062" style="fill: #262626; stroke: #262626; stroke-width: 1.25"/>
      </g>
     </g>
     <g id="text_3">
      <text style="fill: #262626; font: 16.5px 'sans-serif'; text-anchor: middle" x="207.456956" y="313.506453" transform="rotate(-0 207.456956 313.506453)">14</text>
     </g>
    </g>
    <g id="xtick_4">
     <g id="line2d_4">
      <g>
       <use xlink:href="#m753621acaf" x="275.805281" y="292.196062" style="fill: #262626; stroke: #262626; stroke-width: 1.25"/>
      </g>
     </g>
     <g id="text_4">
      <text style="fill: #262626; font: 16.5px 'sans-serif'; text-anchor: middle" x="275.805281" y="313.506453" transform="rotate(-0 275.805281 313.506453)">16</text>
     </g>
    </g>
    <g id="xtick_5">
     <g id="line2d_5">
      <g>
       <use xlink:href="#m753621acaf" x="344.153607" y="292.196062" style="fill: #262626; stroke: #262626; stroke-width: 1.25"/>
      </g>
     </g>
     <g id="text_5">
      <text style="fill: #262626; font: 16.5px 'sans-serif'; text-anchor: middle" x="344.153607" y="313.506453" transform="rotate(-0 344.153607 313.506453)">18</text>
     </g>
    </g>
    <g id="text_6">
     <text style="fill: #262626; font: 16px 'sans-serif'; text-anchor: middle" x="233.087578" y="332.433328" transform="rotate(-0 233.087578 332.433328)">Host Age (weeks)</text>
    </g>
   </g>
   <g id="matplotlib.axis_2">
    <g id="ytick_1">
     <g id="line2d_6">
      <defs>
       <path id="m591936cc69" d="M 0 0 
L -6 0 
" style="stroke: #262626; stroke-width: 1.25"/>
      </defs>
      <g>
       <use xlink:href="#m591936cc69" x="54.527578" y="272.613198" style="fill: #262626; stroke: #262626; stroke-width: 1.25"/>
      </g>
     </g>
     <g id="text_7">
      <text style="fill: #262626; font: 16.5px 'sans-serif'; text-anchor: end" x="45.027578" y="278.518393" transform="rotate(-0 45.027578 278.518393)">−6</text>
     </g>
    </g>
    <g id="ytick_2">
     <g id="line2d_7">
      <g>
       <use xlink:href="#m591936cc69" x="54.527578" y="234.267428" style="fill: #262626; stroke: #262626; stroke-width: 1.25"/>
      </g>
     </g>
     <g id="text_8">
      <text style="fill: #262626; font: 16.5px 'sans-serif'; text-anchor: end" x="45.027578" y="240.172623" transform="rotate(-0 45.027578 240.172623)">−4</text>
     </g>
    </g>
    <g id="ytick_3">
     <g id="line2d_8">
      <g>
       <use xlink:href="#m591936cc69" x="54.527578" y="195.921657" style="fill: #262626; stroke: #262626; stroke-width: 1.25"/>
      </g>
     </g>
     <g id="text_9">
      <text style="fill: #262626; font: 16.5px 'sans-serif'; text-anchor: end" x="45.027578" y="201.826852" transform="rotate(-0 45.027578 201.826852)">−2</text>
     </g>
    </g>
    <g id="ytick_4">
     <g id="line2d_9">
      <g>
       <use xlink:href="#m591936cc69" x="54.527578" y="157.575886" style="fill: #262626; stroke: #262626; stroke-width: 1.25"/>
      </g>
     </g>
     <g id="text_10">
      <text style="fill: #262626; font: 16.5px 'sans-serif'; text-anchor: end" x="45.027578" y="163.481082" transform="rotate(-0 45.027578 163.481082)">0</text>
     </g>
    </g>
    <g id="ytick_5">
     <g id="line2d_10">
      <g>
       <use xlink:href="#m591936cc69" x="54.527578" y="119.230116" style="fill: #262626; stroke: #262626; stroke-width: 1.25"/>
      </g>
     </g>
     <g id="text_11">
      <text style="fill: #262626; font: 16.5px 'sans-serif'; text-anchor: end" x="45.027578" y="125.135311" transform="rotate(-0 45.027578 125.135311)">2</text>
     </g>
    </g>
    <g id="ytick_6">
     <g id="line2d_11">
      <g>
       <use xlink:href="#m591936cc69" x="54.527578" y="80.884345" style="fill: #262626; stroke: #262626; stroke-width: 1.25"/>
      </g>
     </g>
     <g id="text_12">
      <text style="fill: #262626; font: 16.5px 'sans-serif'; text-anchor: end" x="45.027578" y="86.78954" transform="rotate(-0 45.027578 86.78954)">4</text>
     </g>
    </g>
    <g id="ytick_7">
     <g id="line2d_12">
      <g>
       <use xlink:href="#m591936cc69" x="54.527578" y="42.538575" style="fill: #262626; stroke: #262626; stroke-width: 1.25"/>
      </g>
     </g>
     <g id="text_13">
      <text style="fill: #262626; font: 16.5px 'sans-serif'; text-anchor: end" x="45.027578" y="48.44377" transform="rotate(-0 45.027578 48.44377)">6</text>
     </g>
    </g>
    <g id="text_14">
     <text style="fill: #262626; font: 16px 'sans-serif'; text-anchor: middle" x="18.8475" y="159.140062" transform="rotate(-90 18.8475 159.140062)">Ln (Muribaculaceae/Akkermansiaceae)</text>
    </g>
   </g>
   <g id="line2d_13">
    <path d="M 70.760305 89.40424 
L 87.847387 89.188967 
L 104.934468 86.691439 
L 122.021549 80.253977 
L 139.108631 90.522663 
L 156.195712 100.80715 
L 173.282793 103.255317 
L 190.369875 108.469987 
L 207.456956 97.900228 
L 224.544037 101.950013 
L 241.631119 103.56239 
L 258.7182 109.291885 
L 275.805281 99.062593 
L 292.892363 96.893639 
L 309.979444 93.703534 
L 327.066525 95.511166 
L 344.153607 103.880428 
L 361.240688 113.088636 
L 378.32777 111.700548 
L 395.414851 111.913456 
" clip-path="url(#p5742b24795)" style="fill: none; stroke: #000000; stroke-width: 5; stroke-linecap: round"/>
   </g>
   <g id="line2d_14">
    <path d="M 70.760305 92.358624 
L 87.847387 156.171029 
L 104.934468 164.847272 
L 122.021549 159.449318 
L 139.108631 150.316192 
L 156.195712 153.111508 
L 173.282793 148.497136 
L 190.369875 148.84168 
L 207.456956 147.241403 
L 224.544037 153.164711 
L 241.631119 152.50142 
L 258.7182 145.712066 
L 275.805281 157.58517 
L 292.892363 147.879994 
L 309.979444 155.293969 
L 327.066525 148.416374 
L 344.153607 153.921368 
L 361.240688 157.326158 
L 378.32777 142.682917 
L 395.414851 145.32951 
" clip-path="url(#p5742b24795)" style="fill: none; stroke: #0000ff; stroke-width: 5; stroke-linecap: round"/>
   </g>
   <g id="line2d_15">
    <path d="M 70.760305 65.793531 
L 87.847387 146.939068 
L 104.934468 156.86573 
L 122.021549 177.157403 
L 139.108631 160.33464 
L 156.195712 162.95653 
L 173.282793 174.322547 
L 190.369875 184.866415 
L 207.456956 191.106733 
L 224.544037 226.744817 
L 241.631119 167.463577 
L 258.7182 169.592886 
L 275.805281 166.033522 
L 292.892363 194.696477 
L 309.979444 168.423108 
L 327.066525 176.428802 
L 344.153607 183.954256 
L 361.240688 191.35357 
L 378.32777 196.724791 
L 395.414851 177.694979 
" clip-path="url(#p5742b24795)" style="fill: none; stroke: #ff0000; stroke-width: 5; stroke-linecap: round"/>
   </g>
   <g id="line2d_16"/>
   <g id="line2d_17"/>
   <g id="line2d_18"/>
   <g id="line2d_19">
    <path d="M 70.760305 76.458973 
L 87.847387 97.612748 
L 104.934468 101.489357 
L 122.021549 85.42264 
L 139.108631 111.725606 
L 156.195712 87.35592 
L 173.282793 106.580176 
L 190.369875 106.580432 
L 207.456956 101.00312 
L 224.544037 108.800916 
L 241.631119 114.669938 
L 258.7182 92.019652 
L 275.805281 73.268553 
L 292.892363 75.09031 
L 309.979444 79.129641 
L 327.066525 84.543661 
L 344.153607 97.09327 
L 361.240688 118.739069 
L 378.32777 103.613245 
L 395.414851 108.326792 
" clip-path="url(#p5742b24795)" style="fill: none; stroke: #000000; stroke-width: 0.5; stroke-linecap: round"/>
   </g>
   <g id="line2d_20">
    <path d="M 70.760305 114.877888 
L 87.847387 88.854903 
L 104.934468 80.267169 
L 122.021549 74.839836 
L 139.108631 98.352937 
L 156.195712 91.976457 
L 173.282793 98.283168 
L 190.369875 107.983931 
L 207.456956 101.390694 
L 224.544037 123.277421 
L 241.631119 102.21214 
L 258.7182 106.253815 
L 275.805281 82.293498 
L 292.892363 98.638936 
L 309.979444 104.456476 
L 327.066525 93.560881 
L 344.153607 106.725362 
L 361.240688 111.479814 
L 378.32777 116.875299 
L 395.414851 102.764829 
" clip-path="url(#p5742b24795)" style="fill: none; stroke: #000000; stroke-width: 0.5; stroke-linecap: round"/>
   </g>
   <g id="line2d_21">
    <path d="M 70.760305 87.637265 
L 87.847387 81.429602 
L 122.021549 76.802787 
L 139.108631 80.256153 
L 156.195712 74.199455 
L 173.282793 46.983026 
L 190.369875 76.442215 
L 207.456956 110.942229 
L 224.544037 100.963375 
L 241.631119 110.720102 
L 258.7182 102.142824 
L 275.805281 82.508187 
L 292.892363 88.073233 
L 309.979444 105.426642 
L 327.066525 103.692671 
L 344.153607 108.398407 
L 361.240688 124.185794 
L 378.32777 116.026677 
L 395.414851 106.260023 
" clip-path="url(#p5742b24795)" style="fill: none; stroke: #000000; stroke-width: 0.5; stroke-linecap: round"/>
   </g>
   <g id="line2d_22">
    <path d="M 70.760305 134.963072 
L 87.847387 100.981523 
L 104.934468 83.034696 
L 122.021549 74.112363 
L 139.108631 94.394848 
L 156.195712 96.873522 
L 173.282793 79.081634 
L 190.369875 94.96946 
L 207.456956 95.624941 
L 224.544037 106.455371 
L 241.631119 91.725202 
L 258.7182 115.227222 
L 275.805281 94.607994 
L 292.892363 78.836426 
L 309.979444 113.893732 
L 327.066525 117.073702 
L 344.153607 99.238467 
L 361.240688 108.46563 
L 378.32777 104.717985 
L 395.414851 98.696049 
" clip-path="url(#p5742b24795)" style="fill: none; stroke: #000000; stroke-width: 0.5; stroke-linecap: round"/>
   </g>
   <g id="line2d_23">
    <path d="M 70.760305 97.044514 
L 87.847387 120.639135 
L 104.934468 99.002579 
L 122.021549 97.577337 
L 139.108631 97.899655 
L 156.195712 159.899188 
L 173.282793 125.612857 
L 190.369875 154.977742 
L 207.456956 97.602787 
L 224.544037 102.892679 
L 258.7182 135.097255 
L 275.805281 116.234878 
L 292.892363 100.432711 
L 309.979444 101.005335 
L 327.066525 98.899787 
L 344.153607 109.475626 
L 361.240688 101.320816 
L 378.32777 106.741664 
L 395.414851 108.661131 
" clip-path="url(#p5742b24795)" style="fill: none; stroke: #000000; stroke-width: 0.5; stroke-linecap: round"/>
   </g>
   <g id="line2d_24">
    <path d="M 70.760305 86.751185 
L 87.847387 90.939184 
L 104.934468 85.720939 
L 122.021549 99.863309 
L 139.108631 113.409395 
L 156.195712 136.537183 
L 173.282793 143.177002 
L 190.369875 145.285666 
L 207.456956 109.850138 
L 224.544037 126.038701 
L 241.631119 128.098985 
L 258.7182 133.259728 
L 275.805281 148.154487 
L 292.892363 103.736563 
L 309.979444 68.789556 
L 327.066525 75.244488 
L 344.153607 84.464014 
L 361.240688 90.34044 
L 378.32777 84.521427 
L 395.414851 109.055468 
" clip-path="url(#p5742b24795)" style="fill: none; stroke: #000000; stroke-width: 0.5; stroke-linecap: round"/>
   </g>
   <g id="line2d_25">
    <path d="M 70.760305 119.699047 
L 87.847387 104.34084 
L 104.934468 101.705781 
L 122.021549 90.225842 
L 139.108631 112.914143 
L 156.195712 122.901882 
L 173.282793 127.296409 
L 190.369875 123.03185 
L 207.456956 99.947247 
L 224.544037 121.746111 
L 241.631119 126.897069 
L 258.7182 119.190968 
L 292.892363 117.89001 
L 309.979444 84.798847 
L 327.066525 80.612884 
L 344.153607 137.794217 
L 361.240688 119.826511 
L 378.32777 112.649293 
L 395.414851 99.954903 
" clip-path="url(#p5742b24795)" style="fill: none; stroke: #000000; stroke-width: 0.5; stroke-linecap: round"/>
   </g>
   <g id="line2d_26">
    <path d="M 70.760305 86.427023 
L 87.847387 115.4823 
L 104.934468 81.824997 
L 122.021549 99.117511 
L 139.108631 128.995449 
L 156.195712 134.185894 
L 173.282793 144.281033 
L 190.369875 120.281289 
L 207.456956 120.000986 
L 224.544037 107.850715 
L 241.631119 132.705148 
L 258.7182 132.227591 
L 275.805281 131.986046 
L 292.892363 106.015049 
L 309.979444 83.350243 
L 327.066525 85.81993 
L 344.153607 91.15454 
L 361.240688 93.488538 
L 378.32777 107.383365 
L 395.414851 111.113938 
" clip-path="url(#p5742b24795)" style="fill: none; stroke: #000000; stroke-width: 0.5; stroke-linecap: round"/>
   </g>
   <g id="line2d_27">
    <path d="M 70.760305 59.794227 
L 87.847387 48.205554 
L 104.934468 78.434347 
L 122.021549 74.553475 
L 139.108631 62.787449 
L 156.195712 75.722823 
L 173.282793 123.34905 
L 190.369875 85.652204 
L 207.456956 56.278152 
L 224.544037 77.204963 
L 241.631119 77.290264 
L 258.7182 99.159371 
L 275.805281 99.379048 
L 292.892363 88.759644 
L 309.979444 102.699669 
L 327.066525 99.148158 
L 344.153607 107.732907 
L 361.240688 124.488342 
L 378.32777 113.321603 
L 395.414851 125.975395 
" clip-path="url(#p5742b24795)" style="fill: none; stroke: #000000; stroke-width: 0.5; stroke-linecap: round"/>
   </g>
   <g id="line2d_28">
    <path d="M 70.760305 49.469683 
L 87.847387 51.795417 
L 104.934468 40.591303 
L 122.021549 38.180062 
L 139.108631 71.219264 
L 156.195712 93.405586 
L 173.282793 83.837602 
L 190.369875 94.22031 
L 207.456956 80.36718 
L 224.544037 44.28601 
L 241.631119 82.089639 
L 258.7182 99.888305 
L 275.805281 80.133659 
L 292.892363 88.043333 
L 309.979444 92.191718 
L 327.066525 80.648327 
L 344.153607 104.710209 
L 361.240688 128.748069 
L 378.32777 132.903816 
L 395.414851 115.721348 
" clip-path="url(#p5742b24795)" style="fill: none; stroke: #000000; stroke-width: 0.5; stroke-linecap: round"/>
   </g>
   <g id="line2d_29">
    <path d="M 70.760305 90.39684 
L 87.847387 84.080373 
L 104.934468 102.680986 
L 122.021549 79.571057 
L 139.108631 53.996371 
L 156.195712 66.258061 
L 173.282793 79.57912 
L 190.369875 98.106064 
L 207.456956 85.73751 
L 224.544037 100.12243 
L 241.631119 85.828951 
L 258.7182 82.145417 
L 275.805281 88.111829 
L 292.892363 99.67466 
L 309.979444 88.192366 
L 327.066525 118.728178 
L 344.153607 104.353956 
L 361.240688 122.410368 
L 378.32777 108.049969 
L 395.414851 128.314664 
" clip-path="url(#p5742b24795)" style="fill: none; stroke: #000000; stroke-width: 0.5; stroke-linecap: round"/>
   </g>
   <g id="line2d_30">
    <path d="M 70.760305 69.331159 
L 87.847387 85.906028 
L 104.934468 98.85368 
L 122.021549 72.7815 
L 139.108631 60.320682 
L 156.195712 70.369826 
L 173.282793 81.002729 
L 190.369875 94.108682 
L 207.456956 116.057748 
L 224.544037 103.76147 
L 241.631119 86.948851 
L 258.7182 94.890468 
L 275.805281 93.010342 
L 292.892363 117.532789 
L 309.979444 100.50818 
L 327.066525 108.161319 
L 344.153607 95.424159 
L 361.240688 113.570245 
L 378.32777 133.602236 
L 395.414851 128.116937 
" clip-path="url(#p5742b24795)" style="fill: none; stroke: #000000; stroke-width: 0.5; stroke-linecap: round"/>
   </g>
   <g id="line2d_31">
    <path d="M 70.760305 76.789119 
L 87.847387 166.149362 
L 104.934468 174.614939 
L 139.108631 171.759853 
L 156.195712 169.031958 
L 173.282793 173.611589 
L 190.369875 155.012108 
L 224.544037 166.164376 
L 241.631119 164.390597 
L 258.7182 161.094979 
L 275.805281 160.21618 
L 292.892363 140.721387 
L 309.979444 165.948499 
L 327.066525 175.274386 
L 344.153607 165.194906 
L 361.240688 155.092662 
L 378.32777 153.540742 
L 395.414851 145.134622 
" clip-path="url(#p5742b24795)" style="fill: none; stroke: #0000ff; stroke-width: 0.5; stroke-linecap: round"/>
   </g>
   <g id="line2d_32">
    <path d="M 70.760305 89.69294 
L 87.847387 153.705392 
L 104.934468 173.387661 
L 122.021549 152.837853 
L 139.108631 181.034774 
L 156.195712 154.200903 
L 173.282793 138.405128 
L 190.369875 139.645537 
L 207.456956 145.153839 
L 224.544037 160.918994 
L 241.631119 157.848595 
L 258.7182 144.628675 
L 275.805281 142.308564 
L 292.892363 139.894591 
L 309.979444 157.25372 
L 327.066525 157.624232 
L 344.153607 144.167343 
L 361.240688 153.842131 
L 378.32777 122.981681 
L 395.414851 120.117832 
" clip-path="url(#p5742b24795)" style="fill: none; stroke: #0000ff; stroke-width: 0.5; stroke-linecap: round"/>
   </g>
   <g id="line2d_33">
    <path d="M 70.760305 98.467879 
L 87.847387 182.788418 
L 104.934468 161.585412 
L 122.021549 187.773131 
L 139.108631 142.196666 
L 156.195712 144.386307 
L 173.282793 173.9913 
L 190.369875 154.292847 
L 207.456956 165.468618 
L 224.544037 133.567271 
L 241.631119 136.562366 
L 258.7182 117.38043 
L 275.805281 144.336068 
L 292.892363 145.764218 
L 309.979444 152.674327 
L 327.066525 74.382005 
L 344.153607 129.354648 
L 361.240688 161.674327 
L 378.32777 123.057791 
L 395.414851 140.563045 
" clip-path="url(#p5742b24795)" style="fill: none; stroke: #0000ff; stroke-width: 0.5; stroke-linecap: round"/>
   </g>
   <g id="line2d_34">
    <path d="M 70.760305 89.401806 
L 87.847387 165.825033 
L 104.934468 156.690688 
L 139.108631 150.201839 
L 156.195712 160.654555 
L 173.282793 152.991952 
L 190.369875 131.949782 
L 207.456956 115.878013 
L 224.544037 128.283794 
L 241.631119 133.832868 
L 258.7182 122.713765 
L 275.805281 129.270766 
L 292.892363 121.707539 
L 309.979444 145.483196 
L 327.066525 134.367232 
L 344.153607 148.786808 
L 361.240688 173.248545 
L 378.32777 102.15912 
L 395.414851 126.194143 
" clip-path="url(#p5742b24795)" style="fill: none; stroke: #0000ff; stroke-width: 0.5; stroke-linecap: round"/>
   </g>
   <g id="line2d_35">
    <path d="M 70.760305 124.179866 
L 87.847387 164.516586 
L 104.934468 173.819614 
L 139.108631 152.162288 
L 156.195712 153.133228 
L 173.282793 158.319192 
L 207.456956 169.400505 
L 224.544037 150.616607 
L 241.631119 164.08889 
L 258.7182 158.645659 
L 275.805281 167.609004 
L 292.892363 178.305095 
L 309.979444 169.543238 
L 327.066525 150.538935 
L 344.153607 154.697936 
L 361.240688 171.621943 
L 378.32777 178.68408 
L 395.414851 175.345933 
" clip-path="url(#p5742b24795)" style="fill: none; stroke: #0000ff; stroke-width: 0.5; stroke-linecap: round"/>
   </g>
   <g id="line2d_36">
    <path d="M 70.760305 83.192729 
L 87.847387 141.324881 
L 104.934468 155.116082 
L 122.021549 149.963563 
L 139.108631 150.161885 
L 156.195712 156.359398 
L 173.282793 137.763377 
L 190.369875 183.355112 
L 207.456956 157.043697 
L 224.544037 157.341963 
L 241.631119 157.153269 
L 258.7182 141.331784 
L 275.805281 159.983333 
L 292.892363 138.659855 
L 309.979444 135.071515 
L 327.066525 136.134782 
L 344.153607 136.995695 
L 361.240688 155.743609 
L 378.32777 126.43919 
L 395.414851 111.564527 
" clip-path="url(#p5742b24795)" style="fill: none; stroke: #0000ff; stroke-width: 0.5; stroke-linecap: round"/>
   </g>
   <g id="line2d_37">
    <path d="M 70.760305 96.051563 
L 87.847387 139.902549 
L 104.934468 136.520541 
L 122.021549 144.359445 
L 139.108631 148.800358 
L 156.195712 144.024158 
L 190.369875 137.221659 
L 207.456956 139.489623 
L 224.544037 166.056295 
L 241.631119 145.435536 
L 258.7182 161.859306 
L 275.805281 173.410844 
L 292.892363 160.243491 
L 309.979444 163.620823 
L 327.066525 153.147792 
L 344.153607 166.369156 
L 361.240688 172.753283 
L 378.32777 135.119012 
L 395.414851 154.19908 
" clip-path="url(#p5742b24795)" style="fill: none; stroke: #0000ff; stroke-width: 0.5; stroke-linecap: round"/>
   </g>
   <g id="line2d_38">
    <path d="M 70.760305 77.695355 
L 87.847387 162.711713 
L 104.934468 173.687017 
L 122.021549 156.752409 
L 139.108631 145.899725 
L 156.195712 148.926875 
L 173.282793 153.783504 
L 190.369875 159.498666 
L 207.456956 163.157159 
L 224.544037 162.910582 
L 258.7182 162.868584 
L 275.805281 166.883176 
L 292.892363 153.122138 
L 309.979444 161.600261 
L 327.066525 159.116473 
L 344.153607 162.48685 
L 361.240688 160.331919 
L 378.32777 174.588794 
L 395.414851 173.181208 
" clip-path="url(#p5742b24795)" style="fill: none; stroke: #0000ff; stroke-width: 0.5; stroke-linecap: round"/>
   </g>
   <g id="line2d_39">
    <path d="M 70.760305 112.216119 
L 87.847387 157.512295 
L 104.934468 166.701577 
L 122.021549 157.349168 
L 139.108631 146.051469 
L 173.282793 138.674647 
L 190.369875 145.388417 
L 207.456956 145.623 
L 224.544037 153.204078 
L 241.631119 142.030338 
L 258.7182 149.748972 
L 275.805281 182.927739 
L 292.892363 169.987902 
L 309.979444 150.208389 
L 327.066525 175.603603 
L 344.153607 182.26138 
L 361.240688 147.08871 
L 378.32777 168.535731 
L 395.414851 163.378228 
" clip-path="url(#p5742b24795)" style="fill: none; stroke: #0000ff; stroke-width: 0.5; stroke-linecap: round"/>
   </g>
   <g id="line2d_40">
    <path d="M 70.760305 93.726112 
L 87.847387 140.275384 
L 104.934468 150.271934 
L 122.021549 148.65353 
L 139.108631 137.687932 
L 156.195712 132.460444 
L 173.282793 107.420334 
L 190.369875 126.891438 
L 207.456956 130.892172 
L 224.544037 142.531386 
L 241.631119 141.566259 
L 258.7182 124.40535 
L 275.805281 136.768277 
L 292.892363 142.040145 
L 309.979444 128.935704 
L 327.066525 119.453355 
L 344.153607 134.728166 
L 361.240688 136.743143 
L 378.32777 119.683791 
L 395.414851 131.946795 
" clip-path="url(#p5742b24795)" style="fill: none; stroke: #0000ff; stroke-width: 0.5; stroke-linecap: round"/>
   </g>
   <g id="line2d_41">
    <path d="M 70.760305 90.192693 
L 87.847387 154.953823 
L 104.934468 180.984528 
L 122.021549 182.346429 
L 139.108631 140.013313 
L 156.195712 165.022826 
L 173.282793 142.873449 
L 190.369875 150.82426 
L 207.456956 154.621483 
L 224.544037 158.501631 
L 241.631119 179.018719 
L 258.7182 158.155224 
L 275.805281 157.773686 
L 292.892363 144.618629 
L 309.979444 172.582394 
L 327.066525 166.800765 
L 344.153607 148.71188 
L 361.240688 148.817214 
L 378.32777 162.211966 
L 395.414851 160.719614 
" clip-path="url(#p5742b24795)" style="fill: none; stroke: #0000ff; stroke-width: 0.5; stroke-linecap: round"/>
   </g>
   <g id="line2d_42">
    <path d="M 70.760305 76.697306 
L 87.847387 144.386916 
L 104.934468 174.787272 
L 122.021549 155.008331 
L 139.108631 137.824197 
L 156.195712 156.025937 
L 173.282793 155.634028 
L 190.369875 153.178652 
L 207.456956 132.927321 
L 224.544037 157.879549 
L 241.631119 155.588183 
L 275.805281 169.534401 
L 292.892363 139.494932 
L 309.979444 160.60556 
L 327.066525 178.552926 
L 344.153607 173.301643 
L 361.240688 150.956411 
L 378.32777 145.193112 
L 395.414851 141.609089 
" clip-path="url(#p5742b24795)" style="fill: none; stroke: #0000ff; stroke-width: 0.5; stroke-linecap: round"/>
   </g>
   <g id="line2d_43">
    <path d="M 70.760305 59.420498 
L 87.847387 150.014498 
L 104.934468 160.681211 
L 122.021549 162.253547 
L 139.108631 154.349112 
L 156.195712 163.346358 
L 173.282793 134.159276 
L 190.369875 141.506097 
L 207.456956 170.035049 
L 224.544037 213.664889 
L 241.631119 156.963959 
L 258.7182 153.346724 
L 275.805281 150.210969 
L 292.892363 192.772356 
L 309.979444 153.973808 
L 327.066525 182.834243 
L 344.153607 177.985369 
L 361.240688 212.762786 
L 378.32777 194.62062 
L 395.414851 172.386519 
" clip-path="url(#p5742b24795)" style="fill: none; stroke: #ff0000; stroke-width: 0.5; stroke-linecap: round"/>
   </g>
   <g id="line2d_44">
    <path d="M 70.760305 94.699225 
L 87.847387 176.735224 
L 104.934468 157.890941 
L 122.021549 205.361479 
L 139.108631 137.908297 
L 156.195712 162.821346 
L 173.282793 151.628788 
L 190.369875 177.34798 
L 207.456956 216.555338 
L 224.544037 189.267852 
L 241.631119 155.927775 
L 258.7182 174.691556 
L 275.805281 159.641736 
L 292.892363 193.647209 
L 309.979444 184.849852 
L 327.066525 139.626017 
L 344.153607 174.033021 
L 361.240688 134.458518 
L 378.32777 160.121882 
L 395.414851 185.863962 
" clip-path="url(#p5742b24795)" style="fill: none; stroke: #ff0000; stroke-width: 0.5; stroke-linecap: round"/>
   </g>
   <g id="line2d_45">
    <path d="M 70.760305 79.616164 
L 87.847387 164.558182 
L 104.934468 158.962993 
L 122.021549 160.163387 
L 139.108631 176.352941 
L 156.195712 160.670747 
L 173.282793 161.125206 
L 190.369875 237.164939 
L 207.456956 162.406833 
L 224.544037 228.015618 
L 241.631119 176.556731 
L 275.805281 172.534523 
L 292.892363 170.77381 
L 309.979444 171.647537 
L 327.066525 181.748023 
L 344.153607 171.505028 
L 361.240688 184.285897 
L 378.32777 216.116953 
" clip-path="url(#p5742b24795)" style="fill: none; stroke: #ff0000; stroke-width: 0.5; stroke-linecap: round"/>
   </g>
   <g id="line2d_46">
    <path d="M 70.760305 96.151253 
L 87.847387 158.61357 
L 104.934468 155.228306 
L 122.021549 157.109613 
L 139.108631 153.308261 
L 156.195712 173.223764 
L 173.282793 200.486746 
L 190.369875 179.966354 
L 207.456956 226.611586 
L 224.544037 245.817118 
L 241.631119 198.000413 
" clip-path="url(#p5742b24795)" style="fill: none; stroke: #ff0000; stroke-width: 0.5; stroke-linecap: round"/>
   </g>
   <g id="line2d_47">
    <path d="M 70.760305 85.945814 
L 87.847387 172.68231 
L 104.934468 163.731498 
L 122.021549 229.079546 
L 139.108631 183.874264 
L 156.195712 193.052282 
L 173.282793 240.869127 
L 190.369875 222.353538 
L 207.456956 217.914542 
L 224.544037 236.091073 
L 241.631119 168.504249 
L 258.7182 180.082362 
L 275.805281 161.930692 
L 292.892363 214.016294 
L 309.979444 158.112977 
L 327.066525 164.47445 
L 344.153607 173.670038 
L 361.240688 160.770385 
L 378.32777 189.052009 
L 395.414851 194.465768 
" clip-path="url(#p5742b24795)" style="fill: none; stroke: #ff0000; stroke-width: 0.5; stroke-linecap: round"/>
   </g>
   <g id="line2d_48">
    <path d="M 70.760305 47.027548 
L 87.847387 149.72803 
L 104.934468 154.967571 
L 122.021549 188.333045 
L 139.108631 152.014635 
L 156.195712 171.418586 
L 173.282793 190.488063 
L 190.369875 208.104522 
L 207.456956 210.741311 
L 224.544037 280.100062 
L 258.7182 203.129567 
L 275.805281 180.064544 
L 292.892363 216.008363 
L 309.979444 175.766935 
L 327.066525 199.965318 
L 344.153607 204.269892 
L 361.240688 213.849961 
L 378.32777 183.043864 
" clip-path="url(#p5742b24795)" style="fill: none; stroke: #ff0000; stroke-width: 0.5; stroke-linecap: round"/>
   </g>
   <g id="line2d_49">
    <path d="M 70.760305 46.904425 
L 87.847387 134.214936 
L 104.934468 152.583197 
L 122.021549 183.691252 
L 139.108631 161.039397 
L 156.195712 187.948955 
L 190.369875 215.33638 
L 207.456956 192.117839 
L 224.544037 186.943628 
L 241.631119 166.322359 
L 258.7182 181.708082 
L 275.805281 165.086429 
L 292.892363 216.039249 
L 309.979444 184.482175 
L 327.066525 178.118868 
L 344.153607 221.477689 
L 361.240688 225.116006 
L 378.32777 224.495965 
L 395.414851 176.425237 
" clip-path="url(#p5742b24795)" style="fill: none; stroke: #ff0000; stroke-width: 0.5; stroke-linecap: round"/>
   </g>
   <g id="line2d_50">
    <path d="M 70.760305 43.033582 
L 87.847387 79.150104 
L 104.934468 150.310387 
L 122.021549 154.588197 
L 139.108631 150.483325 
L 156.195712 148.064537 
L 173.282793 200.698245 
L 207.456956 187.329643 
L 224.544037 187.381441 
L 241.631119 164.68359 
L 258.7182 156.794661 
L 275.805281 167.263638 
L 292.892363 178.815992 
L 309.979444 160.9804 
L 327.066525 184.199407 
L 344.153607 190.108046 
L 361.240688 223.865937 
L 378.32777 193.218465 
L 395.414851 168.590763 
" clip-path="url(#p5742b24795)" style="fill: none; stroke: #ff0000; stroke-width: 0.5; stroke-linecap: round"/>
   </g>
   <g id="line2d_51">
    <path d="M 70.760305 47.841031 
L 87.847387 176.608288 
L 104.934468 137.958137 
L 122.021549 161.164343 
L 139.108631 143.52792 
L 156.195712 138.159962 
L 173.282793 143.100326 
L 190.369875 175.252209 
L 207.456956 196.553749 
L 224.544037 221.925572 
L 258.7182 163.533123 
L 275.805281 169.363489 
L 292.892363 218.059098 
L 309.979444 169.931222 
L 327.066525 171.577363 
L 344.153607 191.636191 
L 361.240688 184.306192 
L 378.32777 208.978662 
L 395.414851 178.504329 
" clip-path="url(#p5742b24795)" style="fill: none; stroke: #ff0000; stroke-width: 0.5; stroke-linecap: round"/>
   </g>
   <g id="line2d_52">
    <path d="M 70.760305 87.979784 
L 87.847387 145.72268 
L 104.934468 160.458912 
L 122.021549 165.753786 
L 139.108631 174.59908 
L 156.195712 157.957975 
L 173.282793 154.282651 
L 190.369875 164.84451 
L 207.456956 158.208542 
L 224.544037 238.43198 
L 241.631119 165.839711 
L 258.7182 168.997286 
L 275.805281 158.038272 
L 292.892363 186.760128 
L 309.979444 164.778727 
L 327.066525 189.7476 
L 344.153607 193.967633 
L 361.240688 183.926553 
L 378.32777 211.321319 
L 395.414851 174.662025 
" clip-path="url(#p5742b24795)" style="fill: none; stroke: #ff0000; stroke-width: 0.5; stroke-linecap: round"/>
   </g>
   <g id="line2d_53">
    <path d="M 70.760305 41.457787 
L 87.847387 122.180609 
L 104.934468 167.335099 
L 122.021549 173.482721 
L 139.108631 153.775111 
L 156.195712 138.157135 
L 173.282793 179.673387 
L 190.369875 145.963048 
L 207.456956 182.456974 
L 224.544037 266.553754 
L 241.631119 165.113167 
L 258.7182 157.536177 
L 275.805281 162.136239 
L 292.892363 180.647841 
L 309.979444 163.526445 
L 327.066525 171.996729 
L 344.153607 158.400008 
L 361.240688 189.400474 
L 378.32777 191.334368 
L 395.414851 175.281868 
" clip-path="url(#p5742b24795)" style="fill: none; stroke: #ff0000; stroke-width: 0.5; stroke-linecap: round"/>
   </g>
   <g id="line2d_54">
    <path d="M 70.760305 59.445264 
L 87.847387 133.060389 
L 104.934468 162.280506 
L 122.021549 184.907921 
L 139.108631 182.78334 
L 156.195712 160.656716 
L 173.282793 161.036204 
L 190.369875 165.690993 
L 207.456956 172.349393 
L 241.631119 156.723811 
L 258.7182 156.109322 
L 275.805281 180.098208 
L 292.892363 174.120911 
L 309.979444 164.604109 
L 344.153607 166.443897 
L 361.240688 192.146563 
L 378.32777 191.668589 
L 395.414851 173.074342 
" clip-path="url(#p5742b24795)" style="fill: none; stroke: #ff0000; stroke-width: 0.5; stroke-linecap: round"/>
   </g>
   <g id="line2d_55"/>
   <g id="line2d_56"/>
   <g id="line2d_57"/>
   <g id="patch_3">
    <path d="M 54.527578 292.196062 
L 54.527578 26.084062 
" style="fill: none; stroke: #262626; stroke-width: 1.25; stroke-linejoin: miter; stroke-linecap: square"/>
   </g>
   <g id="patch_4">
    <path d="M 411.647578 292.196062 
L 411.647578 26.084062 
" style="fill: none; stroke: #262626; stroke-width: 1.25; stroke-linejoin: miter; stroke-linecap: square"/>
   </g>
   <g id="patch_5">
    <path d="M 54.527578 292.196062 
L 411.647578 292.196062 
" style="fill: none; stroke: #262626; stroke-width: 1.25; stroke-linejoin: miter; stroke-linecap: square"/>
   </g>
   <g id="patch_6">
    <path d="M 54.527578 26.084062 
L 411.647578 26.084062 
" style="fill: none; stroke: #262626; stroke-width: 1.25; stroke-linejoin: miter; stroke-linecap: square"/>
   </g>
   <g id="text_15">
    <text style="fill: #262626; font: 18px 'sans-serif'; text-anchor: middle" x="233.087578" y="20.084062" transform="rotate(-0 233.087578 20.084062)">Log Ratio</text>
   </g>
   <g id="legend_1">
    <g id="patch_7">
     <path d="M 432.803578 171.877031 
L 557.105297 171.877031 
Q 560.405297 171.877031 560.405297 168.577031 
L 560.405297 29.384062 
Q 560.405297 26.084062 557.105297 26.084062 
L 432.803578 26.084062 
Q 429.503578 26.084062 429.503578 29.384062 
L 429.503578 168.577031 
Q 429.503578 171.877031 432.803578 171.877031 
z
" style="fill: #ffffff; opacity: 0.8; stroke: #cccccc; stroke-linejoin: miter"/>
    </g>
    <g id="line2d_58">
     <path d="M 436.103578 38.920547 
L 452.603578 38.920547 
L 469.103578 38.920547 
" style="fill: none; stroke: #000000; stroke-width: 1.5; stroke-linecap: round"/>
    </g>
    <g id="text_16">
     <text style="fill: #262626; font: 16.5px 'sans-serif'; text-anchor: start" x="482.303578" y="44.695547" transform="rotate(-0 482.303578 44.695547)">RC_AIR</text>
    </g>
    <g id="line2d_59">
     <path d="M 436.103578 62.260312 
L 452.603578 62.260312 
L 469.103578 62.260312 
" style="fill: none; stroke: #0000ff; stroke-width: 1.5; stroke-linecap: round"/>
    </g>
    <g id="text_17">
     <text style="fill: #262626; font: 16.5px 'sans-serif'; text-anchor: start" x="482.303578" y="68.035312" transform="rotate(-0 482.303578 68.035312)">HFD_AIR</text>
    </g>
    <g id="line2d_60">
     <path d="M 436.103578 85.801172 
L 452.603578 85.801172 
L 469.103578 85.801172 
" style="fill: none; stroke: #ff0000; stroke-width: 1.5; stroke-linecap: round"/>
    </g>
    <g id="text_18">
     <text style="fill: #262626; font: 16.5px 'sans-serif'; text-anchor: start" x="482.303578" y="91.576172" transform="rotate(-0 482.303578 91.576172)">HFD_IHC</text>
    </g>
    <g id="line2d_61">
     <path d="M 436.103578 109.342031 
L 452.603578 109.342031 
L 469.103578 109.342031 
" style="fill: none; stroke: #000000; stroke-width: 1.5; stroke-linecap: round"/>
    </g>
    <g id="text_19">
     <text style="fill: #262626; font: 16.5px 'sans-serif'; text-anchor: start" x="482.303578" y="115.117031" transform="rotate(-0 482.303578 115.117031)">RC_AIR</text>
    </g>
    <g id="line2d_62">
     <path d="M 436.103578 132.681797 
L 452.603578 132.681797 
L 469.103578 132.681797 
" style="fill: none; stroke: #0000ff; stroke-width: 1.5; stroke-linecap: round"/>
    </g>
    <g id="text_20">
     <text style="fill: #262626; font: 16.5px 'sans-serif'; text-anchor: start" x="482.303578" y="138.456797" transform="rotate(-0 482.303578 138.456797)">HFD_AIR</text>
    </g>
    <g id="line2d_63">
     <path d="M 436.103578 156.222656 
L 452.603578 156.222656 
L 469.103578 156.222656 
" style="fill: none; stroke: #ff0000; stroke-width: 1.5; stroke-linecap: round"/>
    </g>
    <g id="text_21">
     <text style="fill: #262626; font: 16.5px 'sans-serif'; text-anchor: start" x="482.303578" y="161.997656" transform="rotate(-0 482.303578 161.997656)">HFD_IHC</text>
    </g>
   </g>
  </g>
 </g>
 <defs>
  <clipPath id="p5742b24795">
   <rect x="54.527578" y="26.084062" width="357.12" height="266.112"/>
  </clipPath>
 </defs>
</svg>
